<svg width="271" height="40" viewBox="0 0 271 40" fill="none" xmlns="http://www.w3.org/2000/svg">
<rect x="0.5" y="0.5" width="39" height="39" rx="7.5" fill="#6387C5"/>
<rect x="0.5" y="0.5" width="39" height="39" rx="7.5" stroke="#6387C5"/>
<path d="M22 20L18.5 22V18L22 20Z" fill="white" stroke="white" stroke-width="1.5" stroke-linecap="round" stroke-linejoin="round"/>
<path d="M10 20.7074V19.2924C10 16.3974 10 14.9494 10.905 14.0184C11.811 13.0864 13.237 13.0464 16.088 12.9654C17.438 12.9274 18.818 12.9004 20 12.9004C21.181 12.9004 22.561 12.9274 23.912 12.9654C26.763 13.0464 28.189 13.0864 29.094 14.0184C30 14.9494 30 16.3984 30 19.2924V20.7074C30 23.6034 30 25.0504 29.095 25.9824C28.189 26.9134 26.764 26.9544 23.912 27.0344C22.562 27.0734 21.182 27.1004 20 27.1004C18.6958 27.0965 17.3916 27.0745 16.088 27.0344C13.237 26.9544 11.811 26.9144 10.905 25.9824C10 25.0504 10 23.6024 10 20.7084V20.7074Z" stroke="white" stroke-width="1.5"/>
<rect x="64.5" y="0.5" width="39" height="39" rx="7.5" stroke="white"/>
<path d="M95 11.01C95 11.01 92.982 12.202 91.86 12.54C91.2577 11.8475 90.4573 11.3567 89.567 11.1339C88.6767 10.9112 87.7395 10.9672 86.8821 11.2944C86.0247 11.6217 85.2884 12.2044 84.773 12.9637C84.2575 13.723 83.9877 14.6223 84 15.54V16.54C82.2426 16.5856 80.5013 16.1958 78.931 15.4054C77.3607 14.6151 76.0103 13.4486 75 12.01C75 12.01 71 21.01 80 25.01C77.9405 26.408 75.4872 27.1089 73 27.01C82 32.01 93 27.01 93 15.51C93 15.232 92.972 14.954 92.92 14.68C93.94 13.674 95 11.01 95 11.01Z" stroke="white" stroke-width="1.5" stroke-linecap="round" stroke-linejoin="round"/>
<rect x="128.5" y="0.5" width="39" height="39" rx="7.5" stroke="white"/>
<path d="M148 24C149.061 24 150.078 23.5786 150.828 22.8284C151.579 22.0783 152 21.0609 152 20C152 18.9391 151.579 17.9217 150.828 17.1716C150.078 16.4214 149.061 16 148 16C146.939 16 145.922 16.4214 145.172 17.1716C144.421 17.9217 144 18.9391 144 20C144 21.0609 144.421 22.0783 145.172 22.8284C145.922 23.5786 146.939 24 148 24V24Z" stroke="white" stroke-width="1.5" stroke-linecap="round" stroke-linejoin="round"/>
<path d="M139 24V16C139 14.6739 139.527 13.4021 140.464 12.4645C141.402 11.5268 142.674 11 144 11H152C153.326 11 154.598 11.5268 155.536 12.4645C156.473 13.4021 157 14.6739 157 16V24C157 25.3261 156.473 26.5979 155.536 27.5355C154.598 28.4732 153.326 29 152 29H144C142.674 29 141.402 28.4732 140.464 27.5355C139.527 26.5979 139 25.3261 139 24Z" stroke="white" stroke-width="1.5"/>
<path d="M153.5 14.51L153.51 14.499" stroke="white" stroke-width="1.5" stroke-linecap="round" stroke-linejoin="round"/>
<rect x="192.5" y="0.5" width="39" height="39" rx="7.5" stroke="white"/>
<path d="M217 10H214C212.674 10 211.402 10.5268 210.464 11.4645C209.527 12.4021 209 13.6739 209 15V18H206V22H209V30H213V22H216L217 18H213V15C213 14.7348 213.105 14.4804 213.293 14.2929C213.48 14.1054 213.735 14 214 14H217V10Z" stroke="white" stroke-width="1.5" stroke-linecap="round" stroke-linejoin="round"/>
</svg>
