<svg width="261" height="471" viewBox="0 0 261 471" fill="none" xmlns="http://www.w3.org/2000/svg">
<g opacity="0.2">
<path d="M-367.881 436.464C-368.402 434.901 -366.914 433.413 -365.351 433.934L-361.086 435.356C-359.676 435.826 -359.253 437.616 -360.304 438.668L-363.148 441.511C-364.199 442.562 -365.989 442.139 -366.459 440.729L-367.881 436.464Z" fill="#6387C5"/>
<path d="M-306.904 497.441C-307.426 495.877 -305.938 494.39 -304.375 494.911L-297.547 497.187C-296.136 497.657 -295.714 499.447 -296.765 500.498L-301.317 505.05C-302.368 506.102 -304.158 505.679 -304.628 504.268L-306.904 497.441Z" fill="#6387C5"/>
<path d="M-245.074 559.271C-245.595 557.708 -244.107 556.22 -242.544 556.741L-235.716 559.017C-234.305 559.488 -233.883 561.278 -234.934 562.329L-239.486 566.881C-240.537 567.932 -242.327 567.51 -242.798 566.099L-245.074 559.271Z" fill="#6387C5"/>
<path d="M-182.389 621.956C-182.91 620.393 -181.422 618.905 -179.859 619.427L-175.594 620.848C-174.183 621.318 -173.761 623.108 -174.812 624.16L-177.655 627.003C-178.707 628.054 -180.497 627.632 -180.967 626.221L-182.389 621.956Z" fill="#6387C5"/>
<path d="M-368.735 311.948C-369.256 310.385 -367.769 308.897 -366.205 309.419L-359.377 311.695C-357.967 312.165 -357.544 313.955 -358.596 315.006L-363.148 319.558C-364.199 320.609 -365.989 320.187 -366.459 318.776L-368.735 311.948Z" fill="#6387C5"/>
<path d="M-308.613 372.07C-309.134 370.507 -307.647 369.019 -306.083 369.54L-294.129 373.525C-292.719 373.995 -292.296 375.786 -293.347 376.837L-301.317 384.806C-302.368 385.858 -304.158 385.435 -304.628 384.025L-308.613 372.07Z" fill="#6387C5"/>
<path d="M-248.514 432.17C-249.035 430.606 -247.547 429.119 -245.984 429.64L-228.836 435.356C-227.425 435.826 -227.003 437.616 -228.054 438.668L-239.486 450.1C-240.537 451.151 -242.327 450.728 -242.798 449.318L-248.514 432.17Z" fill="#6387C5"/>
<path d="M-186.683 494C-187.204 492.437 -185.717 490.95 -184.153 491.471L-167.005 497.187C-165.595 497.657 -165.172 499.447 -166.223 500.498L-177.655 511.93C-178.707 512.982 -180.497 512.559 -180.967 511.149L-186.683 494Z" fill="#6387C5"/>
<path d="M-123.121 557.562C-123.642 555.999 -122.155 554.512 -120.591 555.033L-108.637 559.017C-107.226 559.488 -106.804 561.278 -107.855 562.329L-115.825 570.299C-116.876 571.35 -118.666 570.927 -119.136 569.517L-123.121 557.562Z" fill="#6387C5"/>
<path d="M-59.5815 621.102C-60.1026 619.538 -58.6152 618.051 -57.0516 618.572L-50.2237 620.848C-48.8132 621.318 -48.3906 623.108 -49.4419 624.16L-53.9939 628.712C-55.0452 629.763 -56.8353 629.34 -57.3055 627.93L-59.5815 621.102Z" fill="#6387C5"/>
<path d="M-367.881 189.141C-368.402 187.578 -366.914 186.09 -365.351 186.611L-361.086 188.033C-359.676 188.503 -359.253 190.293 -360.304 191.345L-363.148 194.188C-364.199 195.239 -365.989 194.817 -366.459 193.406L-367.881 189.141Z" fill="#6387C5"/>
<path d="M-308.613 248.409C-309.134 246.845 -307.647 245.358 -306.083 245.879L-294.129 249.864C-292.719 250.334 -292.296 252.124 -293.347 253.175L-301.317 261.145C-302.368 262.196 -304.158 261.774 -304.628 260.363L-308.613 248.409Z" fill="#6387C5"/>
<path d="M-249.368 307.654C-249.889 306.09 -248.402 304.603 -246.838 305.124L-227.127 311.695C-225.717 312.165 -225.294 313.955 -226.345 315.006L-239.486 328.147C-240.537 329.198 -242.328 328.776 -242.798 327.365L-249.368 307.654Z" fill="#6387C5"/>
<path d="M-190.101 366.922C-190.622 365.358 -189.134 363.871 -187.571 364.392L-160.17 373.525C-158.759 373.995 -158.337 375.786 -159.388 376.837L-177.655 395.104C-178.707 396.155 -180.497 395.733 -180.967 394.322L-190.101 366.922Z" fill="#6387C5"/>
<path d="M-128.27 428.752C-128.791 427.189 -127.303 425.701 -125.74 426.222L-98.3392 435.356C-96.9288 435.826 -96.5062 437.616 -97.5575 438.668L-115.825 456.935C-116.876 457.986 -118.666 457.563 -119.136 456.153L-128.27 428.752Z" fill="#6387C5"/>
<path d="M-63.8759 493.146C-64.3971 491.583 -62.9096 490.095 -61.3461 490.616L-41.6348 497.187C-40.2244 497.657 -39.8018 499.447 -40.8531 500.498L-53.9939 513.639C-55.0452 514.69 -56.8353 514.268 -57.3055 512.857L-63.8759 493.146Z" fill="#6387C5"/>
<path d="M0.540497 557.562C0.0193481 555.999 1.50681 554.512 3.07031 555.033L15.0246 559.017C16.4351 559.488 16.8577 561.278 15.8064 562.329L7.83685 570.299C6.78555 571.35 4.99542 570.927 4.52527 569.517L0.540497 557.562Z" fill="#6387C5"/>
<path d="M64.9344 621.956C64.4132 620.393 65.9007 618.905 67.4642 619.427L71.729 620.848C73.1395 621.318 73.5621 623.108 72.5108 624.16L69.6676 627.003C68.6163 628.054 66.8261 627.632 66.356 626.221L64.9344 621.956Z" fill="#6387C5"/>
<path d="M-306.904 126.456C-307.426 124.893 -305.938 123.405 -304.375 123.926L-297.547 126.202C-296.136 126.673 -295.714 128.463 -296.765 129.514L-301.317 134.066C-302.368 135.117 -304.158 134.695 -304.628 133.284L-306.904 126.456Z" fill="#6387C5"/>
<path d="M-248.514 184.847C-249.035 183.283 -247.547 181.796 -245.984 182.317L-228.836 188.033C-227.425 188.503 -227.003 190.293 -228.054 191.345L-239.486 202.777C-240.537 203.828 -242.327 203.405 -242.798 201.995L-248.514 184.847Z" fill="#6387C5"/>
<path d="M-190.101 243.26C-190.622 241.697 -189.134 240.209 -187.571 240.73L-160.17 249.864C-158.759 250.334 -158.337 252.124 -159.388 253.175L-177.655 271.443C-178.707 272.494 -180.497 272.071 -180.967 270.661L-190.101 243.26Z" fill="#6387C5"/>
<path d="M-131.71 301.651C-132.231 300.087 -130.744 298.6 -129.18 299.121L-91.4592 311.695C-90.0487 312.165 -89.6261 313.955 -90.6774 315.006L-115.825 340.153C-116.876 341.205 -118.666 340.782 -119.136 339.372L-131.71 301.651Z" fill="#6387C5"/>
<path d="M-69.8791 363.481C-70.4003 361.918 -68.9128 360.43 -67.3493 360.952L-29.6284 373.525C-28.218 373.995 -27.7954 375.786 -28.8467 376.837L-53.9939 401.984C-55.0452 403.035 -56.8353 402.613 -57.3055 401.202L-69.8791 363.481Z" fill="#6387C5"/>
<path d="M-4.60834 428.752C-5.12952 427.189 -3.64203 425.701 -2.07852 426.222L25.3222 435.356C26.7327 435.826 27.1553 437.616 26.104 438.668L7.83682 456.935C6.78552 457.986 4.99539 457.563 4.52524 456.153L-4.60834 428.752Z" fill="#6387C5"/>
<path d="M60.64 494.001C60.1188 492.437 61.6063 490.95 63.1698 491.471L80.3178 497.187C81.7283 497.657 82.1509 499.447 81.0996 500.498L69.6676 511.93C68.6163 512.982 66.8261 512.559 66.356 511.149L60.64 494.001Z" fill="#6387C5"/>
<path d="M125.911 559.271C125.39 557.708 126.877 556.22 128.441 556.741L135.268 559.017C136.679 559.488 137.102 561.278 136.05 562.329L131.498 566.881C130.447 567.932 128.657 567.51 128.187 566.099L125.911 559.271Z" fill="#6387C5"/>
<path d="M-245.074 64.6255C-245.595 63.062 -244.107 61.5745 -242.544 62.0956L-235.716 64.3716C-234.305 64.8418 -233.883 66.6319 -234.934 67.6832L-239.486 72.2352C-240.537 73.2865 -242.327 72.8639 -242.798 71.4534L-245.074 64.6255Z" fill="#6387C5"/>
<path d="M-186.683 123.016C-187.204 121.453 -185.717 119.965 -184.153 120.486L-167.005 126.202C-165.595 126.673 -165.172 128.463 -166.223 129.514L-177.655 140.946C-178.707 141.997 -180.497 141.575 -180.967 140.164L-186.683 123.016Z" fill="#6387C5"/>
<path d="M-128.27 181.429C-128.791 179.866 -127.303 178.378 -125.74 178.9L-98.3392 188.033C-96.9288 188.503 -96.5062 190.293 -97.5575 191.345L-115.825 209.612C-116.876 210.663 -118.666 210.241 -119.136 208.83L-128.27 181.429Z" fill="#6387C5"/>
<path d="M-69.8791 239.82C-70.4003 238.257 -68.9128 236.769 -67.3493 237.29L-29.6284 249.864C-28.218 250.334 -27.7954 252.124 -28.8467 253.175L-53.9939 278.323C-55.0452 279.374 -56.8353 278.951 -57.3055 277.541L-69.8791 239.82Z" fill="#6387C5"/>
<path d="M-8.04837 301.651C-8.56955 300.087 -7.08206 298.6 -5.51855 299.121L32.2023 311.695C33.6128 312.165 34.0353 313.955 32.984 315.006L7.83682 340.153C6.78552 341.205 4.99539 340.782 4.52524 339.372L-8.04837 301.651Z" fill="#6387C5"/>
<path d="M57.2224 366.922C56.7012 365.358 58.1887 363.871 59.7522 364.392L87.1529 373.525C88.5634 373.995 88.986 375.786 87.9347 376.837L69.6675 395.104C68.6162 396.155 66.8261 395.733 66.356 394.322L57.2224 366.922Z" fill="#6387C5"/>
<path d="M122.471 432.17C121.95 430.606 123.437 429.119 125.001 429.64L142.149 435.356C143.559 435.826 143.982 437.616 142.93 438.668L131.498 450.1C130.447 451.151 128.657 450.728 128.187 449.318L122.471 432.17Z" fill="#6387C5"/>
<path d="M187.741 497.441C187.22 495.877 188.708 494.39 190.271 494.911L197.099 497.187C198.51 497.657 198.932 499.447 197.881 500.498L193.329 505.05C192.278 506.102 190.488 505.679 190.017 504.268L187.741 497.441Z" fill="#6387C5"/>
<path d="M-182.389 3.64911C-182.91 2.08559 -181.422 0.598116 -179.859 1.11929L-175.594 2.54089C-174.183 3.01104 -173.761 4.80117 -174.812 5.85247L-177.655 8.69566C-178.707 9.74696 -180.497 9.32437 -180.967 7.9139L-182.389 3.64911Z" fill="#6387C5"/>
<path d="M-123.121 62.9167C-123.642 61.3532 -122.155 59.8657 -120.591 60.3868L-108.637 64.3716C-107.226 64.8418 -106.804 66.6319 -107.855 67.6832L-115.825 75.6527C-116.876 76.704 -118.666 76.2814 -119.136 74.8709L-123.121 62.9167Z" fill="#6387C5"/>
<path d="M-63.8759 122.162C-64.3971 120.598 -62.9096 119.111 -61.3461 119.632L-41.6349 126.202C-40.2244 126.673 -39.8018 128.463 -40.8531 129.514L-53.9939 142.655C-55.0452 143.706 -56.8353 143.283 -57.3055 141.873L-63.8759 122.162Z" fill="#6387C5"/>
<path d="M-4.60834 181.429C-5.12952 179.866 -3.64203 178.378 -2.07852 178.9L25.3222 188.033C26.7327 188.503 27.1553 190.293 26.104 191.345L7.83682 209.612C6.78552 210.663 4.99539 210.241 4.52524 208.83L-4.60834 181.429Z" fill="#6387C5"/>
<path d="M57.2224 243.26C56.7012 241.697 58.1887 240.209 59.7522 240.73L87.1529 249.864C88.5634 250.334 88.986 252.124 87.9347 253.175L69.6675 271.443C68.6162 272.494 66.8261 272.071 66.356 270.661L57.2224 243.26Z" fill="#6387C5"/>
<path d="M121.616 307.654C121.095 306.09 122.583 304.603 124.146 305.124L143.857 311.695C145.268 312.165 145.69 313.955 144.639 315.006L131.498 328.147C130.447 329.198 128.657 328.776 128.187 327.365L121.616 307.654Z" fill="#6387C5"/>
<path d="M186.033 372.07C185.512 370.507 186.999 369.019 188.562 369.54L200.517 373.525C201.927 373.995 202.35 375.786 201.299 376.837L193.329 384.806C192.278 385.858 190.488 385.435 190.017 384.025L186.033 372.07Z" fill="#6387C5"/>
<path d="M250.427 436.464C249.905 434.901 251.393 433.413 252.956 433.934L257.221 435.356C258.632 435.826 259.054 437.616 258.003 438.668L255.16 441.511C254.108 442.562 252.318 442.139 251.848 440.729L250.427 436.464Z" fill="#6387C5"/>
<path d="M-59.5815 2.79473C-60.1026 1.23121 -58.6151 -0.256262 -57.0516 0.26491L-50.2237 2.5409C-48.8132 3.01105 -48.3906 4.80118 -49.4419 5.85248L-53.9939 10.4045C-55.0452 11.4558 -56.8353 11.0332 -57.3055 9.62269L-59.5815 2.79473Z" fill="#6387C5"/>
<path d="M0.540497 62.9167C0.0193481 61.3532 1.50681 59.8657 3.07034 60.3868L15.0246 64.3716C16.4351 64.8418 16.8577 66.6319 15.8064 67.6832L7.83685 75.6527C6.78555 76.704 4.99542 76.2814 4.52527 74.8709L0.540497 62.9167Z" fill="#6387C5"/>
<path d="M60.64 123.016C60.1188 121.453 61.6063 119.965 63.1698 120.486L80.3178 126.202C81.7283 126.673 82.1509 128.463 81.0996 129.514L69.6676 140.946C68.6163 141.997 66.8261 141.575 66.356 140.164L60.64 123.016Z" fill="#6387C5"/>
<path d="M122.471 184.847C121.95 183.283 123.437 181.796 125.001 182.317L142.149 188.033C143.559 188.503 143.982 190.293 142.93 191.345L131.498 202.777C130.447 203.828 128.657 203.405 128.187 201.995L122.471 184.847Z" fill="#6387C5"/>
<path d="M186.033 248.409C185.512 246.845 186.999 245.358 188.562 245.879L200.517 249.864C201.927 250.334 202.35 252.124 201.299 253.175L193.329 261.145C192.278 262.196 190.488 261.774 190.017 260.363L186.033 248.409Z" fill="#6387C5"/>
<path d="M249.572 311.948C249.051 310.385 250.538 308.897 252.102 309.419L258.93 311.695C260.34 312.165 260.763 313.955 259.712 315.006L255.16 319.558C254.108 320.609 252.318 320.187 251.848 318.776L249.572 311.948Z" fill="#6387C5"/>
<path d="M64.9344 3.64911C64.4132 2.08559 65.9007 0.598111 67.4642 1.11928L71.729 2.54088C73.1395 3.01104 73.5621 4.80116 72.5108 5.85246L69.6676 8.69566C68.6163 9.74696 66.8261 9.32437 66.356 7.9139L64.9344 3.64911Z" fill="#6387C5"/>
<path d="M125.911 64.6255C125.39 63.062 126.877 61.5745 128.441 62.0956L135.268 64.3716C136.679 64.8418 137.102 66.6319 136.05 67.6832L131.498 72.2352C130.447 73.2865 128.657 72.8639 128.187 71.4534L125.911 64.6255Z" fill="#6387C5"/>
<path d="M187.741 126.456C187.22 124.893 188.708 123.405 190.271 123.926L197.099 126.202C198.51 126.673 198.932 128.463 197.881 129.514L193.329 134.066C192.278 135.117 190.488 134.695 190.017 133.284L187.741 126.456Z" fill="#6387C5"/>
<path d="M250.427 189.141C249.905 187.578 251.393 186.09 252.956 186.611L257.221 188.033C258.632 188.503 259.054 190.293 258.003 191.345L255.16 194.188C254.108 195.239 252.318 194.817 251.848 193.406L250.427 189.141Z" fill="#6387C5"/>
</g>
</svg>
