<svg width="808" height="51" viewBox="0 0 808 51" fill="none" xmlns="http://www.w3.org/2000/svg">
<path fill-rule="evenodd" clip-rule="evenodd" d="M600.889 0C586.598 0 575 11.424 575 25.5C575 39.576 586.598 51 600.889 51C615.18 51 626.778 39.576 626.778 25.5C626.778 11.424 615.18 0 600.889 0ZM612.642 35.3175L610.856 37.077C609.846 38.0715 608.215 38.0715 607.206 37.077L599.31 29.2995C596.151 30.396 592.475 29.733 589.938 27.234C587.064 24.4035 586.572 20.1195 588.41 16.779L594.494 22.7715L598.145 19.176L592.035 13.1835C595.452 11.373 599.776 11.8575 602.649 14.688C605.186 17.187 605.86 20.808 604.746 23.919L612.642 31.6965C613.652 32.691 613.652 34.323 612.642 35.3175Z" fill="#EAF0FF"/>
<path d="M641.223 24.016V4.73499H644.879V20.7145H652.474V24.016H641.223Z" fill="#EAF0FF"/>
<path d="M653.801 24.016L660.212 4.73499H666.185L672.776 24.016H669.017L667.292 18.892H659.105L657.457 24.016H653.801ZM660.135 15.7225H666.237L663.636 7.87806H662.684L660.135 15.7225Z" fill="#EAF0FF"/>
<path d="M675.568 24.1481V4.60293H682.313C684.442 4.60293 686.055 5.06074 687.153 5.97637C688.269 6.892 688.827 8.20382 688.827 9.91182V10.2816C688.827 11.2148 688.655 11.9896 688.312 12.6059C687.986 13.2222 687.531 13.724 686.947 14.1114C687.771 14.4636 688.415 14.983 688.878 15.6697C689.359 16.3564 689.599 17.2545 689.599 18.3638V18.7336C689.599 20.4592 689.041 21.7974 687.926 22.7482C686.827 23.6815 685.214 24.1481 683.086 24.1481H675.568ZM682.648 7.61394H679.147V12.8436H682.648C683.523 12.8436 684.167 12.6059 684.579 12.1305C684.991 11.655 685.197 11.0211 685.197 10.2288C685.197 9.4364 684.991 8.8025 684.579 8.32708C684.167 7.85165 683.523 7.61394 682.648 7.61394ZM683.343 15.749H679.147V21.1371H683.343C684.201 21.1371 684.853 20.8994 685.3 20.424C685.746 19.9485 685.969 19.2794 685.969 18.4166C685.969 17.5714 685.746 16.9199 685.3 16.4621C684.853 15.9867 684.201 15.749 683.343 15.749Z" fill="#EAF0FF"/>
<path d="M691.138 24.016L697.548 4.73499H703.521L710.112 24.016H706.354L704.629 18.892H696.441L694.794 24.016H691.138ZM697.471 15.7225H703.573L700.973 7.87806H700.02L697.471 15.7225Z" fill="#EAF0FF"/>
<path d="M712.904 24.1217V4.60293H719.701C721.4 4.60293 722.876 4.86705 724.129 5.3953C725.4 5.90594 726.455 6.61027 727.296 7.50829C728.154 8.3887 728.789 9.39237 729.201 10.5193C729.63 11.6462 729.845 12.8172 729.845 14.0322V14.6132C729.845 15.7754 729.63 16.9199 729.201 18.0468C728.789 19.1738 728.154 20.195 727.296 21.1107C726.455 22.0263 725.4 22.757 724.129 23.3029C722.876 23.8488 721.4 24.1217 719.701 24.1217H712.904ZM719.933 8.08936H716.56V20.6353H719.933C721.22 20.6353 722.327 20.3711 723.254 19.8429C724.181 19.297 724.893 18.5487 725.391 17.5978C725.889 16.647 726.138 15.5553 726.138 14.3227C726.138 12.4034 725.588 10.8891 724.49 9.77976C723.391 8.65283 721.872 8.08936 719.933 8.08936Z" fill="#EAF0FF"/>
<path d="M733.17 24.016V4.73499H736.826V24.016H733.17Z" fill="#EAF0FF"/>
<path d="M741.516 24.016V4.73499H752.896V7.90448H745.095V12.6323H752.432V15.8018H745.095V20.8465H753.102V24.016H741.516Z" fill="#EAF0FF"/>
<path d="M762.41 24.016V4.73499H766.065V20.7145H773.66V24.016H762.41Z" fill="#EAF0FF"/>
<path d="M776.64 24.016V4.73499H780.296V20.7145H787.891V24.016H776.64Z" fill="#EAF0FF"/>
<path d="M798.989 24.5179C797.273 24.5179 795.805 24.2097 794.586 23.5934C793.385 22.9772 792.398 22.176 791.626 21.1899C790.87 20.2038 790.313 19.1385 789.952 17.994C789.592 16.8319 789.412 15.7049 789.412 14.6132V14.0322C789.412 12.8524 789.592 11.6814 789.952 10.5193C790.33 9.33955 790.905 8.27425 791.677 7.3234C792.45 6.37256 793.428 5.6154 794.612 5.05194C795.797 4.47086 797.213 4.18033 798.86 4.18033C800.542 4.18033 802.018 4.49728 803.289 5.13117C804.559 5.76507 805.571 6.64549 806.327 7.77241C807.082 8.89934 807.537 10.22 807.691 11.7343H804.009C803.803 10.4137 803.228 9.40998 802.284 8.72326C801.358 8.01893 800.216 7.66677 798.86 7.66677C797.607 7.66677 796.552 7.9573 795.694 8.53837C794.852 9.10184 794.209 9.88541 793.763 10.8891C793.333 11.8927 793.119 13.0461 793.119 14.3491C793.119 15.6169 793.342 16.7526 793.788 17.7563C794.235 18.76 794.895 19.5611 795.771 20.1598C796.646 20.7409 797.719 21.0314 798.989 21.0314C800.396 21.0314 801.581 20.6793 802.542 19.9749C803.52 19.253 804.112 18.2493 804.318 16.9639H808C807.828 18.355 807.365 19.6228 806.61 20.7673C805.872 21.9119 804.859 22.8275 803.572 23.5142C802.302 24.1833 800.774 24.5179 798.989 24.5179Z" fill="#EAF0FF"/>
<path d="M642.549 46.5715V36.9234H639.305V35.9162H646.874V36.9234H643.63V46.5715H642.549Z" fill="#EAF0FF"/>
<path d="M648.86 37.4196C648.604 37.4196 648.409 37.3515 648.277 37.2153C648.153 37.0693 648.092 36.8893 648.092 36.6752C648.092 36.4514 648.153 36.2714 648.277 36.1352C648.409 35.9989 648.604 35.9308 648.86 35.9308C649.116 35.9308 649.306 35.9989 649.429 36.1352C649.552 36.2714 649.614 36.4514 649.614 36.6752C649.614 36.8893 649.552 37.0693 649.429 37.2153C649.306 37.3515 649.116 37.4196 648.86 37.4196ZM648.632 46.5715V39.7259H647.423V38.8501H649.685V46.5715H648.632Z" fill="#EAF0FF"/>
<path d="M652.486 46.5715V38.8355H653.339V40.6162C653.501 39.9935 653.785 39.5069 654.193 39.1566C654.601 38.7966 655.142 38.6165 655.815 38.6165H655.858C656.522 38.6165 657.058 38.7917 657.465 39.142C657.873 39.4923 658.158 39.9837 658.319 40.6162C658.49 39.9935 658.779 39.5069 659.187 39.1566C659.604 38.7966 660.145 38.6165 660.809 38.6165H660.852C661.743 38.6165 662.407 38.9279 662.844 39.5507C663.289 40.1735 663.512 41.0201 663.512 42.0905V46.5715H662.445V41.8423C662.445 41.1612 662.284 40.6211 661.962 40.2221C661.639 39.8232 661.174 39.6237 660.567 39.6237C659.941 39.6237 659.443 39.8329 659.073 40.2513C658.713 40.6698 658.533 41.2244 658.533 41.9153V46.5715H657.465V41.8423C657.465 41.1612 657.304 40.6211 656.982 40.2221C656.659 39.8232 656.194 39.6237 655.587 39.6237C654.961 39.6237 654.463 39.8329 654.093 40.2513C653.733 40.6698 653.553 41.2244 653.553 41.9153V46.5715H652.486Z" fill="#EAF0FF"/>
<path d="M669.316 46.8197C668.662 46.8197 668.097 46.7078 667.623 46.484C667.158 46.2504 666.774 45.9439 666.471 45.5644C666.167 45.1752 665.939 44.7421 665.788 44.2653C665.645 43.7788 665.574 43.2874 665.574 42.7911V42.5867C665.574 42.0905 665.65 41.6039 665.802 41.1271C665.954 40.6503 666.176 40.2221 666.471 39.8426C666.774 39.4631 667.153 39.1615 667.609 38.9377C668.074 38.7041 668.614 38.5873 669.231 38.5873C670.018 38.5873 670.673 38.7674 671.194 39.1274C671.725 39.4777 672.124 39.9399 672.389 40.5141C672.655 41.0785 672.788 41.6769 672.788 42.3094V42.8787H666.599C666.618 43.4333 666.727 43.9393 666.926 44.3967C667.125 44.8443 667.424 45.1995 667.822 45.4622C668.221 45.7249 668.719 45.8563 669.316 45.8563C669.971 45.8563 670.502 45.7055 670.91 45.4038C671.318 45.1022 671.569 44.7373 671.664 44.3091H672.66C672.508 45.0778 672.133 45.6909 671.536 46.1482C670.948 46.5959 670.208 46.8197 669.316 46.8197ZM669.231 39.5507C668.462 39.5507 667.86 39.7842 667.424 40.2513C666.997 40.7184 666.736 41.312 666.641 42.0321H671.749C671.683 41.2925 671.436 40.6941 671.009 40.2367C670.582 39.7794 669.99 39.5507 669.231 39.5507Z" fill="#EAF0FF"/>
<path d="M678.433 46.5715V35.9162H679.514V46.5715H678.433Z" fill="#EAF0FF"/>
<path d="M684.915 46.7905C683.948 46.7905 683.203 46.5764 682.682 46.1482C682.16 45.7104 681.894 45.1265 681.885 44.3967H682.881C682.89 44.7762 683.047 45.1168 683.35 45.4184C683.663 45.7104 684.185 45.8563 684.915 45.8563C685.589 45.8563 686.092 45.7152 686.424 45.433C686.765 45.1411 686.936 44.7908 686.936 44.3821C686.936 43.6523 686.39 43.2241 685.3 43.0976L684.446 43.01C683.754 42.9322 683.199 42.7181 682.781 42.3678C682.364 42.0175 682.155 41.5261 682.155 40.8936C682.155 40.2124 682.407 39.6626 682.909 39.2442C683.412 38.8258 684.081 38.6165 684.915 38.6165C685.722 38.6165 686.376 38.8112 686.879 39.2004C687.391 39.5896 687.652 40.1443 687.661 40.8644H686.666C686.656 40.4946 686.504 40.1832 686.21 39.9302C685.916 39.6772 685.485 39.5507 684.915 39.5507C684.327 39.5507 683.886 39.6869 683.592 39.9594C683.308 40.2221 683.165 40.5384 683.165 40.9082C683.165 41.2293 683.275 41.4969 683.493 41.711C683.711 41.9153 684.052 42.0418 684.517 42.0905L685.371 42.178C686.13 42.2656 686.746 42.4894 687.22 42.8495C687.704 43.2095 687.946 43.7253 687.946 44.3967C687.946 44.854 687.818 45.2676 687.562 45.6374C687.315 45.9974 686.964 46.2796 686.509 46.484C686.054 46.6883 685.523 46.7905 684.915 46.7905Z" fill="#EAF0FF"/>
<path d="M698.172 46.8197C697.318 46.8197 696.559 46.6737 695.895 46.3818C695.241 46.0899 694.686 45.6909 694.23 45.1849C693.785 44.6691 693.448 44.0804 693.22 43.4187C692.993 42.757 692.879 42.0515 692.879 41.3023V41.0395C692.879 40.3584 692.988 39.6967 693.206 39.0544C693.434 38.4122 693.761 37.8332 694.188 37.3175C694.624 36.8017 695.155 36.393 695.781 36.0914C696.407 35.7897 697.128 35.6389 697.944 35.6389C698.788 35.6389 699.537 35.8043 700.192 36.1352C700.846 36.4563 701.373 36.9088 701.771 37.4926C702.17 38.0765 702.407 38.7528 702.483 39.5215H701.387C701.311 38.8987 701.107 38.3733 700.775 37.9451C700.453 37.5169 700.045 37.1958 699.552 36.9818C699.058 36.7677 698.523 36.6606 697.944 36.6606C697.128 36.6606 696.422 36.8552 695.824 37.2445C695.236 37.6337 694.781 38.1689 694.458 38.8501C694.136 39.5312 693.974 40.3097 693.974 41.1855C693.974 42.1099 694.14 42.9225 694.472 43.6231C694.804 44.314 695.283 44.854 695.909 45.2433C696.535 45.6325 697.289 45.8271 698.172 45.8271C698.836 45.8271 699.438 45.7152 699.979 45.4914C700.529 45.2676 700.984 44.9659 701.344 44.5864V42.4992H697.787V41.565H703.294V42.4992H702.369V44.9221C701.923 45.5157 701.344 45.9828 700.633 46.3234C699.922 46.6543 699.101 46.8197 698.172 46.8197Z" fill="#EAF0FF"/>
<path d="M708.587 46.8197C707.942 46.8197 707.373 46.7078 706.88 46.484C706.387 46.2504 705.974 45.9439 705.642 45.5644C705.31 45.1752 705.054 44.7421 704.874 44.2653C704.703 43.7885 704.618 43.302 704.618 42.8057V42.6013C704.618 42.1051 704.708 41.6185 704.888 41.1417C705.068 40.6649 705.329 40.2367 705.67 39.8572C706.012 39.468 706.425 39.1615 706.908 38.9377C707.402 38.7041 707.961 38.5873 708.587 38.5873C709.213 38.5873 709.773 38.7041 710.266 38.9377C710.759 39.1615 711.177 39.468 711.518 39.8572C711.86 40.2367 712.116 40.6649 712.286 41.1417C712.467 41.6185 712.557 42.1051 712.557 42.6013V42.8057C712.557 43.302 712.471 43.7885 712.301 44.2653C712.13 44.7421 711.874 45.1752 711.532 45.5644C711.2 45.9439 710.788 46.2504 710.295 46.484C709.801 46.7078 709.232 46.8197 708.587 46.8197ZM708.587 45.8417C709.213 45.8417 709.74 45.7006 710.166 45.4184C710.603 45.1362 710.935 44.7567 711.162 44.2799C711.39 43.8031 711.504 43.2776 711.504 42.7035C711.504 42.1197 711.385 41.5942 711.148 41.1271C710.911 40.6503 710.574 40.2757 710.138 40.0032C709.711 39.721 709.194 39.5799 708.587 39.5799C707.99 39.5799 707.473 39.721 707.036 40.0032C706.6 40.2757 706.263 40.6503 706.026 41.1271C705.798 41.5942 705.685 42.1197 705.685 42.7035C705.685 43.2776 705.798 43.8031 706.026 44.2799C706.254 44.7567 706.581 45.1362 707.008 45.4184C707.444 45.7006 707.971 45.8417 708.587 45.8417Z" fill="#EAF0FF"/>
<path d="M714.804 46.5715V36.8066H713.708V35.9162H715.871V46.5715H714.804Z" fill="#EAF0FF"/>
<path d="M721.725 46.8197C720.994 46.8197 720.349 46.6396 719.79 46.2796C719.24 45.9098 718.808 45.4233 718.495 44.82C718.191 44.2069 718.04 43.5355 718.04 42.8057V42.6013C718.04 41.9007 718.187 41.2487 718.481 40.6454C718.784 40.0324 719.211 39.5361 719.761 39.1566C720.311 38.7771 720.956 38.5873 721.696 38.5873C722.322 38.5873 722.882 38.7333 723.375 39.0252C723.868 39.3074 724.257 39.7161 724.542 40.2513V35.9162H725.609V46.5715H724.755V44.8346C724.49 45.4963 724.086 45.9925 723.546 46.3234C723.005 46.6543 722.398 46.8197 721.725 46.8197ZM721.867 45.8563C722.379 45.8563 722.839 45.7395 723.247 45.506C723.664 45.2627 723.992 44.9319 724.229 44.5135C724.466 44.0853 724.584 43.5842 724.584 43.01V42.3094C724.584 41.7645 724.461 41.2877 724.215 40.879C723.977 40.4605 723.65 40.1346 723.233 39.901C722.825 39.6675 722.365 39.5507 721.853 39.5507C721.284 39.5507 720.795 39.6918 720.387 39.974C719.979 40.2465 719.662 40.6211 719.434 41.0979C719.216 41.5747 719.107 42.1099 719.107 42.7035C719.107 43.3166 719.221 43.8615 719.448 44.3383C719.676 44.8151 719.994 45.1898 720.401 45.4622C720.819 45.7249 721.307 45.8563 721.867 45.8563Z" fill="#EAF0FF"/>
<path d="M731.508 46.8197C730.853 46.8197 730.289 46.7078 729.815 46.484C729.35 46.2504 728.966 45.9439 728.662 45.5644C728.359 45.1752 728.131 44.7421 727.979 44.2653C727.837 43.7788 727.766 43.2874 727.766 42.7911V42.5867C727.766 42.0905 727.842 41.6039 727.993 41.1271C728.145 40.6503 728.368 40.2221 728.662 39.8426C728.966 39.4631 729.345 39.1615 729.8 38.9377C730.265 38.7041 730.806 38.5873 731.422 38.5873C732.21 38.5873 732.864 38.7674 733.386 39.1274C733.917 39.4777 734.315 39.9399 734.581 40.5141C734.847 41.0785 734.979 41.6769 734.979 42.3094V42.8787H728.79C728.809 43.4333 728.918 43.9393 729.117 44.3967C729.317 44.8443 729.615 45.1995 730.014 45.4622C730.412 45.7249 730.91 45.8563 731.508 45.8563C732.162 45.8563 732.693 45.7055 733.101 45.4038C733.509 45.1022 733.76 44.7373 733.855 44.3091H734.851C734.699 45.0778 734.325 45.6909 733.727 46.1482C733.139 46.5959 732.399 46.8197 731.508 46.8197ZM731.422 39.5507C730.654 39.5507 730.052 39.7842 729.615 40.2513C729.189 40.7184 728.928 41.312 728.833 42.0321H733.941C733.874 41.2925 733.628 40.6941 733.201 40.2367C732.774 39.7794 732.181 39.5507 731.422 39.5507Z" fill="#EAF0FF"/>
<path d="M737.033 46.5715V38.8501H737.887V40.6454C738.058 40.0032 738.361 39.5069 738.798 39.1566C739.244 38.7966 739.827 38.6165 740.548 38.6165H740.59C741.539 38.6165 742.246 38.9231 742.71 39.5361C743.175 40.1394 743.408 40.9909 743.408 42.0905V46.5715H742.355V41.8569C742.355 41.1855 742.174 40.6454 741.814 40.2367C741.454 39.828 740.951 39.6237 740.306 39.6237C739.642 39.6237 739.106 39.8378 738.698 40.2659C738.3 40.6844 738.101 41.239 738.101 41.9299V46.5715H737.033Z" fill="#EAF0FF"/>
<path d="M25.5 0C11.424 0 0 11.424 0 25.5C0 39.576 11.424 51 25.5 51C39.576 51 51 39.576 51 25.5C51 11.424 39.576 0 25.5 0ZM17.2125 29.784C16.881 30.8805 15.6315 31.3905 14.6115 30.9315C13.7445 30.5235 13.311 29.5545 13.5915 28.6365C13.8975 27.591 14.0505 26.52 14.025 25.4745C13.9995 24.429 13.872 23.4345 13.5915 22.4655C13.3365 21.5475 13.7445 20.553 14.6115 20.1705C15.6825 19.686 16.932 20.2725 17.2635 21.42C17.646 22.7205 17.8245 24.0465 17.85 25.4235C17.85 26.8515 17.646 28.3305 17.2125 29.784ZM25.2195 33.8385C24.786 34.884 23.511 35.292 22.5165 34.731C21.675 34.2465 21.3435 33.2265 21.7005 32.334C22.542 30.3705 22.95 28.1775 22.95 25.806C22.95 23.358 22.491 20.9865 21.5985 18.717C21.2415 17.799 21.6495 16.779 22.5165 16.32C23.511 15.81 24.735 16.269 25.143 17.3145C26.214 20.0175 26.7495 22.8735 26.7495 25.806C26.8005 28.6875 26.265 31.3905 25.2195 33.8385ZM33.15 37.23C32.7165 38.25 31.518 38.709 30.549 38.2245C29.6565 37.791 29.223 36.72 29.6055 35.802C31.11 32.2575 31.875 28.7895 31.875 25.449C31.875 22.1085 31.11 18.6915 29.631 15.2235C29.223 14.3055 29.6565 13.2345 30.549 12.801C31.5435 12.291 32.7165 12.75 33.15 13.77C34.833 17.697 35.7 21.624 35.7 25.449C35.7 29.274 34.833 33.252 33.15 37.23Z" fill="#EAF0FF"/>
<path d="M70 24.2635V6.38653H76.3887C78.4044 6.38653 79.9325 6.80527 80.9729 7.64275C82.0296 8.48023 82.5579 9.68008 82.5579 11.2423V11.5805C82.5579 12.4341 82.3953 13.1427 82.0702 13.7064C81.7613 14.2701 81.3306 14.7291 80.7778 15.0834C81.5581 15.4055 82.1677 15.8806 82.6067 16.5088C83.0618 17.1369 83.2894 17.9582 83.2894 18.9729V19.3111C83.2894 20.8894 82.7611 22.1134 81.7045 22.9831C80.6641 23.8367 79.136 24.2635 77.1202 24.2635H70ZM76.7057 9.14055H73.3894V13.9238H76.7057C77.5347 13.9238 78.1443 13.7064 78.5345 13.2716C78.9246 12.8367 79.1197 12.2569 79.1197 11.5322C79.1197 10.8075 78.9246 10.2277 78.5345 9.79281C78.1443 9.35797 77.5347 9.14055 76.7057 9.14055ZM77.3641 16.5812H73.3894V21.5095H77.3641C78.1769 21.5095 78.7946 21.292 79.2173 20.8572C79.6399 20.4224 79.8512 19.8104 79.8512 19.0212C79.8512 18.2481 79.6399 17.6522 79.2173 17.2335C78.7946 16.7987 78.1769 16.5812 77.3641 16.5812Z" fill="#EAF0FF"/>
<path d="M84.7466 24.1427L90.8183 6.50732H96.4754L102.718 24.1427H99.1577L97.5239 19.456H89.7697L88.2091 24.1427H84.7466ZM90.7451 16.5571H96.5242L94.0614 9.38213H93.1591L90.7451 16.5571Z" fill="#EAF0FF"/>
<path d="M108.058 24.1427V17.4026H107.18L101.816 6.50732H105.376L109.35 14.7935H110.277L113.91 6.50732H117.275L112.325 17.4026H111.448V24.1427H108.058Z" fill="#EAF0FF"/>
<path d="M119.745 24.1427V6.50732H130.523V9.40629H123.134V13.7306H130.084V16.6295H123.134V21.2437H130.718V24.1427H119.745Z" fill="#EAF0FF"/>
<path d="M134.271 24.1427V6.38653H140.879C143.008 6.38653 144.707 6.86164 145.975 7.81185C147.243 8.76207 147.877 10.2035 147.877 12.1361V12.5468C147.877 13.8675 147.568 14.9546 146.95 15.8082C146.349 16.6618 145.512 17.2899 144.439 17.6925L149.194 24.1427H145.146L140.952 18.2481H137.733V24.1427H134.271ZM141.245 9.30965H137.733V15.47H141.245C142.187 15.47 142.943 15.1881 143.512 14.6244C144.081 14.0607 144.366 13.3199 144.366 12.4019C144.366 11.4839 144.081 10.743 143.512 10.1793C142.943 9.59955 142.187 9.30965 141.245 9.30965Z" fill="#EAF0FF"/>
<path d="M165.374 24.6017C163.846 24.6017 162.497 24.3521 161.326 23.8528C160.172 23.3374 159.197 22.653 158.4 21.7994C157.62 20.9458 157.026 19.9714 156.62 18.8762C156.23 17.7811 156.035 16.6456 156.035 15.47V14.9385C156.035 13.8272 156.23 12.7401 156.62 11.6771C157.01 10.6142 157.579 9.65592 158.327 8.80233C159.091 7.94875 160.026 7.27232 161.131 6.77306C162.236 6.25769 163.521 6 164.984 6C166.528 6 167.902 6.2899 169.105 6.86969C170.324 7.44948 171.299 8.25475 172.031 9.2855C172.762 10.3001 173.193 11.4758 173.323 12.8126H169.836C169.722 12.0556 169.438 11.4114 168.983 10.8799C168.528 10.3323 167.951 9.91361 167.252 9.62371C166.569 9.33381 165.813 9.18886 164.984 9.18886C163.862 9.18886 162.895 9.44655 162.082 9.96192C161.269 10.4612 160.643 11.1698 160.204 12.0878C159.766 12.9897 159.546 14.0366 159.546 15.2284C159.546 17.1932 160.066 18.7313 161.107 19.8426C162.163 20.9377 163.586 21.4853 165.374 21.4853C166.317 21.4853 167.17 21.3243 167.934 21.0022C168.715 20.68 169.349 20.2533 169.836 19.7218V17.7408H164.813V15.1801H174.518V17.7408H173.031V20.978C172.267 22.1376 171.226 23.0314 169.909 23.6595C168.593 24.2876 167.081 24.6017 165.374 24.6017Z" fill="#EAF0FF"/>
<path d="M177.372 24.1427V6.38653H183.98C186.109 6.38653 187.808 6.86164 189.076 7.81185C190.344 8.76207 190.978 10.2035 190.978 12.1361V12.5468C190.978 13.8675 190.669 14.9546 190.052 15.8082C189.45 16.6618 188.613 17.2899 187.54 17.6925L192.295 24.1427H188.247L184.053 18.2481H180.834V24.1427H177.372ZM184.346 9.30965H180.834V15.47H184.346C185.288 15.47 186.044 15.1881 186.613 14.6244C187.182 14.0607 187.467 13.3199 187.467 12.4019C187.467 11.4839 187.182 10.743 186.613 10.1793C186.044 9.59955 185.288 9.30965 184.346 9.30965Z" fill="#EAF0FF"/>
<path d="M203.047 24.6017C201.438 24.6017 200.04 24.3199 198.853 23.7562C197.667 23.1925 196.683 22.4597 195.903 21.5578C195.139 20.6398 194.57 19.6574 194.196 18.6105C193.822 17.5475 193.635 16.5249 193.635 15.5424V15.011C193.635 13.9319 193.83 12.8609 194.22 11.7979C194.61 10.735 195.196 9.76866 195.976 8.89897C196.773 8.01317 197.756 7.31259 198.926 6.79722C200.097 6.26574 201.471 6 203.047 6C204.592 6 205.949 6.26574 207.12 6.79722C208.306 7.31259 209.29 8.01317 210.07 8.89897C210.85 9.76866 211.436 10.735 211.826 11.7979C212.232 12.8609 212.435 13.9319 212.435 15.011V15.5424C212.435 16.5249 212.24 17.5475 211.85 18.6105C211.476 19.6574 210.899 20.6398 210.119 21.5578C209.355 22.4597 208.379 23.1925 207.193 23.7562C206.022 24.3199 204.641 24.6017 203.047 24.6017ZM203.047 21.4128C204.25 21.4128 205.291 21.139 206.169 20.5915C207.046 20.0278 207.721 19.2789 208.192 18.3448C208.68 17.4107 208.924 16.396 208.924 15.3009C208.924 14.1413 208.68 13.1025 208.192 12.1845C207.721 11.2503 207.046 10.5176 206.169 9.98608C205.291 9.4546 204.25 9.18886 203.047 9.18886C201.828 9.18886 200.78 9.4546 199.902 9.98608C199.024 10.5176 198.341 11.2503 197.854 12.1845C197.382 13.1025 197.146 14.1413 197.146 15.3009C197.146 16.396 197.382 17.4107 197.854 18.3448C198.325 19.2789 199 20.0278 199.877 20.5915C200.772 21.139 201.828 21.4128 203.047 21.4128Z" fill="#EAF0FF"/>
<path d="M223.121 24.6017C221.447 24.6017 220.041 24.2876 218.903 23.6595C217.765 23.0314 216.903 22.1537 216.318 21.0263C215.733 19.8828 215.44 18.5461 215.44 17.0161V6.50732H218.903V17.2093C218.903 18.4817 219.261 19.5044 219.976 20.2774C220.707 21.0344 221.756 21.4128 223.121 21.4128C224.454 21.4128 225.479 21.0344 226.194 20.2774C226.925 19.5205 227.291 18.4978 227.291 17.2093V6.50732H230.754V17.0161C230.754 18.5461 230.461 19.8828 229.876 21.0263C229.291 22.1537 228.429 23.0314 227.291 23.6595C226.169 24.2876 224.78 24.6017 223.121 24.6017Z" fill="#EAF0FF"/>
<path d="M234.808 24.1427V6.38653H240.953C243.196 6.38653 244.928 6.92606 246.147 8.00512C247.382 9.06807 248 10.5176 248 12.3536V12.7401C248 14.5761 247.382 16.0336 246.147 17.1127C244.928 18.1918 243.196 18.7313 240.953 18.7313H238.271V24.1427H234.808ZM241.246 9.35797H238.271V15.7599H241.246C242.286 15.7599 243.083 15.4619 243.635 14.866C244.204 14.2701 244.489 13.497 244.489 12.5468C244.489 11.5966 244.204 10.8316 243.635 10.2518C243.083 9.65592 242.286 9.35797 241.246 9.35797Z" fill="#EAF0FF"/>
<path d="M75.4575 45C74.5771 45 73.8225 44.8487 73.1936 44.5461C72.5737 44.2346 72.0661 43.8296 71.6709 43.3312C71.2846 42.8328 71.0016 42.2943 70.8219 41.7158C70.6422 41.1284 70.5524 40.5587 70.5524 40.0069V39.7533C70.5524 39.1569 70.6422 38.5651 70.8219 37.9776C71.0106 37.3902 71.298 36.8562 71.6843 36.3756C72.0796 35.8861 72.5827 35.4989 73.1936 35.2141C73.8045 34.9204 74.5277 34.7735 75.3632 34.7735C76.2076 34.7735 76.9353 34.9204 77.5462 35.2141C78.1661 35.5078 78.6602 35.9217 79.0285 36.4557C79.3968 36.9897 79.6214 37.6127 79.7023 38.3247H78.6647C78.5838 37.7462 78.3906 37.2656 78.0852 36.8829C77.7887 36.4913 77.4025 36.1976 76.9263 36.0018C76.4592 35.806 75.9381 35.7081 75.3632 35.7081C74.5367 35.7081 73.8404 35.8994 73.2744 36.2821C72.7175 36.6559 72.2952 37.1588 72.0078 37.7907C71.7293 38.4227 71.59 39.1213 71.59 39.8868C71.59 40.4297 71.6709 40.9504 71.8326 41.4488C71.9943 41.9472 72.2323 42.3967 72.5468 42.7972C72.8702 43.1888 73.2745 43.5003 73.7596 43.7317C74.2447 43.9542 74.8107 44.0655 75.4575 44.0655C76.3559 44.0655 77.1105 43.843 77.7214 43.3979C78.3323 42.944 78.7096 42.2943 78.8533 41.4488H79.8909C79.7921 42.1163 79.5585 42.7215 79.1902 43.2644C78.8219 43.7985 78.3233 44.2212 77.6944 44.5327C77.0745 44.8442 76.3289 45 75.4575 45Z" fill="#EAF0FF"/>
<path d="M81.7363 44.773V35.0272H82.747V39.019C82.9357 38.5473 83.2231 38.1779 83.6094 37.9109C84.0047 37.635 84.4988 37.497 85.0917 37.497H85.1456C86.0081 37.497 86.6594 37.7774 87.0996 38.3381C87.5488 38.8988 87.7734 39.6776 87.7734 40.6744V44.773H86.7762V40.4608C86.7762 39.8289 86.601 39.3305 86.2506 38.9656C85.9003 38.6007 85.4286 38.4182 84.8357 38.4182C84.1979 38.4182 83.6903 38.6229 83.313 39.0323C82.9357 39.4328 82.747 39.9624 82.747 40.621V44.773H81.7363Z" fill="#EAF0FF"/>
<path d="M90.883 36.4023C90.6405 36.4023 90.4563 36.34 90.3306 36.2154C90.2138 36.0819 90.1554 35.9172 90.1554 35.7214C90.1554 35.5167 90.2138 35.352 90.3306 35.2274C90.4563 35.1028 90.6405 35.0405 90.883 35.0405C91.1256 35.0405 91.3053 35.1028 91.4221 35.2274C91.5389 35.352 91.5973 35.5167 91.5973 35.7214C91.5973 35.9172 91.5389 36.0819 91.4221 36.2154C91.3053 36.34 91.1256 36.4023 90.883 36.4023ZM90.6674 44.773V38.5117H89.522V37.7106H91.6646V44.773H90.6674Z" fill="#EAF0FF"/>
<path d="M94.3844 44.773V35.8416H93.3468V35.0272H95.395V44.773H94.3844Z" fill="#EAF0FF"/>
<path d="M100.939 45C100.247 45 99.6364 44.8353 99.1064 44.506C98.5853 44.1678 98.1766 43.7228 97.8801 43.171C97.5926 42.6103 97.4489 41.9961 97.4489 41.3286V41.1417C97.4489 40.5009 97.5881 39.9046 97.8666 39.3527C98.1541 38.792 98.5584 38.3381 99.0794 37.991C99.6005 37.6439 100.211 37.4703 100.912 37.4703C101.505 37.4703 102.035 37.6038 102.502 37.8708C102.969 38.1289 103.338 38.5028 103.607 38.9923V35.0272H104.618V44.773H103.809V43.1843C103.558 43.7896 103.176 44.2435 102.664 44.5461C102.152 44.8487 101.577 45 100.939 45ZM101.074 44.1189C101.559 44.1189 101.995 44.0121 102.381 43.7985C102.776 43.5759 103.086 43.2733 103.311 42.8906C103.535 42.499 103.648 42.0406 103.648 41.5155V40.8747C103.648 40.3763 103.531 39.9402 103.297 39.5663C103.073 39.1836 102.763 38.8855 102.367 38.6719C101.981 38.4583 101.545 38.3515 101.06 38.3515C100.521 38.3515 100.059 38.4805 99.6723 38.7386C99.286 38.9878 98.9851 39.3305 98.7695 39.7666C98.5629 40.2027 98.4596 40.6922 98.4596 41.2352C98.4596 41.7959 98.5674 42.2943 98.783 42.7304C98.9986 43.1665 99.2995 43.5092 99.6858 43.7584C100.081 43.9987 100.544 44.1189 101.074 44.1189Z" fill="#EAF0FF"/>
<path d="M107.227 44.773V37.7106H108.035V39.6865C108.287 38.3158 109.208 37.6305 110.798 37.6305H111.027V38.5384H110.609C109.836 38.5384 109.248 38.7386 108.844 39.1391C108.439 39.5396 108.237 40.1182 108.237 40.8747V44.773H107.227Z" fill="#EAF0FF"/>
<path d="M115.548 45C114.928 45 114.393 44.8976 113.944 44.6929C113.504 44.4793 113.14 44.199 112.852 43.8519C112.565 43.4958 112.349 43.0998 112.206 42.6637C112.071 42.2186 112.004 41.7692 112.004 41.3153V41.1284C112.004 40.6744 112.075 40.2294 112.219 39.7933C112.363 39.3572 112.574 38.9656 112.852 38.6185C113.14 38.2713 113.499 37.9954 113.93 37.7907C114.371 37.5771 114.883 37.4703 115.467 37.4703C116.212 37.4703 116.832 37.635 117.326 37.9643C117.829 38.2847 118.207 38.7075 118.458 39.2326C118.71 39.7488 118.836 40.2962 118.836 40.8747V41.3954H112.974C112.992 41.9027 113.095 42.3655 113.284 42.7838C113.472 43.1932 113.755 43.5181 114.133 43.7584C114.51 43.9987 114.982 44.1189 115.548 44.1189C116.167 44.1189 116.671 43.9809 117.057 43.705C117.443 43.4291 117.681 43.0953 117.771 42.7037H118.714C118.571 43.4068 118.216 43.9676 117.65 44.3859C117.093 44.7953 116.392 45 115.548 45ZM115.467 38.3515C114.739 38.3515 114.169 38.5651 113.755 38.9923C113.351 39.4195 113.104 39.9624 113.014 40.621H117.852C117.789 39.9446 117.555 39.3972 117.151 38.9789C116.747 38.5606 116.185 38.3515 115.467 38.3515Z" fill="#EAF0FF"/>
<path d="M120.781 44.773V37.7106H121.59V39.3527C121.751 38.7653 122.039 38.3114 122.452 37.991C122.874 37.6617 123.427 37.497 124.11 37.497H124.15C125.048 37.497 125.718 37.7774 126.158 38.3381C126.598 38.8899 126.818 39.6687 126.818 40.6744V44.773H125.821V40.4608C125.821 39.8467 125.65 39.3527 125.309 38.9789C124.968 38.6051 124.491 38.4182 123.88 38.4182C123.252 38.4182 122.744 38.614 122.358 39.0056C121.98 39.3883 121.792 39.8957 121.792 40.5276V44.773H120.781Z" fill="#EAF0FF"/>
<path d="M137.021 45C136.168 45 135.427 44.8487 134.798 44.5461C134.169 44.2435 133.643 43.843 133.221 43.3445C132.808 42.8461 132.498 42.3032 132.291 41.7158C132.094 41.1284 131.995 40.5543 131.995 39.9936V39.7533C131.995 39.1569 132.098 38.5651 132.305 37.9776C132.52 37.3813 132.839 36.8428 133.262 36.3622C133.684 35.8816 134.209 35.4989 134.838 35.2141C135.467 34.9204 136.195 34.7735 137.021 34.7735C137.857 34.7735 138.584 34.9204 139.204 35.2141C139.833 35.4989 140.359 35.8816 140.781 36.3622C141.203 36.8428 141.518 37.3813 141.724 37.9776C141.94 38.5651 142.048 39.1569 142.048 39.7533V40.0069C142.048 40.5676 141.944 41.1417 141.738 41.7291C141.54 42.3077 141.235 42.8461 140.821 43.3445C140.408 43.843 139.883 44.2435 139.245 44.5461C138.616 44.8487 137.875 45 137.021 45ZM137.021 44.0655C137.65 44.0655 138.212 43.9542 138.706 43.7317C139.2 43.5003 139.618 43.1888 139.959 42.7972C140.3 42.3967 140.561 41.9472 140.741 41.4488C140.92 40.9504 141.01 40.4297 141.01 39.8868C141.01 39.1302 140.848 38.436 140.525 37.8041C140.211 37.1722 139.752 36.6648 139.15 36.2821C138.558 35.8994 137.848 35.7081 137.021 35.7081C136.204 35.7081 135.494 35.8994 134.892 36.2821C134.299 36.6648 133.841 37.1722 133.518 37.8041C133.194 38.436 133.033 39.1302 133.033 39.8868C133.033 40.4297 133.122 40.9504 133.302 41.4488C133.482 41.9472 133.742 42.3967 134.084 42.7972C134.434 43.1888 134.856 43.5003 135.35 43.7317C135.844 43.9542 136.401 44.0655 137.021 44.0655Z" fill="#EAF0FF"/>
<path d="M144.368 44.773V38.5384H143.33V37.764H144.368V37.1633C144.368 36.4156 144.561 35.8683 144.947 35.5211C145.343 35.1651 145.922 34.9871 146.686 34.9871H147.589V35.8416H146.497C146.12 35.8416 145.832 35.9395 145.635 36.1353C145.437 36.3311 145.338 36.607 145.338 36.963V37.764H147.737V38.5384H145.338V44.773H144.368Z" fill="#EAF0FF"/>
<path d="M154.507 44.773V35.9484H151.435V35.0272H158.604V35.9484H155.531V44.773H154.507Z" fill="#EAF0FF"/>
<path d="M160.286 44.773V35.0272H161.297V39.019C161.486 38.5473 161.773 38.1779 162.16 37.9109C162.555 37.635 163.049 37.497 163.642 37.497H163.696C164.558 37.497 165.21 37.7774 165.65 38.3381C166.099 38.8988 166.324 39.6776 166.324 40.6744V44.773H165.326V40.4608C165.326 39.8289 165.151 39.3305 164.801 38.9656C164.45 38.6007 163.979 38.4182 163.386 38.4182C162.748 38.4182 162.24 38.6229 161.863 39.0323C161.486 39.4328 161.297 39.9624 161.297 40.621V44.773H160.286Z" fill="#EAF0FF"/>
<path d="M171.818 45C171.198 45 170.664 44.8976 170.215 44.6929C169.775 44.4793 169.411 44.199 169.123 43.8519C168.836 43.4958 168.62 43.0998 168.476 42.6637C168.342 42.2186 168.274 41.7692 168.274 41.3153V41.1284C168.274 40.6744 168.346 40.2294 168.49 39.7933C168.634 39.3572 168.845 38.9656 169.123 38.6185C169.411 38.2713 169.77 37.9954 170.201 37.7907C170.642 37.5771 171.154 37.4703 171.738 37.4703C172.483 37.4703 173.103 37.635 173.597 37.9643C174.1 38.2847 174.478 38.7075 174.729 39.2326C174.981 39.7488 175.106 40.2962 175.106 40.8747V41.3954H169.245C169.263 41.9027 169.366 42.3655 169.554 42.7838C169.743 43.1932 170.026 43.5181 170.403 43.7584C170.781 43.9987 171.252 44.1189 171.818 44.1189C172.438 44.1189 172.941 43.9809 173.328 43.705C173.714 43.4291 173.952 43.0953 174.042 42.7037H174.985C174.841 43.4068 174.487 43.9676 173.921 44.3859C173.364 44.7953 172.663 45 171.818 45ZM171.738 38.3515C171.01 38.3515 170.439 38.5651 170.026 38.9923C169.622 39.4195 169.375 39.9624 169.285 40.621H174.123C174.06 39.9446 173.826 39.3972 173.422 38.9789C173.018 38.5606 172.456 38.3515 171.738 38.3515Z" fill="#EAF0FF"/>
<path d="M180.426 44.773V35.0272H182.138L187.528 43.8519H187.689V35.0272H188.673V44.773H186.948L181.558 35.9484H181.396V44.773H180.426Z" fill="#EAF0FF"/>
<path d="M193.441 44.96C192.678 44.96 192.062 44.7641 191.595 44.3725C191.128 43.9809 190.895 43.4202 190.895 42.6904C190.895 41.9783 191.137 41.431 191.622 41.0483C192.116 40.6655 192.808 40.4742 193.697 40.4742H195.692V40.1404C195.692 39.6153 195.553 39.2148 195.274 38.9389C194.996 38.6541 194.564 38.5117 193.98 38.5117C193.576 38.5117 193.172 38.5206 192.768 38.5384C192.363 38.5562 192.017 38.5784 191.73 38.6051V37.724C192.017 37.6973 192.327 37.675 192.66 37.6572C192.992 37.6394 193.311 37.6305 193.617 37.6305C194.704 37.6305 195.481 37.8352 195.948 38.2446C196.424 38.6452 196.662 39.3082 196.662 40.2339V44.773H195.854V43.3312C195.692 43.8741 195.4 44.2835 194.978 44.5594C194.564 44.8264 194.052 44.96 193.441 44.96ZM193.63 44.1589C193.962 44.1589 194.281 44.1011 194.587 43.9854C194.892 43.8608 195.148 43.6561 195.355 43.3712C195.562 43.0775 195.674 42.677 195.692 42.1697V41.2352H193.63C193.064 41.2352 192.628 41.3731 192.323 41.649C192.026 41.916 191.878 42.2676 191.878 42.7037C191.878 43.1487 192.035 43.5047 192.35 43.7718C192.664 44.0299 193.091 44.1589 193.63 44.1589Z" fill="#EAF0FF"/>
<path d="M201.774 44.8531C201.289 44.8531 200.862 44.7819 200.494 44.6395C200.134 44.4971 199.856 44.2568 199.658 43.9186C199.46 43.5804 199.362 43.1176 199.362 42.5302V38.4716H198.082V37.7106H199.362V35.4811H200.332V37.7106H202.906V38.4716H200.332V42.677C200.332 43.0775 200.444 43.389 200.669 43.6115C200.893 43.8341 201.212 43.9453 201.626 43.9453H202.906V44.8531H201.774Z" fill="#EAF0FF"/>
<path d="M205.451 36.4023C205.209 36.4023 205.025 36.34 204.899 36.2154C204.782 36.0819 204.724 35.9172 204.724 35.7214C204.724 35.5167 204.782 35.352 204.899 35.2274C205.025 35.1028 205.209 35.0405 205.451 35.0405C205.694 35.0405 205.873 35.1028 205.99 35.2274C206.107 35.352 206.165 35.5167 206.165 35.7214C206.165 35.9172 206.107 36.0819 205.99 36.2154C205.873 36.34 205.694 36.4023 205.451 36.4023ZM205.236 44.773V38.5117H204.09V37.7106H206.233V44.773H205.236Z" fill="#EAF0FF"/>
<path d="M212.079 45C211.468 45 210.929 44.8976 210.462 44.6929C209.995 44.4793 209.604 44.199 209.289 43.8519C208.975 43.4958 208.732 43.0998 208.562 42.6637C208.4 42.2275 208.319 41.7825 208.319 41.3286V41.1417C208.319 40.6878 208.405 40.2428 208.575 39.8067C208.746 39.3705 208.993 38.9789 209.316 38.6318C209.64 38.2758 210.031 37.9954 210.489 37.7907C210.956 37.5771 211.486 37.4703 212.079 37.4703C212.672 37.4703 213.202 37.5771 213.669 37.7907C214.136 37.9954 214.531 38.2758 214.855 38.6318C215.178 38.9789 215.421 39.3705 215.583 39.8067C215.753 40.2428 215.839 40.6878 215.839 41.1417V41.3286C215.839 41.7825 215.758 42.2275 215.596 42.6637C215.434 43.0998 215.192 43.4958 214.868 43.8519C214.554 44.199 214.163 44.4793 213.696 44.6929C213.229 44.8976 212.69 45 212.079 45ZM212.079 44.1055C212.672 44.1055 213.17 43.9765 213.575 43.7184C213.988 43.4602 214.302 43.1131 214.518 42.677C214.734 42.2409 214.841 41.7603 214.841 41.2352C214.841 40.7011 214.729 40.2205 214.504 39.7933C214.28 39.3572 213.961 39.0145 213.548 38.7653C213.143 38.5072 212.654 38.3782 212.079 38.3782C211.513 38.3782 211.023 38.5072 210.61 38.7653C210.197 39.0145 209.878 39.3572 209.653 39.7933C209.438 40.2205 209.33 40.7011 209.33 41.2352C209.33 41.7603 209.438 42.2409 209.653 42.677C209.869 43.1131 210.179 43.4602 210.583 43.7184C210.996 43.9765 211.495 44.1055 212.079 44.1055Z" fill="#EAF0FF"/>
<path d="M217.9 44.773V37.7106H218.708V39.3527C218.87 38.7653 219.157 38.3114 219.571 37.991C219.993 37.6617 220.545 37.497 221.228 37.497H221.268C222.167 37.497 222.836 37.7774 223.276 38.3381C223.717 38.8899 223.937 39.6687 223.937 40.6744V44.773H222.939V40.4608C222.939 39.8467 222.769 39.3527 222.427 38.9789C222.086 38.6051 221.61 38.4182 220.999 38.4182C220.37 38.4182 219.863 38.614 219.476 39.0056C219.099 39.3883 218.91 39.8957 218.91 40.5276V44.773H217.9Z" fill="#EAF0FF"/>
<path d="M332.582 24.2895H329.28V9.72014H314.71V6.41775C314.71 3.23677 312.428 0.347182 309.271 0.0315126C305.629 -0.332721 302.569 2.5083 302.569 6.0778V9.72014H288.024V23.8039H291.4C294.58 23.8039 297.47 25.9407 298.077 29.0488C298.878 33.2254 295.697 36.9163 291.642 36.9163H288V51H302.084V47.6005C302.084 44.4195 304.221 41.5299 307.329 40.9229C311.505 40.1215 315.196 43.3025 315.196 47.3577V51H329.28V36.4306H332.922C336.492 36.4306 339.333 33.3711 338.968 29.7287C338.653 26.572 335.739 24.2895 332.582 24.2895Z" fill="#EAF0FF"/>
<path d="M359.506 22.5172L355 4.51779H358.561L362.074 19.6077H362.753L365.515 5.20818H369.246L372.42 19.6077H373.074L376.199 4.51779H379.567L375.545 22.5172H370.07L367.356 10.5094L364.885 22.5172H359.506Z" fill="#EAF0FF"/>
<path d="M389.61 22.9857C387.946 22.9857 386.549 22.6651 385.418 22.0241C384.288 21.383 383.432 20.4871 382.85 19.3365C382.269 18.1694 381.978 16.805 381.978 15.2435V4.51779H385.418V15.4407C385.418 16.7393 385.774 17.7831 386.484 18.5721C387.211 19.3447 388.253 19.731 389.61 19.731C390.934 19.731 391.952 19.3447 392.662 18.5721C393.389 17.7995 393.752 16.7557 393.752 15.4407V4.51779H397.193V15.2435C397.193 16.805 396.902 18.1694 396.321 19.3365C395.739 20.4871 394.883 21.383 393.752 22.0241C392.638 22.6651 391.257 22.9857 389.61 22.9857Z" fill="#EAF0FF"/>
<path d="M409.192 22.9857C407.577 22.9857 406.196 22.698 405.049 22.1227C403.919 21.5474 402.99 20.7994 402.263 19.8789C401.552 18.9584 401.027 17.9639 400.688 16.8955C400.349 15.8106 400.179 14.7585 400.179 13.7394V13.197C400.179 12.0956 400.349 11.0025 400.688 9.91761C401.044 8.81628 401.585 7.82179 402.311 6.93415C403.038 6.04651 403.959 5.33968 405.073 4.81367C406.188 4.27122 407.52 4 409.071 4C410.654 4 412.043 4.29588 413.238 4.88764C414.433 5.4794 415.386 6.30129 416.097 7.35331C416.808 8.40533 417.236 9.63817 417.381 11.0518H413.916C413.723 9.81898 413.181 8.88203 412.293 8.24095C411.421 7.58344 410.347 7.25469 409.071 7.25469C407.892 7.25469 406.898 7.52591 406.091 8.06836C405.299 8.59437 404.694 9.32585 404.274 10.2628C403.87 11.1998 403.668 12.2764 403.668 13.4928C403.668 14.6764 403.878 15.7366 404.298 16.6735C404.718 17.6105 405.34 18.3584 406.164 18.9173C406.987 19.4598 407.997 19.731 409.192 19.731C410.516 19.731 411.631 19.4022 412.535 18.7447C413.456 18.0708 414.013 17.1338 414.207 15.9338H417.672C417.51 17.2324 417.074 18.416 416.363 19.4844C415.669 20.5529 414.716 21.4076 413.505 22.0487C412.309 22.6733 410.872 22.9857 409.192 22.9857Z" fill="#EAF0FF"/>
<path d="M420.575 22.5172V4.51779H424.015V12.9257L430.75 4.51779H434.699L428.4 12.3586L436.226 22.5172H432.034L425.566 14.1092H424.015V22.5172H420.575Z" fill="#EAF0FF"/>
<path d="M438.201 22.5172V4.51779H448.91V7.4766H441.569V11.8901H448.474V14.849H441.569V19.5584H449.104V22.5172H438.201Z" fill="#EAF0FF"/>
<path d="M452.634 22.5172V4.39451H459.199C461.315 4.39451 463.003 4.87942 464.263 5.84925C465.523 6.81908 466.153 8.29027 466.153 10.2628V10.682C466.153 12.0299 465.846 13.1394 465.232 14.0106C464.634 14.8818 463.803 15.5229 462.737 15.9338L467.461 22.5172H463.439L459.272 16.5009H456.074V22.5172H452.634ZM459.563 7.37797H456.074V13.6654H459.563C460.5 13.6654 461.251 13.3778 461.816 12.8024C462.381 12.2271 462.664 11.471 462.664 10.534C462.664 9.59707 462.381 8.84093 461.816 8.26561C461.251 7.67385 460.5 7.37797 459.563 7.37797Z" fill="#EAF0FF"/>
<path d="M473.11 22.5172V7.59988H467.998V4.51779H481.662V7.59988H476.55V22.5172H473.11Z" fill="#EAF0FF"/>
<path d="M489.686 22.5172V4.51779H493.126V22.5172H489.686Z" fill="#EAF0FF"/>
<path d="M497.54 22.5172V4.51779H503.185L510.623 19.6077H510.938V4.51779H514.184V22.5172H508.515L501.077 7.42728H500.738V22.5172H497.54Z" fill="#EAF0FF"/>
<path d="M526.52 22.9857C524.905 22.9857 523.524 22.698 522.377 22.1227C521.247 21.5474 520.318 20.7994 519.591 19.8789C518.881 18.9584 518.356 17.9639 518.017 16.8955C517.677 15.8106 517.508 14.7585 517.508 13.7394V13.197C517.508 12.0956 517.677 11.0025 518.017 9.91761C518.372 8.81628 518.913 7.82179 519.64 6.93415C520.367 6.04651 521.287 5.33968 522.402 4.81367C523.516 4.27122 524.849 4 526.399 4C527.982 4 529.371 4.29588 530.566 4.88764C531.762 5.4794 532.715 6.30129 533.425 7.35331C534.136 8.40533 534.564 9.63817 534.709 11.0518H531.245C531.051 9.81898 530.51 8.88203 529.621 8.24095C528.749 7.58344 527.675 7.25469 526.399 7.25469C525.22 7.25469 524.227 7.52591 523.419 8.06836C522.628 8.59437 522.022 9.32585 521.602 10.2628C521.198 11.1998 520.997 12.2764 520.997 13.4928C520.997 14.6764 521.206 15.7366 521.626 16.6735C522.046 17.6105 522.668 18.3584 523.492 18.9173C524.316 19.4598 525.325 19.731 526.52 19.731C527.845 19.731 528.959 19.4022 529.864 18.7447C530.784 18.0708 531.342 17.1338 531.535 15.9338H535C534.838 17.2324 534.402 18.416 533.692 19.4844C532.997 20.5529 532.044 21.4076 530.833 22.0487C529.638 22.6733 528.2 22.9857 526.52 22.9857Z" fill="#EAF0FF"/>
<path d="M360.218 44.302C359.376 44.302 358.628 44.1593 357.974 43.8738C357.328 43.5883 356.781 43.1981 356.333 42.7032C355.893 42.1989 355.561 41.6231 355.337 40.976C355.112 40.3288 355 39.6389 355 38.9061V38.6492C355 37.983 355.108 37.3359 355.323 36.7078C355.547 36.0797 355.87 35.5134 356.29 35.0091C356.721 34.5047 357.244 34.105 357.861 33.81C358.479 33.5149 359.189 33.3674 359.993 33.3674C360.826 33.3674 361.564 33.5292 362.21 33.8528C362.855 34.1668 363.374 34.6094 363.767 35.1804C364.159 35.7514 364.393 36.4128 364.468 37.1646H363.388C363.313 36.5555 363.112 36.0416 362.785 35.6229C362.467 35.2041 362.065 34.8901 361.578 34.6807C361.092 34.4714 360.564 34.3667 359.993 34.3667C359.189 34.3667 358.493 34.557 357.903 34.9377C357.324 35.3183 356.875 35.8418 356.557 36.5079C356.239 37.1741 356.08 37.9354 356.08 38.7919C356.08 39.696 356.244 40.4906 356.571 41.1758C356.898 41.8515 357.37 42.3797 357.988 42.7603C358.605 43.141 359.348 43.3313 360.218 43.3313C360.872 43.3313 361.466 43.2219 361.999 43.003C362.542 42.7841 362.99 42.4891 363.346 42.118V40.0767H359.839V39.1631H365.267V40.0767H364.356V42.4463C363.916 43.0268 363.346 43.4836 362.644 43.8167C361.943 44.1403 361.134 44.302 360.218 44.302Z" fill="#EAF0FF"/>
<path d="M370.486 44.302C369.85 44.302 369.289 44.1926 368.803 43.9737C368.317 43.7453 367.91 43.4455 367.582 43.0744C367.255 42.6937 367.003 42.2702 366.825 41.8039C366.657 41.3376 366.573 40.8618 366.573 40.3764V40.1766C366.573 39.6912 366.661 39.2154 366.839 38.7491C367.017 38.2828 367.274 37.864 367.611 37.4929C367.947 37.1122 368.354 36.8125 368.831 36.5936C369.317 36.3652 369.869 36.251 370.486 36.251C371.103 36.251 371.655 36.3652 372.141 36.5936C372.627 36.8125 373.039 37.1122 373.375 37.4929C373.712 37.864 373.965 38.2828 374.133 38.7491C374.311 39.2154 374.399 39.6912 374.399 40.1766V40.3764C374.399 40.8618 374.315 41.3376 374.147 41.8039C373.979 42.2702 373.726 42.6937 373.389 43.0744C373.062 43.4455 372.655 43.7453 372.169 43.9737C371.683 44.1926 371.122 44.302 370.486 44.302ZM370.486 43.3456C371.103 43.3456 371.622 43.2076 372.043 42.9316C372.473 42.6557 372.8 42.2845 373.025 41.8182C373.249 41.3519 373.361 40.838 373.361 40.2765C373.361 39.7055 373.245 39.1916 373.011 38.7348C372.777 38.2685 372.445 37.9021 372.015 37.6356C371.594 37.3597 371.084 37.2217 370.486 37.2217C369.897 37.2217 369.387 37.3597 368.957 37.6356C368.527 37.9021 368.195 38.2685 367.961 38.7348C367.737 39.1916 367.625 39.7055 367.625 40.2765C367.625 40.838 367.737 41.3519 367.961 41.8182C368.186 42.2845 368.508 42.6557 368.929 42.9316C369.359 43.2076 369.878 43.3456 370.486 43.3456Z" fill="#EAF0FF"/>
<path d="M376.615 44.0594V34.5094H375.535V33.6387H377.667V44.0594H376.615Z" fill="#EAF0FF"/>
<path d="M383.437 44.302C382.717 44.302 382.082 44.126 381.53 43.7739C380.987 43.4122 380.562 42.9364 380.253 42.3464C379.954 41.7468 379.805 41.0902 379.805 40.3764V40.1766C379.805 39.4914 379.95 38.8538 380.239 38.2637C380.539 37.6642 380.959 37.1788 381.502 36.8077C382.044 36.4366 382.68 36.251 383.409 36.251C384.027 36.251 384.578 36.3937 385.064 36.6792C385.551 36.9552 385.934 37.3549 386.215 37.8783V33.6387H387.267V44.0594H386.425V42.3606C386.163 43.0078 385.766 43.4931 385.233 43.8167C384.7 44.1403 384.101 44.302 383.437 44.302ZM383.578 43.3599C384.083 43.3599 384.536 43.2457 384.938 43.0173C385.35 42.7794 385.672 42.4558 385.906 42.0466C386.14 41.6279 386.257 41.1378 386.257 40.5763V39.8911C386.257 39.3582 386.135 38.8918 385.892 38.4921C385.658 38.0829 385.336 37.7641 384.924 37.5357C384.522 37.3073 384.069 37.1931 383.564 37.1931C383.003 37.1931 382.521 37.3311 382.119 37.6071C381.717 37.8736 381.404 38.2399 381.179 38.7063C380.964 39.1726 380.857 39.696 380.857 40.2765C380.857 40.8761 380.969 41.409 381.193 41.8753C381.418 42.3416 381.731 42.708 382.133 42.9745C382.544 43.2314 383.026 43.3599 383.578 43.3599Z" fill="#EAF0FF"/>
<path d="M395.486 44.0594V34.6236H392.288V33.6387H399.75V34.6236H396.552V44.0594H395.486Z" fill="#EAF0FF"/>
<path d="M401.708 35.109C401.456 35.109 401.264 35.0424 401.133 34.9091C401.011 34.7664 400.951 34.5903 400.951 34.381C400.951 34.1621 401.011 33.986 401.133 33.8528C401.264 33.7196 401.456 33.6529 401.708 33.6529C401.961 33.6529 402.148 33.7196 402.269 33.8528C402.391 33.986 402.451 34.1621 402.451 34.381C402.451 34.5903 402.391 34.7664 402.269 34.9091C402.148 35.0424 401.961 35.109 401.708 35.109ZM401.484 44.0594V37.3644H400.291V36.5079H402.522V44.0594H401.484Z" fill="#EAF0FF"/>
<path d="M405.9 35.109C405.647 35.109 405.455 35.0424 405.325 34.9091C405.203 34.7664 405.142 34.5903 405.142 34.381C405.142 34.1621 405.203 33.986 405.325 33.8528C405.455 33.7196 405.647 33.6529 405.9 33.6529C406.152 33.6529 406.339 33.7196 406.461 33.8528C406.582 33.986 406.643 34.1621 406.643 34.381C406.643 34.5903 406.582 34.7664 406.461 34.9091C406.339 35.0424 406.152 35.109 405.9 35.109ZM405.675 44.0594V37.3644H404.483V36.5079H406.713V44.0594H405.675Z" fill="#EAF0FF"/>
<path d="M409.474 44.0594V36.4936H410.316V38.2352C410.474 37.6261 410.755 37.1503 411.157 36.8077C411.559 36.4556 412.092 36.2795 412.756 36.2795H412.798C413.453 36.2795 413.981 36.4508 414.383 36.7934C414.785 37.136 415.066 37.6166 415.225 38.2352C415.393 37.6261 415.678 37.1503 416.08 36.8077C416.492 36.4556 417.025 36.2795 417.679 36.2795H417.721C418.6 36.2795 419.255 36.5841 419.685 37.1931C420.125 37.8022 420.344 38.6301 420.344 39.677V44.0594H419.292V39.4343C419.292 38.7681 419.133 38.24 418.816 37.8498C418.498 37.4596 418.039 37.2645 417.441 37.2645C416.824 37.2645 416.333 37.4691 415.968 37.8783C415.613 38.2875 415.435 38.83 415.435 39.5057V44.0594H414.383V39.4343C414.383 38.7681 414.224 38.24 413.906 37.8498C413.588 37.4596 413.13 37.2645 412.532 37.2645C411.915 37.2645 411.424 37.4691 411.059 37.8783C410.704 38.2875 410.526 38.83 410.526 39.5057V44.0594H409.474Z" fill="#EAF0FF"/>
<path d="M426.066 44.302C425.421 44.302 424.864 44.1926 424.397 43.9737C423.939 43.7453 423.56 43.4455 423.261 43.0744C422.962 42.6937 422.737 42.2702 422.587 41.8039C422.447 41.3281 422.377 40.8475 422.377 40.3622V40.1623C422.377 39.677 422.452 39.2011 422.601 38.7348C422.751 38.2685 422.971 37.8498 423.261 37.4786C423.56 37.1075 423.934 36.8125 424.383 36.5936C424.841 36.3652 425.374 36.251 425.982 36.251C426.758 36.251 427.403 36.427 427.918 36.7791C428.441 37.1217 428.834 37.5738 429.096 38.1353C429.358 38.6872 429.488 39.2725 429.488 39.8911V40.4478H423.387C423.406 40.9902 423.513 41.4851 423.71 41.9324C423.906 42.3702 424.2 42.7175 424.593 42.9745C424.986 43.2314 425.477 43.3599 426.066 43.3599C426.711 43.3599 427.235 43.2124 427.637 42.9174C428.039 42.6224 428.287 42.2655 428.38 41.8467H429.362C429.213 42.5986 428.843 43.1981 428.254 43.6454C427.674 44.0832 426.945 44.302 426.066 44.302ZM425.982 37.1931C425.224 37.1931 424.631 37.4215 424.201 37.8783C423.78 38.3351 423.523 38.9156 423.429 39.6199H428.465C428.399 38.8966 428.156 38.3113 427.735 37.864C427.314 37.4168 426.73 37.1931 425.982 37.1931Z" fill="#EAF0FF"/>
<path d="M435.026 44.0594V33.6387H440.805V34.6236H436.092V38.278H440.482V39.2487H436.092V43.0744H440.959V44.0594H435.026Z" fill="#EAF0FF"/>
<path d="M444.839 44.0594L442.23 36.5079H443.31L445.597 43.1886H445.947L447.953 36.5079H448.991L446.691 44.0594H444.839Z" fill="#EAF0FF"/>
<path d="M453.831 44.302C453.186 44.302 452.63 44.1926 452.162 43.9737C451.704 43.7453 451.325 43.4455 451.026 43.0744C450.727 42.6937 450.502 42.2702 450.353 41.8039C450.212 41.3281 450.142 40.8475 450.142 40.3622V40.1623C450.142 39.677 450.217 39.2011 450.367 38.7348C450.516 38.2685 450.736 37.8498 451.026 37.4786C451.325 37.1075 451.699 36.8125 452.148 36.5936C452.606 36.3652 453.139 36.251 453.747 36.251C454.523 36.251 455.168 36.427 455.683 36.7791C456.206 37.1217 456.599 37.5738 456.861 38.1353C457.123 38.6872 457.254 39.2725 457.254 39.8911V40.4478H451.152C451.171 40.9902 451.278 41.4851 451.475 41.9324C451.671 42.3702 451.966 42.7175 452.358 42.9745C452.751 43.2314 453.242 43.3599 453.831 43.3599C454.476 43.3599 455 43.2124 455.402 42.9174C455.804 42.6224 456.052 42.2655 456.146 41.8467H457.127C456.978 42.5986 456.609 43.1981 456.019 43.6454C455.44 44.0832 454.71 44.302 453.831 44.302ZM453.747 37.1931C452.99 37.1931 452.396 37.4215 451.966 37.8783C451.545 38.3351 451.288 38.9156 451.194 39.6199H456.23C456.164 38.8966 455.921 38.3113 455.5 37.864C455.08 37.4168 454.495 37.1931 453.747 37.1931Z" fill="#EAF0FF"/>
<path d="M459.279 44.0594V36.5079H460.12V38.6206C460.382 37.1551 461.341 36.4223 462.996 36.4223H463.234V37.393H462.799C461.995 37.393 461.383 37.6071 460.962 38.0353C460.541 38.4636 460.331 39.0822 460.331 39.8911V44.0594H459.279Z" fill="#EAF0FF"/>
<path d="M464.523 47V46.0436H465.477C465.963 46.0436 466.347 45.9484 466.627 45.7581C466.917 45.5677 467.146 45.2061 467.315 44.6732L467.553 43.8738H466.81L464.117 36.5079H465.197L467.483 42.9745H467.834L469.811 36.5079H470.835L468.226 44.973C468.002 45.6962 467.651 46.2149 467.174 46.5289C466.707 46.843 466.122 47 465.421 47H464.523Z" fill="#EAF0FF"/>
<path d="M476.504 44.302C475.794 44.302 475.181 44.1307 474.667 43.7881C474.153 43.436 473.769 42.9554 473.517 42.3464V44.0594H472.675V33.6387H473.727V37.9782C473.998 37.4168 474.382 36.9885 474.877 36.6935C475.373 36.3985 475.939 36.251 476.575 36.251C477.304 36.251 477.935 36.4318 478.468 36.7934C479.001 37.1551 479.413 37.6356 479.702 38.2352C479.992 38.8252 480.137 39.4676 480.137 40.1623V40.3622C480.137 41.0474 479.988 41.6897 479.688 42.2893C479.398 42.8888 478.982 43.3742 478.44 43.7453C477.898 44.1165 477.252 44.302 476.504 44.302ZM476.392 43.3599C476.944 43.3599 477.421 43.2219 477.823 42.9459C478.234 42.6699 478.548 42.2988 478.763 41.8325C478.978 41.3662 479.085 40.8427 479.085 40.2622C479.085 39.6722 478.973 39.1488 478.749 38.692C478.534 38.2257 478.22 37.8593 477.809 37.5928C477.407 37.3264 476.935 37.1931 476.392 37.1931C475.878 37.1931 475.415 37.3121 475.004 37.55C474.601 37.7784 474.279 38.102 474.036 38.5207C473.802 38.9299 473.685 39.4105 473.685 39.9625V40.6619C473.685 41.1949 473.802 41.6659 474.036 42.0751C474.279 42.4748 474.601 42.7889 475.004 43.0173C475.415 43.2457 475.878 43.3599 476.392 43.3599Z" fill="#EAF0FF"/>
<path d="M485.588 44.302C484.952 44.302 484.391 44.1926 483.905 43.9737C483.418 43.7453 483.012 43.4455 482.684 43.0744C482.357 42.6937 482.105 42.2702 481.927 41.8039C481.759 41.3376 481.674 40.8618 481.674 40.3764V40.1766C481.674 39.6912 481.763 39.2154 481.941 38.7491C482.119 38.2828 482.376 37.864 482.712 37.4929C483.049 37.1122 483.456 36.8125 483.933 36.5936C484.419 36.3652 484.971 36.251 485.588 36.251C486.205 36.251 486.757 36.3652 487.243 36.5936C487.729 36.8125 488.141 37.1122 488.477 37.4929C488.814 37.864 489.066 38.2828 489.235 38.7491C489.412 39.2154 489.501 39.6912 489.501 40.1766V40.3764C489.501 40.8618 489.417 41.3376 489.249 41.8039C489.08 42.2702 488.828 42.6937 488.491 43.0744C488.164 43.4455 487.757 43.7453 487.271 43.9737C486.785 44.1926 486.224 44.302 485.588 44.302ZM485.588 43.3456C486.205 43.3456 486.724 43.2076 487.145 42.9316C487.575 42.6557 487.902 42.2845 488.127 41.8182C488.351 41.3519 488.463 40.838 488.463 40.2765C488.463 39.7055 488.346 39.1916 488.113 38.7348C487.879 38.2685 487.547 37.9021 487.117 37.6356C486.696 37.3597 486.186 37.2217 485.588 37.2217C484.999 37.2217 484.489 37.3597 484.059 37.6356C483.629 37.9021 483.297 38.2685 483.063 38.7348C482.839 39.1916 482.726 39.7055 482.726 40.2765C482.726 40.838 482.839 41.3519 483.063 41.8182C483.287 42.2845 483.61 42.6557 484.031 42.9316C484.461 43.2076 484.98 43.3456 485.588 43.3456Z" fill="#EAF0FF"/>
<path d="M494.69 44.302C493.97 44.302 493.334 44.126 492.783 43.7739C492.24 43.4122 491.815 42.9364 491.506 42.3464C491.207 41.7468 491.057 41.0902 491.057 40.3764V40.1766C491.057 39.4914 491.202 38.8538 491.492 38.2637C491.791 37.6642 492.212 37.1788 492.755 36.8077C493.297 36.4366 493.933 36.251 494.662 36.251C495.279 36.251 495.831 36.3937 496.317 36.6792C496.804 36.9552 497.187 37.3549 497.467 37.8783V33.6387H498.519V44.0594H497.678V42.3606C497.416 43.0078 497.019 43.4931 496.486 43.8167C495.953 44.1403 495.354 44.302 494.69 44.302ZM494.83 43.3599C495.335 43.3599 495.789 43.2457 496.191 43.0173C496.602 42.7794 496.925 42.4558 497.159 42.0466C497.393 41.6279 497.51 41.1378 497.51 40.5763V39.8911C497.51 39.3582 497.388 38.8918 497.145 38.4921C496.911 38.0829 496.588 37.7641 496.177 37.5357C495.775 37.3073 495.321 37.1931 494.816 37.1931C494.255 37.1931 493.774 37.3311 493.372 37.6071C492.97 37.8736 492.656 38.2399 492.432 38.7063C492.217 39.1726 492.109 39.696 492.109 40.2765C492.109 40.8761 492.222 41.409 492.446 41.8753C492.67 42.3416 492.984 42.708 493.386 42.9745C493.797 43.2314 494.279 43.3599 494.83 43.3599Z" fill="#EAF0FF"/>
<path d="M500.576 47V46.0436H501.529C502.016 46.0436 502.399 45.9484 502.68 45.7581C502.969 45.5677 503.199 45.2061 503.367 44.6732L503.605 43.8738H502.862L500.169 36.5079H501.249L503.535 42.9745H503.886L505.864 36.5079H506.888L504.279 44.973C504.054 45.6962 503.704 46.2149 503.227 46.5289C502.759 46.843 502.175 47 501.473 47H500.576Z" fill="#EAF0FF"/>
</svg>
