<svg width="667" height="51" viewBox="0 0 667 51" fill="none" xmlns="http://www.w3.org/2000/svg">
<path d="M289.625 28.3333H305.377C306.821 28.3333 308.002 27.0583 308.002 25.5V2.83333C308.002 1.275 306.821 0 305.377 0H289.625C288.181 0 287 1.275 287 2.83333V25.5C287 27.0583 288.181 28.3333 289.625 28.3333ZM289.625 51H305.377C306.821 51 308.002 49.725 308.002 48.1667V36.8333C308.002 35.275 306.821 34 305.377 34H289.625C288.181 34 287 35.275 287 36.8333V48.1667C287 49.725 288.181 51 289.625 51ZM315.878 51H331.63C333.074 51 334.256 49.725 334.256 48.1667V25.5C334.256 23.9417 333.074 22.6667 331.63 22.6667H315.878C314.434 22.6667 313.253 23.9417 313.253 25.5V48.1667C313.253 49.725 314.434 51 315.878 51ZM313.253 2.83333V14.1667C313.253 15.725 314.434 17 315.878 17H331.63C333.074 17 334.256 15.725 334.256 14.1667V2.83333C334.256 1.275 333.074 0 331.63 0H315.878C314.434 0 313.253 1.275 313.253 2.83333Z" fill="#EAF0FF"/>
<path d="M350.907 24.5992C349.455 24.5992 348.228 24.3488 347.225 23.8482C346.223 23.3475 345.46 22.6612 344.936 21.7891C344.427 20.917 344.173 19.9157 344.173 18.7852H347.293C347.293 19.2697 347.412 19.7299 347.652 20.166C347.891 20.602 348.273 20.9573 348.797 21.2319C349.335 21.5064 350.039 21.6437 350.907 21.6437C352.074 21.6437 352.949 21.3853 353.533 20.8685C354.116 20.3517 354.408 19.7219 354.408 18.979C354.408 18.3653 354.161 17.8646 353.668 17.477C353.174 17.0894 352.411 16.8472 351.378 16.7503L349.941 16.6291C348.37 16.4838 347.113 15.9589 346.17 15.0545C345.243 14.134 344.779 12.9227 344.779 11.4208C344.779 10.3064 345.018 9.3374 345.497 8.51375C345.991 7.6901 346.687 7.06025 347.585 6.6242C348.482 6.172 349.53 5.9459 350.727 5.9459C351.954 5.9459 353.017 6.18008 353.914 6.64843C354.827 7.11678 355.531 7.77893 356.024 8.63488C356.518 9.47468 356.765 10.4679 356.765 11.6146H353.645C353.645 10.904 353.398 10.2741 352.904 9.725C352.425 9.1759 351.7 8.90135 350.727 8.90135C349.769 8.90135 349.059 9.15168 348.595 9.65233C348.131 10.153 347.899 10.7425 347.899 11.4208C347.899 11.9699 348.078 12.4544 348.438 12.8743C348.812 13.278 349.41 13.5122 350.233 13.5768L351.67 13.7221C352.837 13.8352 353.855 14.1097 354.723 14.5458C355.605 14.9657 356.294 15.5471 356.788 16.29C357.281 17.0329 357.528 17.9292 357.528 18.979C357.528 20.0933 357.251 21.0785 356.698 21.9344C356.159 22.7742 355.396 23.4283 354.408 23.8966C353.421 24.365 352.253 24.5992 350.907 24.5992Z" fill="#EAF0FF"/>
<path d="M367.827 24.5992C366.331 24.5992 365.051 24.3165 363.989 23.7513C362.941 23.186 362.081 22.4512 361.408 21.5468C360.749 20.6424 360.263 19.6653 359.949 18.6156C359.634 17.5497 359.477 16.5161 359.477 15.5148V14.9818C359.477 13.8998 359.634 12.8258 359.949 11.7599C360.278 10.6779 360.779 9.70078 361.453 8.82868C362.126 7.95658 362.979 7.26213 364.011 6.74533C365.044 6.21238 366.279 5.9459 367.715 5.9459C369.182 5.9459 370.469 6.2366 371.576 6.818C372.683 7.3994 373.566 8.2069 374.225 9.2405C374.883 10.2741 375.28 11.4854 375.414 12.8743H372.204C372.025 11.663 371.523 10.7425 370.7 10.1126C369.892 9.4666 368.897 9.1436 367.715 9.1436C366.623 9.1436 365.702 9.41008 364.954 9.94303C364.221 10.4598 363.66 11.1785 363.271 12.0991C362.897 13.0196 362.71 14.0774 362.71 15.2725C362.71 16.4353 362.904 17.477 363.293 18.3976C363.682 19.3181 364.258 20.0529 365.022 20.602C365.785 21.135 366.72 21.4015 367.827 21.4015C369.054 21.4015 370.087 21.0785 370.925 20.4325C371.778 19.7703 372.294 18.8498 372.474 17.6708H375.684C375.534 18.9467 375.13 20.1095 374.471 21.1592C373.828 22.209 372.945 23.0488 371.823 23.6786C370.715 24.2923 369.384 24.5992 367.827 24.5992Z" fill="#EAF0FF"/>
<path d="M378.373 24.1389V6.45463H381.561V13.7706H389.125V6.45463H392.312V24.1389H389.125V16.7987H381.561V24.1389H378.373Z" fill="#EAF0FF"/>
<path d="M403.104 24.5992C401.563 24.5992 400.269 24.2842 399.221 23.6544C398.174 23.0245 397.38 22.1444 396.842 21.0139C396.303 19.8672 396.034 18.5268 396.034 16.9925V6.45463H399.221V17.1863C399.221 18.4622 399.55 19.4877 400.209 20.2629C400.882 21.0219 401.847 21.4015 403.104 21.4015C404.331 21.4015 405.274 21.0219 405.932 20.2629C406.606 19.5038 406.943 18.4783 406.943 17.1863V6.45463H410.13V16.9925C410.13 18.5268 409.861 19.8672 409.322 21.0139C408.783 22.1444 407.99 23.0245 406.943 23.6544C405.91 24.2842 404.631 24.5992 403.104 24.5992Z" fill="#EAF0FF"/>
<path d="M413.862 24.1389V6.45463H418.217L422.324 17.0167H422.729L426.814 6.45463H431.236V24.1389H428.071V10.1368L424.053 20.5294H420.798L416.78 10.2095V24.1389H413.862Z" fill="#EAF0FF"/>
<path d="M435.278 24.1389V6.45463H439.633L443.741 17.0167H444.145L448.23 6.45463H452.652V24.1389H449.487V10.1368L445.469 20.5294H442.214L438.196 10.2095V24.1389H435.278Z" fill="#EAF0FF"/>
<path d="M467.128 24.5992C465.676 24.5992 464.449 24.3488 463.447 23.8482C462.444 23.3475 461.681 22.6612 461.157 21.7891C460.648 20.917 460.394 19.9157 460.394 18.7852H463.514C463.514 19.2697 463.634 19.7299 463.873 20.166C464.113 20.602 464.494 20.9573 465.018 21.2319C465.557 21.5064 466.26 21.6437 467.128 21.6437C468.295 21.6437 469.171 21.3853 469.754 20.8685C470.338 20.3517 470.63 19.7219 470.63 18.979C470.63 18.3653 470.383 17.8646 469.889 17.477C469.395 17.0894 468.632 16.8472 467.599 16.7503L466.163 16.6291C464.592 16.4838 463.335 15.9589 462.392 15.0545C461.464 14.134 461 12.9227 461 11.4208C461 10.3064 461.24 9.3374 461.718 8.51375C462.212 7.6901 462.908 7.06025 463.806 6.6242C464.704 6.172 465.751 5.9459 466.948 5.9459C468.175 5.9459 469.238 6.18008 470.136 6.64843C471.049 7.11678 471.752 7.77893 472.246 8.63488C472.74 9.47468 472.986 10.4679 472.986 11.6146H469.866C469.866 10.904 469.619 10.2741 469.126 9.725C468.647 9.1759 467.921 8.90135 466.948 8.90135C465.991 8.90135 465.28 9.15168 464.816 9.65233C464.352 10.153 464.12 10.7425 464.12 11.4208C464.12 11.9699 464.3 12.4544 464.659 12.8743C465.033 13.278 465.632 13.5122 466.455 13.5768L467.891 13.7221C469.058 13.8352 470.076 14.1097 470.944 14.5458C471.827 14.9657 472.515 15.5471 473.009 16.29C473.503 17.0329 473.75 17.9292 473.75 18.979C473.75 20.0933 473.473 21.0785 472.919 21.9344C472.38 22.7742 471.617 23.4283 470.63 23.8966C469.642 24.365 468.475 24.5992 467.128 24.5992Z" fill="#EAF0FF"/>
<path d="M484.049 24.5992C482.552 24.5992 481.273 24.3165 480.21 23.7513C479.163 23.186 478.302 22.4512 477.629 21.5468C476.971 20.6424 476.484 19.6653 476.17 18.6156C475.856 17.5497 475.699 16.5161 475.699 15.5148V14.9818C475.699 13.8998 475.856 12.8258 476.17 11.7599C476.499 10.6779 477.001 9.70078 477.674 8.82868C478.347 7.95658 479.2 7.26213 480.233 6.74533C481.265 6.21238 482.5 5.9459 483.936 5.9459C485.403 5.9459 486.69 6.2366 487.797 6.818C488.905 7.3994 489.787 8.2069 490.446 9.2405C491.104 10.2741 491.501 11.4854 491.636 12.8743H488.426C488.246 11.663 487.745 10.7425 486.922 10.1126C486.114 9.4666 485.119 9.1436 483.936 9.1436C482.844 9.1436 481.924 9.41008 481.176 9.94303C480.442 10.4598 479.881 11.1785 479.492 12.0991C479.118 13.0196 478.931 14.0774 478.931 15.2725C478.931 16.4353 479.125 17.477 479.514 18.3976C479.904 19.3181 480.48 20.0529 481.243 20.602C482.006 21.135 482.941 21.4015 484.049 21.4015C485.276 21.4015 486.308 21.0785 487.146 20.4325C487.999 19.7703 488.515 18.8498 488.695 17.6708H491.905C491.755 18.9467 491.351 20.1095 490.693 21.1592C490.049 22.209 489.166 23.0488 488.044 23.6786C486.937 24.2923 485.605 24.5992 484.049 24.5992Z" fill="#EAF0FF"/>
<path d="M494.595 24.1389V6.45463H497.782V13.7706H505.346V6.45463H508.534V24.1389H505.346V16.7987H497.782V24.1389H494.595Z" fill="#EAF0FF"/>
<path d="M519.326 24.5992C517.784 24.5992 516.49 24.2842 515.442 23.6544C514.395 23.0245 513.602 22.1444 513.063 21.0139C512.524 19.8672 512.255 18.5268 512.255 16.9925V6.45463H515.442V17.1863C515.442 18.4622 515.772 19.4877 516.43 20.2629C517.103 21.0219 518.069 21.4015 519.326 21.4015C520.553 21.4015 521.495 21.0219 522.154 20.2629C522.827 19.5038 523.164 18.4783 523.164 17.1863V6.45463H526.351V16.9925C526.351 18.5268 526.082 19.8672 525.543 21.0139C525.005 22.1444 524.211 23.0245 523.164 23.6544C522.131 24.2842 520.852 24.5992 519.326 24.5992Z" fill="#EAF0FF"/>
<path d="M530.084 24.1389V6.45463H533.271V21.1108H539.893V24.1389H530.084Z" fill="#EAF0FF"/>
<path d="M543.991 24.1389V9.48275H539.255V6.45463H551.915V9.48275H547.178V24.1389H543.991Z" fill="#EAF0FF"/>
<path d="M553.318 24.1389V21.1834L562.207 9.57965L562.005 9.28895H553.587V6.45463H565.888V9.41008L556.999 20.9896L557.201 21.3046H566V24.1389H553.318Z" fill="#EAF0FF"/>
<path d="M346.212 44.8264L343.707 35.0535H344.674L346.87 43.9027H347.304L349.09 35.4819H350.343L352.34 43.9027H352.75L354.747 35.0535H355.689L353.395 44.8264H351.658L349.723 36.7002L347.949 44.8264H346.212Z" fill="#EAF0FF"/>
<path d="M359.978 45.054C359.416 45.054 358.92 44.9513 358.49 44.7461C358.06 44.5319 357.7 44.2507 357.41 43.9027C357.121 43.5457 356.898 43.1485 356.741 42.7112C356.592 42.2738 356.517 41.8276 356.517 41.3724V41.185C356.517 40.7298 356.596 40.2836 356.753 39.8462C356.91 39.4089 357.138 39.0162 357.435 38.6681C357.733 38.3111 358.093 38.03 358.514 37.8247C358.945 37.6105 359.432 37.5034 359.978 37.5034C360.524 37.5034 361.012 37.6105 361.442 37.8247C361.872 38.03 362.236 38.3111 362.534 38.6681C362.831 39.0162 363.055 39.4089 363.203 39.8462C363.361 40.2836 363.439 40.7298 363.439 41.185V41.3724C363.439 41.8276 363.365 42.2738 363.216 42.7112C363.067 43.1485 362.844 43.5457 362.546 43.9027C362.257 44.2507 361.897 44.5319 361.467 44.7461C361.037 44.9513 360.541 45.054 359.978 45.054ZM359.978 44.157C360.524 44.157 360.983 44.0276 361.355 43.7688C361.736 43.51 362.025 43.1619 362.223 42.7246C362.422 42.2872 362.521 41.8053 362.521 41.2787C362.521 40.7432 362.418 40.2613 362.211 39.8329C362.004 39.3955 361.711 39.0519 361.33 38.802C360.958 38.5432 360.507 38.4138 359.978 38.4138C359.457 38.4138 359.007 38.5432 358.626 38.802C358.246 39.0519 357.952 39.3955 357.745 39.8329C357.547 40.2613 357.448 40.7432 357.448 41.2787C357.448 41.8053 357.547 42.2872 357.745 42.7246C357.944 43.1619 358.229 43.51 358.601 43.7688C358.982 44.0276 359.441 44.157 359.978 44.157Z" fill="#EAF0FF"/>
<path d="M365.336 44.8264V37.7444H366.081V39.7258C366.312 38.3513 367.16 37.6641 368.624 37.6641H368.834V38.5744H368.45C367.739 38.5744 367.197 38.7752 366.825 39.1769C366.453 39.5785 366.267 40.1586 366.267 40.9172V44.8264H365.336Z" fill="#EAF0FF"/>
<path d="M370.339 44.8264V35.0535H371.27V41.3055L374.21 37.7444H375.202L372.671 40.7968L375.897 44.8264H374.805L372.163 41.5063H371.27V44.8264H370.339Z" fill="#EAF0FF"/>
<path d="M384.223 45.054C383.437 45.054 382.755 44.9023 382.176 44.5988C381.597 44.2954 381.113 43.8937 380.725 43.3939C380.344 42.8941 380.059 42.3497 379.869 41.7607C379.687 41.1716 379.596 40.5959 379.596 40.0337V39.7927C379.596 39.1947 379.691 38.6012 379.881 38.0122C380.08 37.4142 380.373 36.8742 380.762 36.3923C381.151 35.9103 381.634 35.5265 382.213 35.2409C382.792 34.9464 383.462 34.7992 384.223 34.7992C384.992 34.7992 385.662 34.9464 386.232 35.2409C386.811 35.5265 387.295 35.9103 387.684 36.3923C388.072 36.8742 388.362 37.4142 388.552 38.0122C388.751 38.6012 388.85 39.1947 388.85 39.7927V40.0471C388.85 40.6093 388.755 41.185 388.564 41.774C388.383 42.3542 388.101 42.8941 387.721 43.3939C387.341 43.8937 386.857 44.2954 386.27 44.5988C385.691 44.9023 385.008 45.054 384.223 45.054ZM384.223 44.1169C384.802 44.1169 385.319 44.0053 385.773 43.7822C386.228 43.5501 386.613 43.2377 386.927 42.845C387.241 42.4434 387.481 41.9927 387.647 41.4929C387.812 40.9931 387.895 40.471 387.895 39.9266C387.895 39.1679 387.746 38.4718 387.448 37.8381C387.159 37.2044 386.737 36.6957 386.183 36.3119C385.637 35.9282 384.984 35.7363 384.223 35.7363C383.47 35.7363 382.817 35.9282 382.263 36.3119C381.717 36.6957 381.295 37.2044 380.998 37.8381C380.7 38.4718 380.551 39.1679 380.551 39.9266C380.551 40.471 380.634 40.9931 380.799 41.4929C380.965 41.9927 381.204 42.4434 381.519 42.845C381.841 43.2377 382.23 43.5501 382.685 43.7822C383.14 44.0053 383.652 44.1169 384.223 44.1169Z" fill="#EAF0FF"/>
<path d="M390.986 44.8264V38.5744H390.031V37.798H390.986V37.1955C390.986 36.4458 391.163 35.8969 391.519 35.5489C391.883 35.1919 392.416 35.0134 393.119 35.0134H393.95V35.8702H392.946C392.598 35.8702 392.334 35.9683 392.152 36.1647C391.97 36.361 391.879 36.6377 391.879 36.9947V37.798H394.087V38.5744H391.879V44.8264H390.986Z" fill="#EAF0FF"/>
<path d="M400.319 44.8264V35.9773H397.491V35.0535H404.09V35.9773H401.262V44.8264H400.319Z" fill="#EAF0FF"/>
<path d="M405.639 44.8264V35.0535H406.569V39.0564C406.743 38.5834 407.008 38.213 407.363 37.9452C407.727 37.6685 408.182 37.5302 408.728 37.5302H408.777C409.571 37.5302 410.171 37.8113 410.576 38.3736C410.99 38.9359 411.196 39.7168 411.196 40.7164V44.8264H410.278V40.5022C410.278 39.8686 410.117 39.3688 409.795 39.0028C409.472 38.6369 409.038 38.4539 408.492 38.4539C407.905 38.4539 407.438 38.6592 407.09 39.0698C406.743 39.4714 406.569 40.0024 406.569 40.6629V44.8264H405.639Z" fill="#EAF0FF"/>
<path d="M416.254 45.054C415.684 45.054 415.192 44.9513 414.778 44.7461C414.373 44.5319 414.038 44.2507 413.774 43.9027C413.509 43.5457 413.31 43.1485 413.178 42.7112C413.054 42.2649 412.992 41.8142 412.992 41.359V41.1716C412.992 40.7164 413.058 40.2702 413.191 39.8329C413.323 39.3955 413.517 39.0028 413.774 38.6548C414.038 38.3067 414.369 38.03 414.766 37.8247C415.171 37.6105 415.643 37.5034 416.18 37.5034C416.866 37.5034 417.437 37.6685 417.892 37.9988C418.355 38.3201 418.702 38.744 418.934 39.2706C419.165 39.7882 419.281 40.3371 419.281 40.9172V41.4394H413.885C413.902 41.9481 413.997 42.4122 414.17 42.8317C414.344 43.2422 414.605 43.568 414.952 43.8089C415.299 44.0499 415.733 44.1704 416.254 44.1704C416.825 44.1704 417.288 44.0321 417.644 43.7554C417.999 43.4787 418.219 43.144 418.301 42.7513H419.17C419.037 43.4564 418.711 44.0187 418.19 44.4382C417.677 44.8487 417.032 45.054 416.254 45.054ZM416.18 38.387C415.51 38.387 414.985 38.6012 414.605 39.0296C414.233 39.458 414.005 40.0024 413.922 40.6629H418.376C418.318 39.9846 418.103 39.4357 417.731 39.0162C417.358 38.5967 416.842 38.387 416.18 38.387Z" fill="#EAF0FF"/>
<path d="M424.178 44.8264V35.0535H425.754L430.715 43.9027H430.864V35.0535H431.77V44.8264H430.182L425.22 35.9773H425.071V44.8264H424.178Z" fill="#EAF0FF"/>
<path d="M436.159 45.0138C435.456 45.0138 434.89 44.8175 434.46 44.4248C434.03 44.0321 433.815 43.4698 433.815 42.7379C433.815 42.0239 434.038 41.4751 434.484 41.0913C434.939 40.7075 435.576 40.5156 436.395 40.5156H438.231V40.1809C438.231 39.6544 438.102 39.2527 437.846 38.9761C437.59 38.6905 437.193 38.5477 436.655 38.5477C436.283 38.5477 435.911 38.5566 435.539 38.5744C435.167 38.5923 434.848 38.6146 434.584 38.6414V37.7578C434.848 37.731 435.134 37.7087 435.44 37.6909C435.746 37.673 436.039 37.6641 436.32 37.6641C437.321 37.6641 438.036 37.8694 438.466 38.2799C438.905 38.6815 439.124 39.3464 439.124 40.2746V44.8264H438.379V43.3805C438.231 43.925 437.962 44.3355 437.573 44.6122C437.193 44.8799 436.721 45.0138 436.159 45.0138ZM436.333 44.2106C436.639 44.2106 436.932 44.1526 437.213 44.0365C437.495 43.9116 437.73 43.7063 437.921 43.4207C438.111 43.1262 438.214 42.7246 438.231 42.2158V41.2787H436.333C435.812 41.2787 435.411 41.417 435.129 41.6937C434.857 41.9615 434.72 42.314 434.72 42.7513C434.72 43.1976 434.865 43.5546 435.154 43.8223C435.444 44.0812 435.837 44.2106 436.333 44.2106Z" fill="#EAF0FF"/>
<path d="M443.829 44.9067C443.383 44.9067 442.99 44.8353 442.651 44.6925C442.32 44.5497 442.064 44.3087 441.882 43.9696C441.7 43.6304 441.609 43.1663 441.609 42.5773V38.5075H440.43V37.7444H441.609V35.5087H442.502V37.7444H444.871V38.5075H442.502V42.7246C442.502 43.1262 442.605 43.4386 442.812 43.6617C443.019 43.8848 443.312 43.9964 443.693 43.9964H444.871V44.9067H443.829Z" fill="#EAF0FF"/>
<path d="M447.214 36.4324C446.991 36.4324 446.822 36.37 446.706 36.245C446.598 36.1111 446.545 35.946 446.545 35.7497C446.545 35.5444 446.598 35.3793 446.706 35.2543C446.822 35.1294 446.991 35.0669 447.214 35.0669C447.438 35.0669 447.603 35.1294 447.711 35.2543C447.818 35.3793 447.872 35.5444 447.872 35.7497C447.872 35.946 447.818 36.1111 447.711 36.245C447.603 36.37 447.438 36.4324 447.214 36.4324ZM447.016 44.8264V38.5477H445.962V37.7444H447.934V44.8264H447.016Z" fill="#EAF0FF"/>
<path d="M453.315 45.054C452.753 45.054 452.257 44.9513 451.827 44.7461C451.397 44.5319 451.037 44.2507 450.748 43.9027C450.458 43.5457 450.235 43.1485 450.078 42.7112C449.929 42.2738 449.854 41.8276 449.854 41.3724V41.185C449.854 40.7298 449.933 40.2836 450.09 39.8462C450.247 39.4089 450.475 39.0162 450.772 38.6681C451.07 38.3111 451.43 38.03 451.852 37.8247C452.282 37.6105 452.77 37.5034 453.315 37.5034C453.861 37.5034 454.349 37.6105 454.779 37.8247C455.209 38.03 455.573 38.3111 455.871 38.6681C456.168 39.0162 456.392 39.4089 456.541 39.8462C456.698 40.2836 456.776 40.7298 456.776 41.185V41.3724C456.776 41.8276 456.702 42.2738 456.553 42.7112C456.404 43.1485 456.181 43.5457 455.883 43.9027C455.594 44.2507 455.234 44.5319 454.804 44.7461C454.374 44.9513 453.878 45.054 453.315 45.054ZM453.315 44.157C453.861 44.157 454.32 44.0276 454.692 43.7688C455.073 43.51 455.362 43.1619 455.561 42.7246C455.759 42.2872 455.858 41.8053 455.858 41.2787C455.858 40.7432 455.755 40.2613 455.548 39.8329C455.341 39.3955 455.048 39.0519 454.667 38.802C454.295 38.5432 453.845 38.4138 453.315 38.4138C452.794 38.4138 452.344 38.5432 451.963 38.802C451.583 39.0519 451.289 39.3955 451.083 39.8329C450.884 40.2613 450.785 40.7432 450.785 41.2787C450.785 41.8053 450.884 42.2872 451.083 42.7246C451.281 43.1619 451.566 43.51 451.938 43.7688C452.319 44.0276 452.778 44.157 453.315 44.157Z" fill="#EAF0FF"/>
<path d="M458.673 44.8264V37.7444H459.418V39.3911C459.567 38.802 459.831 38.3468 460.212 38.0255C460.6 37.6953 461.109 37.5302 461.737 37.5302H461.775C462.602 37.5302 463.218 37.8113 463.623 38.3736C464.028 38.927 464.231 39.7079 464.231 40.7164V44.8264H463.313V40.5022C463.313 39.8864 463.156 39.3911 462.841 39.0162C462.527 38.6414 462.089 38.4539 461.527 38.4539C460.948 38.4539 460.48 38.6503 460.125 39.043C459.777 39.4268 459.604 39.9355 459.604 40.5692V44.8264H458.673Z" fill="#EAF0FF"/>
<path d="M466.136 38.561V35.0535H466.942V38.561H466.136Z" fill="#EAF0FF"/>
<path d="M470.981 45.0272C470.138 45.0272 469.489 44.8309 469.034 44.4382C468.579 44.0365 468.347 43.501 468.339 42.8317H469.207C469.216 43.1797 469.352 43.4921 469.617 43.7688C469.89 44.0365 470.344 44.1704 470.981 44.1704C471.568 44.1704 472.007 44.041 472.296 43.7822C472.594 43.5144 472.743 43.1931 472.743 42.8183C472.743 42.1489 472.267 41.7562 471.316 41.6402L470.572 41.5598C469.968 41.4884 469.484 41.2921 469.121 40.9708C468.757 40.6495 468.575 40.1988 468.575 39.6187C468.575 38.9939 468.794 38.4896 469.232 38.1059C469.67 37.7221 470.253 37.5302 470.981 37.5302C471.684 37.5302 472.255 37.7087 472.693 38.0657C473.14 38.4227 473.367 38.9314 473.375 39.5919H472.507C472.499 39.2527 472.366 38.9671 472.11 38.7351C471.854 38.503 471.477 38.387 470.981 38.387C470.468 38.387 470.084 38.512 469.828 38.7619C469.579 39.0028 469.455 39.2929 469.455 39.632C469.455 39.9266 469.551 40.172 469.741 40.3684C469.931 40.5558 470.229 40.6718 470.634 40.7164L471.378 40.7968C472.04 40.8771 472.577 41.0824 472.991 41.4126C473.412 41.7428 473.623 42.2158 473.623 42.8317C473.623 43.2511 473.512 43.6304 473.288 43.9696C473.073 44.2998 472.767 44.5586 472.371 44.7461C471.974 44.9335 471.51 45.0272 470.981 45.0272Z" fill="#EAF0FF"/>
<path d="M482.439 45.054C481.629 45.054 480.934 44.9023 480.355 44.5988C479.785 44.2864 479.317 43.8803 478.954 43.3805C478.598 42.8807 478.337 42.3408 478.172 41.7607C478.007 41.1716 477.924 40.6004 477.924 40.0471V39.7927C477.924 39.1947 478.007 38.6012 478.172 38.0122C478.346 37.4231 478.61 36.8876 478.966 36.4057C479.33 35.9148 479.793 35.5265 480.355 35.2409C480.918 34.9464 481.583 34.7992 482.352 34.7992C483.13 34.7992 483.8 34.9464 484.362 35.2409C484.933 35.5355 485.387 35.9505 485.726 36.486C486.066 37.0215 486.272 37.6462 486.347 38.3602H485.392C485.317 37.7801 485.139 37.2982 484.858 36.9144C484.585 36.5217 484.23 36.2272 483.791 36.0308C483.361 35.8345 482.882 35.7363 482.352 35.7363C481.592 35.7363 480.951 35.9282 480.43 36.3119C479.917 36.6868 479.528 37.1911 479.264 37.8247C479.007 38.4584 478.879 39.159 478.879 39.9266C478.879 40.471 478.954 40.9931 479.102 41.4929C479.251 41.9927 479.47 42.4434 479.76 42.845C480.058 43.2377 480.43 43.5501 480.876 43.7822C481.323 44.0053 481.844 44.1169 482.439 44.1169C483.266 44.1169 483.961 43.8937 484.523 43.4475C485.086 42.9923 485.433 42.3408 485.565 41.4929H486.52C486.429 42.1623 486.214 42.7692 485.875 43.3136C485.536 43.8491 485.077 44.273 484.498 44.5854C483.928 44.8978 483.241 45.054 482.439 45.054Z" fill="#EAF0FF"/>
<path d="M488.219 44.8264V35.0535H489.149V39.0564C489.323 38.5834 489.588 38.213 489.943 37.9452C490.307 37.6685 490.762 37.5302 491.308 37.5302H491.357C492.151 37.5302 492.751 37.8113 493.156 38.3736C493.57 38.9359 493.776 39.7168 493.776 40.7164V44.8264H492.858V40.5022C492.858 39.8686 492.697 39.3688 492.375 39.0028C492.052 38.6369 491.618 38.4539 491.072 38.4539C490.485 38.4539 490.018 38.6592 489.67 39.0698C489.323 39.4714 489.149 40.0024 489.149 40.6629V44.8264H488.219Z" fill="#EAF0FF"/>
<path d="M496.639 36.4324C496.416 36.4324 496.246 36.37 496.13 36.245C496.023 36.1111 495.969 35.946 495.969 35.7497C495.969 35.5444 496.023 35.3793 496.13 35.2543C496.246 35.1294 496.416 35.0669 496.639 35.0669C496.862 35.0669 497.028 35.1294 497.135 35.2543C497.243 35.3793 497.296 35.5444 497.296 35.7497C497.296 35.946 497.243 36.1111 497.135 36.245C497.028 36.37 496.862 36.4324 496.639 36.4324ZM496.44 44.8264V38.5477H495.386V37.7444H497.358V44.8264H496.44Z" fill="#EAF0FF"/>
<path d="M499.862 44.8264V35.8702H498.907V35.0535H500.792V44.8264H499.862Z" fill="#EAF0FF"/>
<path d="M505.896 45.054C505.259 45.054 504.697 44.8889 504.209 44.5586C503.729 44.2195 503.353 43.7732 503.08 43.2199C502.815 42.6576 502.683 42.0418 502.683 41.3724V41.185C502.683 40.5424 502.811 39.9444 503.067 39.3911C503.332 38.8288 503.704 38.3736 504.184 38.0255C504.664 37.6775 505.226 37.5034 505.871 37.5034C506.417 37.5034 506.905 37.6373 507.335 37.9051C507.765 38.1639 508.104 38.5387 508.352 39.0296V35.0535H509.282V44.8264H508.538V43.2333C508.306 43.8402 507.955 44.2954 507.483 44.5988C507.012 44.9023 506.483 45.054 505.896 45.054ZM506.02 44.1704C506.466 44.1704 506.867 44.0633 507.223 43.8491C507.587 43.626 507.872 43.3225 508.079 42.9388C508.286 42.5461 508.389 42.0864 508.389 41.5598V40.9172C508.389 40.4174 508.282 39.9801 508.066 39.6053C507.86 39.2215 507.574 38.9225 507.211 38.7083C506.855 38.4941 506.454 38.387 506.007 38.387C505.511 38.387 505.085 38.5164 504.73 38.7752C504.374 39.0251 504.097 39.3688 503.899 39.8061C503.708 40.2434 503.613 40.7343 503.613 41.2787C503.613 41.841 503.712 42.3408 503.911 42.7781C504.109 43.2154 504.386 43.559 504.742 43.8089C505.106 44.0499 505.532 44.1704 506.02 44.1704Z" fill="#EAF0FF"/>
<path d="M511.684 44.8264V37.7444H512.428V39.7258C512.659 38.3513 513.507 37.6641 514.971 37.6641H515.182V38.5744H514.797C514.086 38.5744 513.544 38.7752 513.172 39.1769C512.8 39.5785 512.614 40.1586 512.614 40.9172V44.8264H511.684Z" fill="#EAF0FF"/>
<path d="M519.343 45.054C518.773 45.054 518.281 44.9513 517.867 44.7461C517.462 44.5319 517.127 44.2507 516.862 43.9027C516.598 43.5457 516.399 43.1485 516.267 42.7112C516.143 42.2649 516.081 41.8142 516.081 41.359V41.1716C516.081 40.7164 516.147 40.2702 516.279 39.8329C516.412 39.3955 516.606 39.0028 516.862 38.6548C517.127 38.3067 517.458 38.03 517.855 37.8247C518.26 37.6105 518.731 37.5034 519.269 37.5034C519.955 37.5034 520.526 37.6685 520.981 37.9988C521.444 38.3201 521.791 38.744 522.023 39.2706C522.254 39.7882 522.37 40.3371 522.37 40.9172V41.4394H516.974C516.99 41.9481 517.086 42.4122 517.259 42.8317C517.433 43.2422 517.693 43.568 518.041 43.8089C518.388 44.0499 518.822 44.1704 519.343 44.1704C519.914 44.1704 520.377 44.0321 520.733 43.7554C521.088 43.4787 521.307 43.144 521.39 42.7513H522.258C522.126 43.4564 521.799 44.0187 521.278 44.4382C520.766 44.8487 520.121 45.054 519.343 45.054ZM519.269 38.387C518.599 38.387 518.074 38.6012 517.693 39.0296C517.321 39.458 517.094 40.0024 517.011 40.6629H521.464C521.407 39.9846 521.192 39.4357 520.819 39.0162C520.447 38.5967 519.93 38.387 519.269 38.387Z" fill="#EAF0FF"/>
<path d="M524.161 44.8264V37.7444H524.905V39.3911C525.054 38.802 525.319 38.3468 525.699 38.0255C526.088 37.6953 526.596 37.5302 527.225 37.5302H527.262C528.089 37.5302 528.705 37.8113 529.11 38.3736C529.516 38.927 529.718 39.7079 529.718 40.7164V44.8264H528.8V40.5022C528.8 39.8864 528.643 39.3911 528.329 39.0162C528.015 38.6414 527.576 38.4539 527.014 38.4539C526.435 38.4539 525.968 38.6503 525.612 39.043C525.265 39.4268 525.091 39.9355 525.091 40.5692V44.8264H524.161Z" fill="#EAF0FF"/>
<path d="M631.5 0C617.424 0 606 11.424 606 25.5C606 39.576 617.424 51 631.5 51C645.576 51 657 39.576 657 25.5C657 11.424 645.576 0 631.5 0ZM623.212 29.784C622.881 30.8805 621.632 31.3905 620.611 30.9315C619.745 30.5235 619.311 29.5545 619.591 28.6365C619.897 27.591 620.05 26.52 620.025 25.4745C619.999 24.429 619.872 23.4345 619.591 22.4655C619.336 21.5475 619.745 20.553 620.611 20.1705C621.682 19.686 622.932 20.2725 623.264 21.42C623.646 22.7205 623.825 24.0465 623.85 25.4235C623.85 26.8515 623.646 28.3305 623.212 29.784ZM631.219 33.8385C630.786 34.884 629.511 35.292 628.516 34.731C627.675 34.2465 627.344 33.2265 627.701 32.334C628.542 30.3705 628.95 28.1775 628.95 25.806C628.95 23.358 628.491 20.9865 627.599 18.717C627.242 17.799 627.649 16.779 628.516 16.32C629.511 15.81 630.735 16.269 631.143 17.3145C632.214 20.0175 632.749 22.8735 632.749 25.806C632.8 28.6875 632.265 31.3905 631.219 33.8385ZM639.15 37.23C638.716 38.25 637.518 38.709 636.549 38.2245C635.656 37.791 635.223 36.72 635.605 35.802C637.11 32.2575 637.875 28.7895 637.875 25.449C637.875 22.1085 637.11 18.6915 635.631 15.2235C635.223 14.3055 635.656 13.2345 636.549 12.801C637.543 12.291 638.716 12.75 639.15 13.77C640.833 17.697 641.7 21.624 641.7 25.449C641.7 29.274 640.833 33.252 639.15 37.23Z" fill="#EAF0FF"/>
<path d="M676 24.2635V6.38653H682.389C684.404 6.38653 685.933 6.80527 686.973 7.64275C688.03 8.48023 688.558 9.68008 688.558 11.2423V11.5805C688.558 12.4341 688.395 13.1427 688.07 13.7064C687.761 14.2701 687.331 14.7291 686.778 15.0834C687.558 15.4055 688.168 15.8806 688.607 16.5088C689.062 17.1369 689.289 17.9582 689.289 18.9729V19.3111C689.289 20.8894 688.761 22.1134 687.704 22.9831C686.664 23.8367 685.136 24.2635 683.12 24.2635H676ZM682.706 9.14055H679.389V13.9238H682.706C683.535 13.9238 684.144 13.7064 684.534 13.2716C684.925 12.8367 685.12 12.2569 685.12 11.5322C685.12 10.8075 684.925 10.2277 684.534 9.79281C684.144 9.35797 683.535 9.14055 682.706 9.14055ZM683.364 16.5812H679.389V21.5095H683.364C684.177 21.5095 684.795 21.292 685.217 20.8572C685.64 20.4224 685.851 19.8104 685.851 19.0212C685.851 18.2481 685.64 17.6522 685.217 17.2335C684.795 16.7987 684.177 16.5812 683.364 16.5812Z" fill="#EAF0FF"/>
<path d="M690.747 24.1427L696.818 6.50732H702.475L708.718 24.1427H705.158L703.524 19.456H695.77L694.209 24.1427H690.747ZM696.745 16.5571H702.524L700.061 9.38213H699.159L696.745 16.5571Z" fill="#EAF0FF"/>
<path d="M714.058 24.1427V17.4026H713.18L707.816 6.50732H711.376L715.35 14.7935H716.277L719.91 6.50732H723.275L718.325 17.4026H717.448V24.1427H714.058Z" fill="#EAF0FF"/>
<path d="M725.745 24.1427V6.50732H736.523V9.40629H729.134V13.7306H736.084V16.6295H729.134V21.2437H736.718V24.1427H725.745Z" fill="#EAF0FF"/>
<path d="M740.271 24.1427V6.38653H746.879C749.008 6.38653 750.707 6.86164 751.975 7.81185C753.243 8.76207 753.877 10.2035 753.877 12.1361V12.5468C753.877 13.8675 753.568 14.9546 752.95 15.8082C752.349 16.6618 751.512 17.2899 750.439 17.6925L755.194 24.1427H751.146L746.952 18.2481H743.733V24.1427H740.271ZM747.245 9.30965H743.733V15.47H747.245C748.187 15.47 748.943 15.1881 749.512 14.6244C750.081 14.0607 750.366 13.3199 750.366 12.4019C750.366 11.4839 750.081 10.743 749.512 10.1793C748.943 9.59955 748.187 9.30965 747.245 9.30965Z" fill="#EAF0FF"/>
<path d="M771.374 24.6017C769.846 24.6017 768.497 24.3521 767.326 23.8528C766.172 23.3374 765.197 22.653 764.4 21.7994C763.62 20.9458 763.026 19.9714 762.62 18.8762C762.23 17.7811 762.035 16.6456 762.035 15.47V14.9385C762.035 13.8272 762.23 12.7401 762.62 11.6771C763.01 10.6142 763.579 9.65592 764.327 8.80233C765.091 7.94875 766.026 7.27232 767.131 6.77306C768.236 6.25769 769.521 6 770.984 6C772.528 6 773.902 6.2899 775.105 6.86969C776.324 7.44948 777.299 8.25475 778.031 9.2855C778.762 10.3001 779.193 11.4758 779.323 12.8126H775.836C775.722 12.0556 775.438 11.4114 774.983 10.8799C774.528 10.3323 773.951 9.91361 773.252 9.62371C772.569 9.33381 771.813 9.18886 770.984 9.18886C769.862 9.18886 768.895 9.44655 768.082 9.96192C767.269 10.4612 766.643 11.1698 766.204 12.0878C765.766 12.9897 765.546 14.0366 765.546 15.2284C765.546 17.1932 766.066 18.7313 767.107 19.8426C768.163 20.9377 769.586 21.4853 771.374 21.4853C772.317 21.4853 773.17 21.3243 773.934 21.0022C774.715 20.68 775.349 20.2533 775.836 19.7218V17.7408H770.813V15.1801H780.518V17.7408H779.031V20.978C778.267 22.1376 777.226 23.0314 775.909 23.6595C774.593 24.2876 773.081 24.6017 771.374 24.6017Z" fill="#EAF0FF"/>
<path d="M783.372 24.1427V6.38653H789.98C792.109 6.38653 793.808 6.86164 795.076 7.81185C796.344 8.76207 796.978 10.2035 796.978 12.1361V12.5468C796.978 13.8675 796.669 14.9546 796.052 15.8082C795.45 16.6618 794.613 17.2899 793.54 17.6925L798.295 24.1427H794.247L790.053 18.2481H786.834V24.1427H783.372ZM790.346 9.30965H786.834V15.47H790.346C791.288 15.47 792.044 15.1881 792.613 14.6244C793.182 14.0607 793.467 13.3199 793.467 12.4019C793.467 11.4839 793.182 10.743 792.613 10.1793C792.044 9.59955 791.288 9.30965 790.346 9.30965Z" fill="#EAF0FF"/>
<path d="M809.047 24.6017C807.438 24.6017 806.04 24.3199 804.853 23.7562C803.667 23.1925 802.683 22.4597 801.903 21.5578C801.139 20.6398 800.57 19.6574 800.196 18.6105C799.822 17.5475 799.635 16.5249 799.635 15.5424V15.011C799.635 13.9319 799.83 12.8609 800.22 11.7979C800.61 10.735 801.196 9.76866 801.976 8.89897C802.773 8.01317 803.756 7.31259 804.926 6.79722C806.097 6.26574 807.471 6 809.047 6C810.592 6 811.949 6.26574 813.12 6.79722C814.306 7.31259 815.29 8.01317 816.07 8.89897C816.85 9.76866 817.436 10.735 817.826 11.7979C818.232 12.8609 818.435 13.9319 818.435 15.011V15.5424C818.435 16.5249 818.24 17.5475 817.85 18.6105C817.476 19.6574 816.899 20.6398 816.119 21.5578C815.355 22.4597 814.379 23.1925 813.193 23.7562C812.022 24.3199 810.641 24.6017 809.047 24.6017ZM809.047 21.4128C810.25 21.4128 811.291 21.139 812.169 20.5915C813.046 20.0278 813.721 19.2789 814.192 18.3448C814.68 17.4107 814.924 16.396 814.924 15.3009C814.924 14.1413 814.68 13.1025 814.192 12.1845C813.721 11.2503 813.046 10.5176 812.169 9.98608C811.291 9.4546 810.25 9.18886 809.047 9.18886C807.828 9.18886 806.78 9.4546 805.902 9.98608C805.024 10.5176 804.341 11.2503 803.854 12.1845C803.382 13.1025 803.146 14.1413 803.146 15.3009C803.146 16.396 803.382 17.4107 803.854 18.3448C804.325 19.2789 805 20.0278 805.877 20.5915C806.772 21.139 807.828 21.4128 809.047 21.4128Z" fill="#EAF0FF"/>
<path d="M829.121 24.6017C827.447 24.6017 826.041 24.2876 824.903 23.6595C823.765 23.0314 822.903 22.1537 822.318 21.0263C821.733 19.8828 821.44 18.5461 821.44 17.0161V6.50732H824.903V17.2093C824.903 18.4817 825.261 19.5044 825.976 20.2774C826.707 21.0344 827.756 21.4128 829.121 21.4128C830.454 21.4128 831.479 21.0344 832.194 20.2774C832.925 19.5205 833.291 18.4978 833.291 17.2093V6.50732H836.754V17.0161C836.754 18.5461 836.461 19.8828 835.876 21.0263C835.291 22.1537 834.429 23.0314 833.291 23.6595C832.169 24.2876 830.78 24.6017 829.121 24.6017Z" fill="#EAF0FF"/>
<path d="M840.808 24.1427V6.38653H846.953C849.196 6.38653 850.928 6.92606 852.147 8.00512C853.382 9.06807 854 10.5176 854 12.3536V12.7401C854 14.5761 853.382 16.0336 852.147 17.1127C850.928 18.1918 849.196 18.7313 846.953 18.7313H844.271V24.1427H840.808ZM847.246 9.35797H844.271V15.7599H847.246C848.286 15.7599 849.083 15.4619 849.635 14.866C850.204 14.2701 850.489 13.497 850.489 12.5468C850.489 11.5966 850.204 10.8316 849.635 10.2518C849.083 9.65592 848.286 9.35797 847.246 9.35797Z" fill="#EAF0FF"/>
<path d="M681.457 45C680.577 45 679.822 44.8487 679.194 44.5461C678.574 44.2346 678.066 43.8296 677.671 43.3312C677.285 42.8328 677.002 42.2943 676.822 41.7158C676.642 41.1284 676.552 40.5587 676.552 40.0069V39.7533C676.552 39.1569 676.642 38.5651 676.822 37.9776C677.011 37.3902 677.298 36.8562 677.684 36.3756C678.08 35.8861 678.583 35.4989 679.194 35.2141C679.804 34.9204 680.528 34.7735 681.363 34.7735C682.208 34.7735 682.935 34.9204 683.546 35.2141C684.166 35.5078 684.66 35.9217 685.028 36.4557C685.397 36.9897 685.621 37.6127 685.702 38.3247H684.665C684.584 37.7462 684.391 37.2656 684.085 36.8829C683.789 36.4913 683.402 36.1976 682.926 36.0018C682.459 35.806 681.938 35.7081 681.363 35.7081C680.537 35.7081 679.84 35.8994 679.274 36.2821C678.717 36.6559 678.295 37.1588 678.008 37.7907C677.729 38.4227 677.59 39.1213 677.59 39.8868C677.59 40.4297 677.671 40.9504 677.833 41.4488C677.994 41.9472 678.232 42.3967 678.547 42.7972C678.87 43.1888 679.274 43.5003 679.76 43.7317C680.245 43.9542 680.811 44.0655 681.457 44.0655C682.356 44.0655 683.11 43.843 683.721 43.3979C684.332 42.944 684.71 42.2943 684.853 41.4488H685.891C685.792 42.1163 685.559 42.7215 685.19 43.2644C684.822 43.7985 684.323 44.2212 683.694 44.5327C683.075 44.8442 682.329 45 681.457 45Z" fill="#EAF0FF"/>
<path d="M687.736 44.773V35.0272H688.747V39.019C688.936 38.5473 689.223 38.1779 689.609 37.9109C690.005 37.635 690.499 37.497 691.092 37.497H691.146C692.008 37.497 692.659 37.7774 693.1 38.3381C693.549 38.8988 693.773 39.6776 693.773 40.6744V44.773H692.776V40.4608C692.776 39.8289 692.601 39.3305 692.251 38.9656C691.9 38.6007 691.429 38.4182 690.836 38.4182C690.198 38.4182 689.69 38.6229 689.313 39.0323C688.936 39.4328 688.747 39.9624 688.747 40.621V44.773H687.736Z" fill="#EAF0FF"/>
<path d="M696.883 36.4023C696.64 36.4023 696.456 36.34 696.331 36.2154C696.214 36.0819 696.155 35.9172 696.155 35.7214C696.155 35.5167 696.214 35.352 696.331 35.2274C696.456 35.1028 696.64 35.0405 696.883 35.0405C697.126 35.0405 697.305 35.1028 697.422 35.2274C697.539 35.352 697.597 35.5167 697.597 35.7214C697.597 35.9172 697.539 36.0819 697.422 36.2154C697.305 36.34 697.126 36.4023 696.883 36.4023ZM696.667 44.773V38.5117H695.522V37.7106H697.665V44.773H696.667Z" fill="#EAF0FF"/>
<path d="M700.384 44.773V35.8416H699.347V35.0272H701.395V44.773H700.384Z" fill="#EAF0FF"/>
<path d="M706.939 45C706.247 45 705.636 44.8353 705.106 44.506C704.585 44.1678 704.177 43.7228 703.88 43.171C703.593 42.6103 703.449 41.9961 703.449 41.3286V41.1417C703.449 40.5009 703.588 39.9046 703.867 39.3527C704.154 38.792 704.558 38.3381 705.079 37.991C705.6 37.6439 706.211 37.4703 706.912 37.4703C707.505 37.4703 708.035 37.6038 708.502 37.8708C708.969 38.1289 709.338 38.5028 709.607 38.9923V35.0272H710.618V44.773H709.809V43.1843C709.558 43.7896 709.176 44.2435 708.664 44.5461C708.152 44.8487 707.577 45 706.939 45ZM707.074 44.1189C707.559 44.1189 707.995 44.0121 708.381 43.7985C708.776 43.5759 709.086 43.2733 709.311 42.8906C709.535 42.499 709.648 42.0406 709.648 41.5155V40.8747C709.648 40.3763 709.531 39.9402 709.297 39.5663C709.073 39.1836 708.763 38.8855 708.367 38.6719C707.981 38.4583 707.545 38.3515 707.06 38.3515C706.521 38.3515 706.059 38.4805 705.672 38.7386C705.286 38.9878 704.985 39.3305 704.769 39.7666C704.563 40.2027 704.46 40.6922 704.46 41.2352C704.46 41.7959 704.567 42.2943 704.783 42.7304C704.999 43.1665 705.3 43.5092 705.686 43.7584C706.081 43.9987 706.544 44.1189 707.074 44.1189Z" fill="#EAF0FF"/>
<path d="M713.227 44.773V37.7106H714.035V39.6865C714.287 38.3158 715.208 37.6305 716.798 37.6305H717.027V38.5384H716.609C715.836 38.5384 715.248 38.7386 714.844 39.1391C714.439 39.5396 714.237 40.1182 714.237 40.8747V44.773H713.227Z" fill="#EAF0FF"/>
<path d="M721.548 45C720.928 45 720.393 44.8976 719.944 44.6929C719.504 44.4793 719.14 44.199 718.852 43.8519C718.565 43.4958 718.349 43.0998 718.206 42.6637C718.071 42.2186 718.004 41.7692 718.004 41.3153V41.1284C718.004 40.6744 718.075 40.2294 718.219 39.7933C718.363 39.3572 718.574 38.9656 718.852 38.6185C719.14 38.2713 719.499 37.9954 719.93 37.7907C720.371 37.5771 720.883 37.4703 721.467 37.4703C722.212 37.4703 722.832 37.635 723.326 37.9643C723.829 38.2847 724.207 38.7075 724.458 39.2326C724.71 39.7488 724.836 40.2962 724.836 40.8747V41.3954H718.974C718.992 41.9027 719.095 42.3655 719.284 42.7838C719.472 43.1932 719.755 43.5181 720.133 43.7584C720.51 43.9987 720.982 44.1189 721.548 44.1189C722.167 44.1189 722.671 43.9809 723.057 43.705C723.443 43.4291 723.681 43.0953 723.771 42.7037H724.714C724.571 43.4068 724.216 43.9676 723.65 44.3859C723.093 44.7953 722.392 45 721.548 45ZM721.467 38.3515C720.739 38.3515 720.169 38.5651 719.755 38.9923C719.351 39.4195 719.104 39.9624 719.014 40.621H723.852C723.789 39.9446 723.555 39.3972 723.151 38.9789C722.747 38.5606 722.185 38.3515 721.467 38.3515Z" fill="#EAF0FF"/>
<path d="M726.781 44.773V37.7106H727.59V39.3527C727.751 38.7653 728.039 38.3114 728.452 37.991C728.874 37.6617 729.427 37.497 730.11 37.497H730.15C731.048 37.497 731.718 37.7774 732.158 38.3381C732.598 38.8899 732.818 39.6687 732.818 40.6744V44.773H731.821V40.4608C731.821 39.8467 731.65 39.3527 731.309 38.9789C730.968 38.6051 730.491 38.4182 729.88 38.4182C729.252 38.4182 728.744 38.614 728.358 39.0056C727.98 39.3883 727.792 39.8957 727.792 40.5276V44.773H726.781Z" fill="#EAF0FF"/>
<path d="M743.021 45C742.168 45 741.427 44.8487 740.798 44.5461C740.169 44.2435 739.643 43.843 739.221 43.3445C738.808 42.8461 738.498 42.3032 738.291 41.7158C738.094 41.1284 737.995 40.5543 737.995 39.9936V39.7533C737.995 39.1569 738.098 38.5651 738.305 37.9776C738.52 37.3813 738.839 36.8428 739.262 36.3622C739.684 35.8816 740.209 35.4989 740.838 35.2141C741.467 34.9204 742.195 34.7735 743.021 34.7735C743.857 34.7735 744.584 34.9204 745.204 35.2141C745.833 35.4989 746.359 35.8816 746.781 36.3622C747.203 36.8428 747.518 37.3813 747.724 37.9776C747.94 38.5651 748.048 39.1569 748.048 39.7533V40.0069C748.048 40.5676 747.944 41.1417 747.738 41.7291C747.54 42.3077 747.235 42.8461 746.821 43.3445C746.408 43.843 745.883 44.2435 745.245 44.5461C744.616 44.8487 743.875 45 743.021 45ZM743.021 44.0655C743.65 44.0655 744.212 43.9542 744.706 43.7317C745.2 43.5003 745.618 43.1888 745.959 42.7972C746.3 42.3967 746.561 41.9472 746.741 41.4488C746.92 40.9504 747.01 40.4297 747.01 39.8868C747.01 39.1302 746.848 38.436 746.525 37.8041C746.211 37.1722 745.752 36.6648 745.15 36.2821C744.558 35.8994 743.848 35.7081 743.021 35.7081C742.204 35.7081 741.494 35.8994 740.892 36.2821C740.299 36.6648 739.841 37.1722 739.518 37.8041C739.194 38.436 739.033 39.1302 739.033 39.8868C739.033 40.4297 739.122 40.9504 739.302 41.4488C739.482 41.9472 739.742 42.3967 740.084 42.7972C740.434 43.1888 740.856 43.5003 741.35 43.7317C741.844 43.9542 742.401 44.0655 743.021 44.0655Z" fill="#EAF0FF"/>
<path d="M750.368 44.773V38.5384H749.33V37.764H750.368V37.1633C750.368 36.4156 750.561 35.8683 750.947 35.5211C751.343 35.1651 751.922 34.9871 752.686 34.9871H753.589V35.8416H752.497C752.12 35.8416 751.832 35.9395 751.635 36.1353C751.437 36.3311 751.338 36.607 751.338 36.963V37.764H753.737V38.5384H751.338V44.773H750.368Z" fill="#EAF0FF"/>
<path d="M760.507 44.773V35.9484H757.435V35.0272H764.604V35.9484H761.531V44.773H760.507Z" fill="#EAF0FF"/>
<path d="M766.286 44.773V35.0272H767.297V39.019C767.486 38.5473 767.773 38.1779 768.16 37.9109C768.555 37.635 769.049 37.497 769.642 37.497H769.696C770.558 37.497 771.21 37.7774 771.65 38.3381C772.099 38.8988 772.324 39.6776 772.324 40.6744V44.773H771.326V40.4608C771.326 39.8289 771.151 39.3305 770.801 38.9656C770.45 38.6007 769.979 38.4182 769.386 38.4182C768.748 38.4182 768.24 38.6229 767.863 39.0323C767.486 39.4328 767.297 39.9624 767.297 40.621V44.773H766.286Z" fill="#EAF0FF"/>
<path d="M777.818 45C777.198 45 776.664 44.8976 776.215 44.6929C775.775 44.4793 775.411 44.199 775.123 43.8519C774.836 43.4958 774.62 43.0998 774.476 42.6637C774.342 42.2186 774.274 41.7692 774.274 41.3153V41.1284C774.274 40.6744 774.346 40.2294 774.49 39.7933C774.634 39.3572 774.845 38.9656 775.123 38.6185C775.411 38.2713 775.77 37.9954 776.201 37.7907C776.642 37.5771 777.154 37.4703 777.738 37.4703C778.483 37.4703 779.103 37.635 779.597 37.9643C780.1 38.2847 780.478 38.7075 780.729 39.2326C780.981 39.7488 781.106 40.2962 781.106 40.8747V41.3954H775.245C775.263 41.9027 775.366 42.3655 775.554 42.7838C775.743 43.1932 776.026 43.5181 776.403 43.7584C776.781 43.9987 777.252 44.1189 777.818 44.1189C778.438 44.1189 778.941 43.9809 779.328 43.705C779.714 43.4291 779.952 43.0953 780.042 42.7037H780.985C780.841 43.4068 780.487 43.9676 779.921 44.3859C779.364 44.7953 778.663 45 777.818 45ZM777.738 38.3515C777.01 38.3515 776.439 38.5651 776.026 38.9923C775.622 39.4195 775.375 39.9624 775.285 40.621H780.123C780.06 39.9446 779.826 39.3972 779.422 38.9789C779.018 38.5606 778.456 38.3515 777.738 38.3515Z" fill="#EAF0FF"/>
<path d="M786.426 44.773V35.0272H788.138L793.528 43.8519H793.689V35.0272H794.673V44.773H792.948L787.558 35.9484H787.396V44.773H786.426Z" fill="#EAF0FF"/>
<path d="M799.441 44.96C798.678 44.96 798.062 44.7641 797.595 44.3725C797.128 43.9809 796.895 43.4202 796.895 42.6904C796.895 41.9783 797.137 41.431 797.622 41.0483C798.116 40.6655 798.808 40.4742 799.697 40.4742H801.692V40.1404C801.692 39.6153 801.553 39.2148 801.274 38.9389C800.996 38.6541 800.564 38.5117 799.98 38.5117C799.576 38.5117 799.172 38.5206 798.768 38.5384C798.363 38.5562 798.017 38.5784 797.73 38.6051V37.724C798.017 37.6973 798.327 37.675 798.66 37.6572C798.992 37.6394 799.311 37.6305 799.617 37.6305C800.704 37.6305 801.481 37.8352 801.948 38.2446C802.424 38.6452 802.662 39.3082 802.662 40.2339V44.773H801.854V43.3312C801.692 43.8741 801.4 44.2835 800.978 44.5594C800.564 44.8264 800.052 44.96 799.441 44.96ZM799.63 44.1589C799.962 44.1589 800.281 44.1011 800.587 43.9854C800.892 43.8608 801.148 43.6561 801.355 43.3712C801.562 43.0775 801.674 42.677 801.692 42.1697V41.2352H799.63C799.064 41.2352 798.628 41.3731 798.323 41.649C798.026 41.916 797.878 42.2676 797.878 42.7037C797.878 43.1487 798.035 43.5047 798.35 43.7718C798.664 44.0299 799.091 44.1589 799.63 44.1589Z" fill="#EAF0FF"/>
<path d="M807.774 44.8531C807.289 44.8531 806.862 44.7819 806.494 44.6395C806.134 44.4971 805.856 44.2568 805.658 43.9186C805.46 43.5804 805.362 43.1176 805.362 42.5302V38.4716H804.082V37.7106H805.362V35.4811H806.332V37.7106H808.906V38.4716H806.332V42.677C806.332 43.0775 806.444 43.389 806.669 43.6115C806.893 43.8341 807.212 43.9453 807.626 43.9453H808.906V44.8531H807.774Z" fill="#EAF0FF"/>
<path d="M811.451 36.4023C811.209 36.4023 811.025 36.34 810.899 36.2154C810.782 36.0819 810.724 35.9172 810.724 35.7214C810.724 35.5167 810.782 35.352 810.899 35.2274C811.025 35.1028 811.209 35.0405 811.451 35.0405C811.694 35.0405 811.873 35.1028 811.99 35.2274C812.107 35.352 812.165 35.5167 812.165 35.7214C812.165 35.9172 812.107 36.0819 811.99 36.2154C811.873 36.34 811.694 36.4023 811.451 36.4023ZM811.236 44.773V38.5117H810.09V37.7106H812.233V44.773H811.236Z" fill="#EAF0FF"/>
<path d="M818.079 45C817.468 45 816.929 44.8976 816.462 44.6929C815.995 44.4793 815.604 44.199 815.289 43.8519C814.975 43.4958 814.732 43.0998 814.562 42.6637C814.4 42.2275 814.319 41.7825 814.319 41.3286V41.1417C814.319 40.6878 814.405 40.2428 814.575 39.8067C814.746 39.3705 814.993 38.9789 815.316 38.6318C815.64 38.2758 816.031 37.9954 816.489 37.7907C816.956 37.5771 817.486 37.4703 818.079 37.4703C818.672 37.4703 819.202 37.5771 819.669 37.7907C820.136 37.9954 820.531 38.2758 820.855 38.6318C821.178 38.9789 821.421 39.3705 821.583 39.8067C821.753 40.2428 821.839 40.6878 821.839 41.1417V41.3286C821.839 41.7825 821.758 42.2275 821.596 42.6637C821.434 43.0998 821.192 43.4958 820.868 43.8519C820.554 44.199 820.163 44.4793 819.696 44.6929C819.229 44.8976 818.69 45 818.079 45ZM818.079 44.1055C818.672 44.1055 819.17 43.9765 819.575 43.7184C819.988 43.4602 820.302 43.1131 820.518 42.677C820.734 42.2409 820.841 41.7603 820.841 41.2352C820.841 40.7011 820.729 40.2205 820.504 39.7933C820.28 39.3572 819.961 39.0145 819.548 38.7653C819.143 38.5072 818.654 38.3782 818.079 38.3782C817.513 38.3782 817.023 38.5072 816.61 38.7653C816.197 39.0145 815.878 39.3572 815.653 39.7933C815.438 40.2205 815.33 40.7011 815.33 41.2352C815.33 41.7603 815.438 42.2409 815.653 42.677C815.869 43.1131 816.179 43.4602 816.583 43.7184C816.996 43.9765 817.495 44.1055 818.079 44.1055Z" fill="#EAF0FF"/>
<path d="M823.9 44.773V37.7106H824.708V39.3527C824.87 38.7653 825.157 38.3114 825.571 37.991C825.993 37.6617 826.545 37.497 827.228 37.497H827.268C828.167 37.497 828.836 37.7774 829.276 38.3381C829.717 38.8899 829.937 39.6687 829.937 40.6744V44.773H828.939V40.4608C828.939 39.8467 828.769 39.3527 828.427 38.9789C828.086 38.6051 827.61 38.4182 826.999 38.4182C826.37 38.4182 825.863 38.614 825.476 39.0056C825.099 39.3883 824.91 39.8957 824.91 40.5276V44.773H823.9Z" fill="#EAF0FF"/>
<path d="M44.5823 24.2895H41.2799V9.72014H26.7105V6.41775C26.7105 3.23677 24.428 0.347182 21.2713 0.0315126C17.6289 -0.332721 14.5694 2.5083 14.5694 6.0778V9.72014H0.0242822V23.8039H3.39952C6.5805 23.8039 9.47009 25.9407 10.0771 29.0488C10.8785 33.2254 7.69748 36.9163 3.64234 36.9163H0V51H14.0837V47.6005C14.0837 44.4195 16.2206 41.5299 19.3287 40.9229C23.5052 40.1215 27.1961 43.3025 27.1961 47.3577V51H41.2799V36.4306H44.9222C48.4917 36.4306 51.3327 33.3711 50.9685 29.7287C50.6528 26.572 47.7389 24.2895 44.5823 24.2895Z" fill="#EAF0FF"/>
<path d="M71.5063 22.5172L67 4.51779H70.5614L74.0744 19.6077H74.7528L77.5147 5.20818H81.2458L84.4196 19.6077H85.0737L88.1991 4.51779H91.5667L87.5449 22.5172H82.0695L79.356 10.5094L76.8848 22.5172H71.5063Z" fill="#EAF0FF"/>
<path d="M101.61 22.9857C99.946 22.9857 98.5488 22.6651 97.4182 22.0241C96.2876 21.383 95.4315 20.4871 94.8501 19.3365C94.2686 18.1694 93.9779 16.805 93.9779 15.2435V4.51779H97.4182V15.4407C97.4182 16.7393 97.7736 17.7831 98.4842 18.5721C99.211 19.3447 100.253 19.731 101.61 19.731C102.934 19.731 103.952 19.3447 104.662 18.5721C105.389 17.7995 105.752 16.7557 105.752 15.4407V4.51779H109.193V15.2435C109.193 16.805 108.902 18.1694 108.321 19.3365C107.739 20.4871 106.883 21.383 105.752 22.0241C104.638 22.6651 103.257 22.9857 101.61 22.9857Z" fill="#EAF0FF"/>
<path d="M121.192 22.9857C119.577 22.9857 118.196 22.698 117.049 22.1227C115.919 21.5474 114.99 20.7994 114.263 19.8789C113.552 18.9584 113.027 17.9639 112.688 16.8955C112.349 15.8106 112.179 14.7585 112.179 13.7394V13.197C112.179 12.0956 112.349 11.0025 112.688 9.91761C113.044 8.81628 113.585 7.82179 114.311 6.93415C115.038 6.04651 115.959 5.33968 117.073 4.81367C118.188 4.27122 119.52 4 121.071 4C122.654 4 124.043 4.29588 125.238 4.88764C126.433 5.4794 127.386 6.30129 128.097 7.35331C128.808 8.40533 129.236 9.63817 129.381 11.0518H125.916C125.723 9.81898 125.181 8.88203 124.293 8.24095C123.421 7.58344 122.347 7.25469 121.071 7.25469C119.892 7.25469 118.898 7.52591 118.091 8.06836C117.299 8.59437 116.694 9.32585 116.274 10.2628C115.87 11.1998 115.668 12.2764 115.668 13.4928C115.668 14.6764 115.878 15.7366 116.298 16.6735C116.718 17.6105 117.34 18.3584 118.164 18.9173C118.987 19.4598 119.997 19.731 121.192 19.731C122.516 19.731 123.631 19.4022 124.535 18.7447C125.456 18.0708 126.013 17.1338 126.207 15.9338H129.672C129.51 17.2324 129.074 18.416 128.363 19.4844C127.669 20.5529 126.716 21.4076 125.505 22.0487C124.309 22.6733 122.872 22.9857 121.192 22.9857Z" fill="#EAF0FF"/>
<path d="M132.575 22.5172V4.51779H136.015V12.9257L142.75 4.51779H146.699L140.4 12.3586L148.226 22.5172H144.034L137.566 14.1092H136.015V22.5172H132.575Z" fill="#EAF0FF"/>
<path d="M150.201 22.5172V4.51779H160.91V7.4766H153.569V11.8901H160.474V14.849H153.569V19.5584H161.104V22.5172H150.201Z" fill="#EAF0FF"/>
<path d="M164.634 22.5172V4.39451H171.199C173.315 4.39451 175.003 4.87942 176.263 5.84925C177.523 6.81908 178.153 8.29027 178.153 10.2628V10.682C178.153 12.0299 177.846 13.1394 177.232 14.0106C176.634 14.8818 175.803 15.5229 174.737 15.9338L179.461 22.5172H175.439L171.272 16.5009H168.074V22.5172H164.634ZM171.563 7.37797H168.074V13.6654H171.563C172.5 13.6654 173.251 13.3778 173.816 12.8024C174.381 12.2271 174.664 11.471 174.664 10.534C174.664 9.59707 174.381 8.84093 173.816 8.26561C173.251 7.67385 172.5 7.37797 171.563 7.37797Z" fill="#EAF0FF"/>
<path d="M185.11 22.5172V7.59988H179.998V4.51779H193.662V7.59988H188.55V22.5172H185.11Z" fill="#EAF0FF"/>
<path d="M201.686 22.5172V4.51779H205.126V22.5172H201.686Z" fill="#EAF0FF"/>
<path d="M209.54 22.5172V4.51779H215.185L222.623 19.6077H222.938V4.51779H226.184V22.5172H220.515L213.077 7.42728H212.738V22.5172H209.54Z" fill="#EAF0FF"/>
<path d="M238.52 22.9857C236.905 22.9857 235.524 22.698 234.377 22.1227C233.247 21.5474 232.318 20.7994 231.591 19.8789C230.881 18.9584 230.356 17.9639 230.017 16.8955C229.677 15.8106 229.508 14.7585 229.508 13.7394V13.197C229.508 12.0956 229.677 11.0025 230.017 9.91761C230.372 8.81628 230.913 7.82179 231.64 6.93415C232.367 6.04651 233.287 5.33968 234.402 4.81367C235.516 4.27122 236.849 4 238.399 4C239.982 4 241.371 4.29588 242.566 4.88764C243.762 5.4794 244.715 6.30129 245.425 7.35331C246.136 8.40533 246.564 9.63817 246.709 11.0518H243.245C243.051 9.81898 242.51 8.88203 241.621 8.24095C240.749 7.58344 239.675 7.25469 238.399 7.25469C237.22 7.25469 236.227 7.52591 235.419 8.06836C234.628 8.59437 234.022 9.32585 233.602 10.2628C233.198 11.1998 232.997 12.2764 232.997 13.4928C232.997 14.6764 233.206 15.7366 233.626 16.6735C234.046 17.6105 234.668 18.3584 235.492 18.9173C236.316 19.4598 237.325 19.731 238.52 19.731C239.845 19.731 240.959 19.4022 241.864 18.7447C242.784 18.0708 243.342 17.1338 243.535 15.9338H247C246.838 17.2324 246.402 18.416 245.692 19.4844C244.997 20.5529 244.044 21.4076 242.833 22.0487C241.638 22.6733 240.2 22.9857 238.52 22.9857Z" fill="#EAF0FF"/>
<path d="M72.2178 44.302C71.3763 44.302 70.6282 44.1593 69.9736 43.8738C69.3284 43.5883 68.7814 43.1981 68.3325 42.7032C67.893 42.1989 67.5611 41.6231 67.3366 40.976C67.1122 40.3288 67 39.6389 67 38.9061V38.6492C67 37.983 67.1075 37.3359 67.3226 36.7078C67.547 36.0797 67.8696 35.5134 68.2904 35.0091C68.7206 34.5047 69.2442 34.105 69.8614 33.81C70.4786 33.5149 71.1892 33.3674 71.9934 33.3674C72.8257 33.3674 73.5644 33.5292 74.2096 33.8528C74.8548 34.1668 75.3738 34.6094 75.7665 35.1804C76.1593 35.7514 76.3931 36.4128 76.4679 37.1646H75.3878C75.313 36.5555 75.112 36.0416 74.7847 35.6229C74.4668 35.2041 74.0647 34.8901 73.5784 34.6807C73.0922 34.4714 72.5638 34.3667 71.9934 34.3667C71.1892 34.3667 70.4926 34.557 69.9035 34.9377C69.3237 35.3183 68.8749 35.8418 68.5569 36.5079C68.239 37.1741 68.08 37.9354 68.08 38.7919C68.08 39.696 68.2437 40.4906 68.571 41.1758C68.8982 41.8515 69.3705 42.3797 69.9876 42.7603C70.6048 43.141 71.3482 43.3313 72.2178 43.3313C72.8724 43.3313 73.4662 43.2219 73.9992 43.003C74.5416 42.7841 74.9904 42.4891 75.3457 42.118V40.0767H71.8391V39.1631H77.2674V40.0767H76.3556V42.4463C75.9161 43.0268 75.3457 43.4836 74.6444 43.8167C73.9431 44.1403 73.1342 44.302 72.2178 44.302Z" fill="#EAF0FF"/>
<path d="M82.486 44.302C81.8501 44.302 81.289 44.1926 80.8028 43.9737C80.3165 43.7453 79.9098 43.4455 79.5825 43.0744C79.2552 42.6937 79.0027 42.2702 78.8251 41.8039C78.6567 41.3376 78.5726 40.8618 78.5726 40.3764V40.1766C78.5726 39.6912 78.6614 39.2154 78.8391 38.7491C79.0168 38.2828 79.2739 37.864 79.6105 37.4929C79.9472 37.1122 80.354 36.8125 80.8308 36.5936C81.3171 36.3652 81.8688 36.251 82.486 36.251C83.1031 36.251 83.6548 36.3652 84.1411 36.5936C84.6273 36.8125 85.0388 37.1122 85.3754 37.4929C85.7121 37.864 85.9645 38.2828 86.1329 38.7491C86.3105 39.2154 86.3994 39.6912 86.3994 40.1766V40.3764C86.3994 40.8618 86.3152 41.3376 86.1469 41.8039C85.9786 42.2702 85.7261 42.6937 85.3895 43.0744C85.0622 43.4455 84.6554 43.7453 84.1691 43.9737C83.6829 44.1926 83.1218 44.302 82.486 44.302ZM82.486 43.3456C83.1031 43.3456 83.6221 43.2076 84.0429 42.9316C84.4731 42.6557 84.8003 42.2845 85.0248 41.8182C85.2492 41.3519 85.3614 40.838 85.3614 40.2765C85.3614 39.7055 85.2445 39.1916 85.0107 38.7348C84.777 38.2685 84.445 37.9021 84.0149 37.6356C83.5941 37.3597 83.0844 37.2217 82.486 37.2217C81.8969 37.2217 81.3872 37.3597 80.9571 37.6356C80.5269 37.9021 80.195 38.2685 79.9612 38.7348C79.7368 39.1916 79.6246 39.7055 79.6246 40.2765C79.6246 40.838 79.7368 41.3519 79.9612 41.8182C80.1856 42.2845 80.5082 42.6557 80.929 42.9316C81.3592 43.2076 81.8782 43.3456 82.486 43.3456Z" fill="#EAF0FF"/>
<path d="M88.6148 44.0594V34.5094H87.5347V33.6387H89.6667V44.0594H88.6148Z" fill="#EAF0FF"/>
<path d="M95.4374 44.302C94.7174 44.302 94.0815 44.126 93.5298 43.7739C92.9875 43.4122 92.562 42.9364 92.2534 42.3464C91.9542 41.7468 91.8046 41.0902 91.8046 40.3764V40.1766C91.8046 39.4914 91.9495 38.8538 92.2394 38.2637C92.5386 37.6642 92.9594 37.1788 93.5018 36.8077C94.0441 36.4366 94.68 36.251 95.4094 36.251C96.0265 36.251 96.5782 36.3937 97.0645 36.6792C97.5508 36.9552 97.9341 37.3549 98.2147 37.8783V33.6387H99.2666V44.0594H98.4251V42.3606C98.1632 43.0078 97.7658 43.4931 97.2328 43.8167C96.6998 44.1403 96.1013 44.302 95.4374 44.302ZM95.5777 43.3599C96.0826 43.3599 96.5362 43.2457 96.9383 43.0173C97.3497 42.7794 97.6723 42.4558 97.9061 42.0466C98.1399 41.6279 98.2568 41.1378 98.2568 40.5763V39.8911C98.2568 39.3582 98.1352 38.8918 97.8921 38.4921C97.6583 38.0829 97.3357 37.7641 96.9242 37.5357C96.5221 37.3073 96.0686 37.1931 95.5637 37.1931C95.0026 37.1931 94.521 37.3311 94.1189 37.6071C93.7169 37.8736 93.4036 38.2399 93.1792 38.7063C92.9641 39.1726 92.8566 39.696 92.8566 40.2765C92.8566 40.8761 92.9688 41.409 93.1932 41.8753C93.4176 42.3416 93.7309 42.708 94.133 42.9745C94.5444 43.2314 95.026 43.3599 95.5777 43.3599Z" fill="#EAF0FF"/>
<path d="M107.486 44.0594V34.6236H104.288V33.6387H111.75V34.6236H108.552V44.0594H107.486Z" fill="#EAF0FF"/>
<path d="M113.708 35.109C113.456 35.109 113.264 35.0424 113.133 34.9091C113.011 34.7664 112.951 34.5903 112.951 34.381C112.951 34.1621 113.011 33.986 113.133 33.8528C113.264 33.7196 113.456 33.6529 113.708 33.6529C113.961 33.6529 114.148 33.7196 114.269 33.8528C114.391 33.986 114.451 34.1621 114.451 34.381C114.451 34.5903 114.391 34.7664 114.269 34.9091C114.148 35.0424 113.961 35.109 113.708 35.109ZM113.484 44.0594V37.3644H112.291V36.5079H114.522V44.0594H113.484Z" fill="#EAF0FF"/>
<path d="M117.9 35.109C117.647 35.109 117.455 35.0424 117.325 34.9091C117.203 34.7664 117.142 34.5903 117.142 34.381C117.142 34.1621 117.203 33.986 117.325 33.8528C117.455 33.7196 117.647 33.6529 117.9 33.6529C118.152 33.6529 118.339 33.7196 118.461 33.8528C118.582 33.986 118.643 34.1621 118.643 34.381C118.643 34.5903 118.582 34.7664 118.461 34.9091C118.339 35.0424 118.152 35.109 117.9 35.109ZM117.675 44.0594V37.3644H116.483V36.5079H118.713V44.0594H117.675Z" fill="#EAF0FF"/>
<path d="M121.474 44.0594V36.4936H122.316V38.2352C122.474 37.6261 122.755 37.1503 123.157 36.8077C123.559 36.4556 124.092 36.2795 124.756 36.2795H124.798C125.453 36.2795 125.981 36.4508 126.383 36.7934C126.785 37.136 127.066 37.6166 127.225 38.2352C127.393 37.6261 127.678 37.1503 128.08 36.8077C128.492 36.4556 129.025 36.2795 129.679 36.2795H129.721C130.6 36.2795 131.255 36.5841 131.685 37.1931C132.125 37.8022 132.344 38.6301 132.344 39.677V44.0594H131.292V39.4343C131.292 38.7681 131.133 38.24 130.816 37.8498C130.498 37.4596 130.039 37.2645 129.441 37.2645C128.824 37.2645 128.333 37.4691 127.968 37.8783C127.613 38.2875 127.435 38.83 127.435 39.5057V44.0594H126.383V39.4343C126.383 38.7681 126.224 38.24 125.906 37.8498C125.588 37.4596 125.13 37.2645 124.532 37.2645C123.915 37.2645 123.424 37.4691 123.059 37.8783C122.704 38.2875 122.526 38.83 122.526 39.5057V44.0594H121.474Z" fill="#EAF0FF"/>
<path d="M138.066 44.302C137.421 44.302 136.864 44.1926 136.397 43.9737C135.939 43.7453 135.56 43.4455 135.261 43.0744C134.962 42.6937 134.737 42.2702 134.587 41.8039C134.447 41.3281 134.377 40.8475 134.377 40.3622V40.1623C134.377 39.677 134.452 39.2011 134.601 38.7348C134.751 38.2685 134.971 37.8498 135.261 37.4786C135.56 37.1075 135.934 36.8125 136.383 36.5936C136.841 36.3652 137.374 36.251 137.982 36.251C138.758 36.251 139.403 36.427 139.918 36.7791C140.441 37.1217 140.834 37.5738 141.096 38.1353C141.358 38.6872 141.488 39.2725 141.488 39.8911V40.4478H135.387C135.406 40.9902 135.513 41.4851 135.71 41.9324C135.906 42.3702 136.2 42.7175 136.593 42.9745C136.986 43.2314 137.477 43.3599 138.066 43.3599C138.711 43.3599 139.235 43.2124 139.637 42.9174C140.039 42.6224 140.287 42.2655 140.38 41.8467H141.362C141.213 42.5986 140.843 43.1981 140.254 43.6454C139.674 44.0832 138.945 44.302 138.066 44.302ZM137.982 37.1931C137.224 37.1931 136.631 37.4215 136.201 37.8783C135.78 38.3351 135.523 38.9156 135.429 39.6199H140.465C140.399 38.8966 140.156 38.3113 139.735 37.864C139.314 37.4168 138.73 37.1931 137.982 37.1931Z" fill="#EAF0FF"/>
<path d="M147.026 44.0594V33.6387H152.805V34.6236H148.092V38.278H152.482V39.2487H148.092V43.0744H152.959V44.0594H147.026Z" fill="#EAF0FF"/>
<path d="M156.839 44.0594L154.23 36.5079H155.31L157.597 43.1886H157.947L159.953 36.5079H160.991L158.691 44.0594H156.839Z" fill="#EAF0FF"/>
<path d="M165.831 44.302C165.186 44.302 164.63 44.1926 164.162 43.9737C163.704 43.7453 163.325 43.4455 163.026 43.0744C162.727 42.6937 162.502 42.2702 162.353 41.8039C162.212 41.3281 162.142 40.8475 162.142 40.3622V40.1623C162.142 39.677 162.217 39.2011 162.367 38.7348C162.516 38.2685 162.736 37.8498 163.026 37.4786C163.325 37.1075 163.699 36.8125 164.148 36.5936C164.606 36.3652 165.139 36.251 165.747 36.251C166.523 36.251 167.168 36.427 167.683 36.7791C168.206 37.1217 168.599 37.5738 168.861 38.1353C169.123 38.6872 169.254 39.2725 169.254 39.8911V40.4478H163.152C163.171 40.9902 163.278 41.4851 163.475 41.9324C163.671 42.3702 163.966 42.7175 164.358 42.9745C164.751 43.2314 165.242 43.3599 165.831 43.3599C166.476 43.3599 167 43.2124 167.402 42.9174C167.804 42.6224 168.052 42.2655 168.146 41.8467H169.127C168.978 42.5986 168.609 43.1981 168.019 43.6454C167.44 44.0832 166.71 44.302 165.831 44.302ZM165.747 37.1931C164.99 37.1931 164.396 37.4215 163.966 37.8783C163.545 38.3351 163.288 38.9156 163.194 39.6199H168.23C168.164 38.8966 167.921 38.3113 167.5 37.864C167.08 37.4168 166.495 37.1931 165.747 37.1931Z" fill="#EAF0FF"/>
<path d="M171.279 44.0594V36.5079H172.12V38.6206C172.382 37.1551 173.341 36.4223 174.996 36.4223H175.234V37.393H174.799C173.995 37.393 173.383 37.6071 172.962 38.0353C172.541 38.4636 172.331 39.0822 172.331 39.8911V44.0594H171.279Z" fill="#EAF0FF"/>
<path d="M176.523 47V46.0436H177.477C177.963 46.0436 178.347 45.9484 178.627 45.7581C178.917 45.5677 179.146 45.2061 179.315 44.6732L179.553 43.8738H178.81L176.117 36.5079H177.197L179.483 42.9745H179.834L181.811 36.5079H182.835L180.226 44.973C180.002 45.6962 179.651 46.2149 179.174 46.5289C178.707 46.843 178.122 47 177.421 47H176.523Z" fill="#EAF0FF"/>
<path d="M188.504 44.302C187.794 44.302 187.181 44.1307 186.667 43.7881C186.153 43.436 185.769 42.9554 185.517 42.3464V44.0594H184.675V33.6387H185.727V37.9782C185.998 37.4168 186.382 36.9885 186.877 36.6935C187.373 36.3985 187.939 36.251 188.575 36.251C189.304 36.251 189.935 36.4318 190.468 36.7934C191.001 37.1551 191.413 37.6356 191.702 38.2352C191.992 38.8252 192.137 39.4676 192.137 40.1623V40.3622C192.137 41.0474 191.988 41.6897 191.688 42.2893C191.398 42.8888 190.982 43.3742 190.44 43.7453C189.898 44.1165 189.252 44.302 188.504 44.302ZM188.392 43.3599C188.944 43.3599 189.421 43.2219 189.823 42.9459C190.234 42.6699 190.548 42.2988 190.763 41.8325C190.978 41.3662 191.085 40.8427 191.085 40.2622C191.085 39.6722 190.973 39.1488 190.749 38.692C190.534 38.2257 190.22 37.8593 189.809 37.5928C189.407 37.3264 188.935 37.1931 188.392 37.1931C187.878 37.1931 187.415 37.3121 187.004 37.55C186.601 37.7784 186.279 38.102 186.036 38.5207C185.802 38.9299 185.685 39.4105 185.685 39.9625V40.6619C185.685 41.1949 185.802 41.6659 186.036 42.0751C186.279 42.4748 186.601 42.7889 187.004 43.0173C187.415 43.2457 187.878 43.3599 188.392 43.3599Z" fill="#EAF0FF"/>
<path d="M197.588 44.302C196.952 44.302 196.391 44.1926 195.905 43.9737C195.418 43.7453 195.012 43.4455 194.684 43.0744C194.357 42.6937 194.105 42.2702 193.927 41.8039C193.759 41.3376 193.674 40.8618 193.674 40.3764V40.1766C193.674 39.6912 193.763 39.2154 193.941 38.7491C194.119 38.2828 194.376 37.864 194.712 37.4929C195.049 37.1122 195.456 36.8125 195.933 36.5936C196.419 36.3652 196.971 36.251 197.588 36.251C198.205 36.251 198.757 36.3652 199.243 36.5936C199.729 36.8125 200.141 37.1122 200.477 37.4929C200.814 37.864 201.066 38.2828 201.235 38.7491C201.412 39.2154 201.501 39.6912 201.501 40.1766V40.3764C201.501 40.8618 201.417 41.3376 201.249 41.8039C201.08 42.2702 200.828 42.6937 200.491 43.0744C200.164 43.4455 199.757 43.7453 199.271 43.9737C198.785 44.1926 198.224 44.302 197.588 44.302ZM197.588 43.3456C198.205 43.3456 198.724 43.2076 199.145 42.9316C199.575 42.6557 199.902 42.2845 200.127 41.8182C200.351 41.3519 200.463 40.838 200.463 40.2765C200.463 39.7055 200.346 39.1916 200.113 38.7348C199.879 38.2685 199.547 37.9021 199.117 37.6356C198.696 37.3597 198.186 37.2217 197.588 37.2217C196.999 37.2217 196.489 37.3597 196.059 37.6356C195.629 37.9021 195.297 38.2685 195.063 38.7348C194.839 39.1916 194.726 39.7055 194.726 40.2765C194.726 40.838 194.839 41.3519 195.063 41.8182C195.287 42.2845 195.61 42.6557 196.031 42.9316C196.461 43.2076 196.98 43.3456 197.588 43.3456Z" fill="#EAF0FF"/>
<path d="M206.69 44.302C205.97 44.302 205.334 44.126 204.783 43.7739C204.24 43.4122 203.815 42.9364 203.506 42.3464C203.207 41.7468 203.057 41.0902 203.057 40.3764V40.1766C203.057 39.4914 203.202 38.8538 203.492 38.2637C203.791 37.6642 204.212 37.1788 204.755 36.8077C205.297 36.4366 205.933 36.251 206.662 36.251C207.279 36.251 207.831 36.3937 208.317 36.6792C208.804 36.9552 209.187 37.3549 209.467 37.8783V33.6387H210.519V44.0594H209.678V42.3606C209.416 43.0078 209.019 43.4931 208.486 43.8167C207.953 44.1403 207.354 44.302 206.69 44.302ZM206.83 43.3599C207.335 43.3599 207.789 43.2457 208.191 43.0173C208.602 42.7794 208.925 42.4558 209.159 42.0466C209.393 41.6279 209.51 41.1378 209.51 40.5763V39.8911C209.51 39.3582 209.388 38.8918 209.145 38.4921C208.911 38.0829 208.588 37.7641 208.177 37.5357C207.775 37.3073 207.321 37.1931 206.816 37.1931C206.255 37.1931 205.774 37.3311 205.372 37.6071C204.97 37.8736 204.656 38.2399 204.432 38.7063C204.217 39.1726 204.109 39.696 204.109 40.2765C204.109 40.8761 204.222 41.409 204.446 41.8753C204.67 42.3416 204.984 42.708 205.386 42.9745C205.797 43.2314 206.279 43.3599 206.83 43.3599Z" fill="#EAF0FF"/>
<path d="M212.576 47V46.0436H213.529C214.016 46.0436 214.399 45.9484 214.68 45.7581C214.969 45.5677 215.199 45.2061 215.367 44.6732L215.605 43.8738H214.862L212.169 36.5079H213.249L215.535 42.9745H215.886L217.864 36.5079H218.888L216.279 44.973C216.054 45.6962 215.704 46.2149 215.227 46.5289C214.759 46.843 214.175 47 213.473 47H212.576Z" fill="#EAF0FF"/>
</svg>
