<svg width="166" height="401" viewBox="0 0 166 401" fill="none" xmlns="http://www.w3.org/2000/svg">
<g opacity="0.2">
<path d="M165.12 315.009C165.641 313.446 164.154 311.958 162.59 312.479L161.442 312.862C160.032 313.332 159.609 315.122 160.661 316.174L161.426 316.939C162.477 317.99 164.267 317.568 164.737 316.157L165.12 315.009Z" fill="white"/>
<path d="M121.221 358.908C121.742 357.345 120.255 355.857 118.691 356.379L115.698 357.376C114.287 357.846 113.865 359.637 114.916 360.688L116.912 362.683C117.963 363.735 119.753 363.312 120.223 361.902L121.221 358.908Z" fill="white"/>
<path d="M76.7067 403.423C77.2278 401.859 75.7404 400.372 74.1768 400.893L71.1837 401.891C69.7732 402.361 69.3507 404.151 70.402 405.202L72.3974 407.198C73.4487 408.249 75.2388 407.826 75.709 406.416L76.7067 403.423Z" fill="white"/>
<path d="M31.5773 448.552C32.0985 446.988 30.611 445.501 29.0475 446.022L27.8997 446.405C26.4892 446.875 26.0666 448.665 27.1179 449.716L27.8832 450.482C28.9345 451.533 30.7246 451.11 31.1947 449.7L31.5773 448.552Z" fill="white"/>
<path d="M165.735 225.366C166.256 223.802 164.769 222.315 163.205 222.836L160.212 223.834C158.802 224.304 158.379 226.094 159.43 227.145L161.426 229.141C162.477 230.192 164.267 229.769 164.737 228.359L165.735 225.366Z" fill="white"/>
<path d="M122.451 268.65C122.972 267.086 121.485 265.599 119.921 266.12L113.238 268.348C111.827 268.818 111.404 270.608 112.456 271.659L116.912 276.115C117.963 277.167 119.753 276.744 120.223 275.334L122.451 268.65Z" fill="white"/>
<path d="M79.1833 311.918C79.7045 310.354 78.217 308.867 76.6535 309.388L66.2305 312.862C64.82 313.332 64.3974 315.122 65.4487 316.174L72.3974 323.122C73.4487 324.174 75.2388 323.751 75.709 322.341L79.1833 311.918Z" fill="white"/>
<path d="M34.6691 356.432C35.1902 354.868 33.7028 353.381 32.1393 353.902L21.7163 357.376C20.3058 357.846 19.8832 359.637 20.9345 360.688L27.8832 367.637C28.9345 368.688 30.7246 368.265 31.1947 366.855L34.6691 356.432Z" fill="white"/>
<path d="M-11.0916 402.192C-10.5704 400.629 -12.0578 399.141 -13.6214 399.663L-20.3051 401.891C-21.7156 402.361 -22.1382 404.151 -21.0869 405.202L-16.631 409.658C-15.5797 410.709 -13.7896 410.287 -13.3195 408.876L-11.0916 402.192Z" fill="white"/>
<path d="M-56.836 447.937C-56.3148 446.373 -57.8023 444.886 -59.3658 445.407L-62.3589 446.405C-63.7694 446.875 -64.192 448.665 -63.1407 449.716L-61.1452 451.712C-60.0939 452.763 -58.3038 452.34 -57.8337 450.93L-56.836 447.937Z" fill="white"/>
<path d="M165.12 136.952C165.641 135.389 164.154 133.901 162.59 134.423L161.442 134.805C160.032 135.275 159.609 137.066 160.661 138.117L161.426 138.882C162.477 139.933 164.267 139.511 164.737 138.1L165.12 136.952Z" fill="white"/>
<path d="M122.451 179.621C122.972 178.058 121.485 176.57 119.921 177.092L113.238 179.319C111.827 179.79 111.404 181.58 112.456 182.631L116.912 187.087C117.963 188.138 119.753 187.716 120.223 186.305L122.451 179.621Z" fill="white"/>
<path d="M79.7984 222.274C80.3196 220.711 78.8321 219.223 77.2686 219.744L65.0003 223.834C63.5898 224.304 63.1672 226.094 64.2185 227.145L72.3974 235.324C73.4487 236.375 75.2388 235.953 75.709 234.542L79.7984 222.274Z" fill="white"/>
<path d="M37.1295 264.943C37.6507 263.379 36.1632 261.892 34.5997 262.413L16.7955 268.348C15.385 268.818 14.9624 270.608 16.0137 271.659L27.8832 283.529C28.9345 284.58 30.7246 284.158 31.1948 282.747L37.1295 264.943Z" fill="white"/>
<path d="M-7.3847 309.457C-6.86354 307.894 -8.35101 306.406 -9.91452 306.927L-27.7188 312.862C-29.1292 313.332 -29.5518 315.122 -28.5005 316.174L-16.631 328.043C-15.5797 329.094 -13.7896 328.672 -13.3194 327.261L-7.3847 309.457Z" fill="white"/>
<path d="M-53.7442 355.817C-53.2231 354.253 -54.7105 352.766 -56.2741 353.287L-68.5423 357.376C-69.9528 357.846 -70.3754 359.637 -69.3241 360.688L-61.1452 368.867C-60.0939 369.918 -58.3038 369.495 -57.8337 368.085L-53.7442 355.817Z" fill="white"/>
<path d="M-100.12 402.192C-99.5988 400.629 -101.086 399.141 -102.65 399.663L-109.334 401.891C-110.744 402.361 -111.167 404.151 -110.115 405.202L-105.659 409.658C-104.608 410.709 -102.818 410.287 -102.348 408.876L-100.12 402.192Z" fill="white"/>
<path d="M-146.479 448.552C-145.958 446.988 -147.446 445.501 -149.009 446.022L-150.157 446.405C-151.568 446.875 -151.99 448.665 -150.939 449.716L-150.174 450.482C-149.122 451.533 -147.332 451.11 -146.862 449.7L-146.479 448.552Z" fill="white"/>
<path d="M121.221 91.8232C121.742 90.2596 120.255 88.7722 118.691 89.2933L115.698 90.291C114.287 90.7612 113.865 92.5513 114.916 93.6026L116.912 95.598C117.963 96.6493 119.753 96.2268 120.223 94.8163L121.221 91.8232Z" fill="white"/>
<path d="M79.1833 133.861C79.7045 132.297 78.217 130.81 76.6535 131.331L66.2305 134.805C64.82 135.275 64.3974 137.066 65.4487 138.117L72.3974 145.065C73.4487 146.117 75.2388 145.694 75.709 144.284L79.1833 133.861Z" fill="white"/>
<path d="M37.1295 175.915C37.6507 174.351 36.1632 172.864 34.5997 173.385L16.7955 179.319C15.385 179.79 14.9624 181.58 16.0137 182.631L27.8832 194.501C28.9345 195.552 30.7246 195.129 31.1948 193.719L37.1295 175.915Z" fill="white"/>
<path d="M-4.90811 217.952C-4.38693 216.389 -5.8744 214.901 -7.43793 215.422L-32.672 223.834C-34.0824 224.304 -34.505 226.094 -33.4537 227.145L-16.631 243.968C-15.5797 245.019 -13.7896 244.597 -13.3195 243.186L-4.90811 217.952Z" fill="white"/>
<path d="M-49.4223 262.466C-48.9012 260.903 -50.3886 259.415 -51.9521 259.937L-77.1862 268.348C-78.5967 268.818 -79.0193 270.608 -77.968 271.659L-61.1452 288.482C-60.0939 289.533 -58.3038 289.111 -57.8337 287.7L-49.4223 262.466Z" fill="white"/>
<path d="M-96.4131 309.457C-95.892 307.894 -97.3794 306.406 -98.943 306.927L-116.747 312.862C-118.158 313.332 -118.58 315.122 -117.529 316.174L-105.659 328.043C-104.608 329.094 -102.818 328.672 -102.348 327.261L-96.4131 309.457Z" fill="white"/>
<path d="M-143.388 356.432C-142.867 354.868 -144.354 353.381 -145.918 353.902L-156.341 357.376C-157.751 357.846 -158.174 359.637 -157.122 360.688L-150.174 367.637C-149.122 368.688 -147.332 368.265 -146.862 366.855L-143.388 356.432Z" fill="white"/>
<path d="M-190.379 403.423C-189.857 401.859 -191.345 400.372 -192.908 400.893L-195.902 401.891C-197.312 402.361 -197.735 404.151 -196.683 405.202L-194.688 407.198C-193.637 408.249 -191.846 407.826 -191.376 406.416L-190.379 403.423Z" fill="white"/>
<path d="M76.7067 47.3089C77.2278 45.7454 75.7404 44.2579 74.1768 44.7791L71.1837 45.7768C69.7732 46.247 69.3507 48.0371 70.402 49.0884L72.3974 51.0838C73.4487 52.1351 75.2388 51.7125 75.709 50.3021L76.7067 47.3089Z" fill="white"/>
<path d="M34.6691 89.3465C35.1902 87.783 33.7028 86.2955 32.1392 86.8167L21.7163 90.291C20.3058 90.7612 19.8832 92.5513 20.9345 93.6026L27.8832 100.551C28.9345 101.603 30.7246 101.18 31.1947 99.7695L34.6691 89.3465Z" fill="white"/>
<path d="M-7.3847 131.4C-6.86354 129.837 -8.35101 128.349 -9.91452 128.871L-27.7188 134.805C-29.1292 135.275 -29.5518 137.066 -28.5005 138.117L-16.631 149.986C-15.5797 151.038 -13.7896 150.615 -13.3194 149.205L-7.3847 131.4Z" fill="white"/>
<path d="M-49.4223 173.438C-48.9012 171.874 -50.3886 170.387 -51.9521 170.908L-77.1862 179.319C-78.5967 179.79 -79.0193 181.58 -77.968 182.631L-61.1452 199.454C-60.0939 200.505 -58.3038 200.082 -57.8337 198.672L-49.4223 173.438Z" fill="white"/>
<path d="M-93.9365 217.952C-93.4153 216.389 -94.9028 214.901 -96.4663 215.422L-121.7 223.834C-123.111 224.304 -123.533 226.094 -122.482 227.145L-105.659 243.968C-104.608 245.019 -102.818 244.597 -102.348 243.186L-93.9365 217.952Z" fill="white"/>
<path d="M-140.927 264.943C-140.406 263.379 -141.894 261.892 -143.457 262.413L-161.261 268.348C-162.672 268.818 -163.094 270.608 -162.043 271.659L-150.174 283.529C-149.122 284.58 -147.332 284.158 -146.862 282.747L-140.927 264.943Z" fill="white"/>
<path d="M-187.902 311.918C-187.381 310.354 -188.868 308.867 -190.432 309.388L-200.855 312.862C-202.265 313.332 -202.688 315.122 -201.637 316.174L-194.688 323.122C-193.637 324.174 -191.846 323.751 -191.376 322.341L-187.902 311.918Z" fill="white"/>
<path d="M-234.893 358.908C-234.372 357.345 -235.859 355.857 -237.423 356.379L-240.416 357.376C-241.826 357.846 -242.249 359.637 -241.198 360.688L-239.202 362.683C-238.151 363.735 -236.361 363.312 -235.891 361.902L-234.893 358.908Z" fill="white"/>
<path d="M31.5773 3.40983C32.0985 1.84631 30.611 0.358836 29.0475 0.880008L27.8997 1.26262C26.4892 1.73277 26.0666 3.5229 27.1179 4.5742L27.8832 5.33941C28.9345 6.39071 30.7246 5.96812 31.1947 4.55765L31.5773 3.40983Z" fill="white"/>
<path d="M-11.0916 46.0787C-10.5704 44.5152 -12.0579 43.0277 -13.6214 43.5489L-20.3051 45.7768C-21.7156 46.247 -22.1382 48.0371 -21.0869 49.0884L-16.631 53.5442C-15.5797 54.5955 -13.7896 54.173 -13.3195 52.7625L-11.0916 46.0787Z" fill="white"/>
<path d="M-53.7442 88.7314C-53.2231 87.1679 -54.7105 85.6804 -56.2741 86.2016L-68.5423 90.291C-69.9528 90.7612 -70.3754 92.5513 -69.3241 93.6026L-61.1452 101.781C-60.0939 102.833 -58.3038 102.41 -57.8337 101L-53.7442 88.7314Z" fill="white"/>
<path d="M-96.4131 131.4C-95.892 129.837 -97.3794 128.349 -98.943 128.871L-116.747 134.805C-118.158 135.275 -118.58 137.066 -117.529 138.117L-105.659 149.986C-104.608 151.038 -102.818 150.615 -102.348 149.205L-96.4131 131.4Z" fill="white"/>
<path d="M-140.927 175.915C-140.406 174.351 -141.894 172.864 -143.457 173.385L-161.261 179.319C-162.672 179.79 -163.094 181.58 -162.043 182.631L-150.174 194.501C-149.122 195.552 -147.332 195.129 -146.862 193.719L-140.927 175.915Z" fill="white"/>
<path d="M-187.287 222.274C-186.766 220.711 -188.253 219.223 -189.817 219.744L-202.085 223.834C-203.495 224.304 -203.918 226.094 -202.867 227.145L-194.688 235.324C-193.637 236.375 -191.846 235.953 -191.376 234.542L-187.287 222.274Z" fill="white"/>
<path d="M-233.663 268.65C-233.141 267.086 -234.629 265.599 -236.192 266.12L-242.876 268.348C-244.287 268.818 -244.709 270.608 -243.658 271.659L-239.202 276.115C-238.151 277.167 -236.361 276.744 -235.891 275.334L-233.663 268.65Z" fill="white"/>
<path d="M-280.022 315.009C-279.501 313.446 -280.988 311.958 -282.552 312.479L-283.7 312.862C-285.11 313.332 -285.533 315.122 -284.482 316.174L-283.716 316.939C-282.665 317.99 -280.875 317.568 -280.405 316.157L-280.022 315.009Z" fill="white"/>
<path d="M-56.836 2.79473C-56.3148 1.23121 -57.8023 -0.256262 -59.3658 0.26491L-62.3589 1.26262C-63.7694 1.73278 -64.192 3.5229 -63.1407 4.5742L-61.1452 6.56963C-60.0939 7.62093 -58.3038 7.19834 -57.8337 5.78787L-56.836 2.79473Z" fill="white"/>
<path d="M-100.12 46.0787C-99.5988 44.5152 -101.086 43.0277 -102.65 43.5489L-109.334 45.7768C-110.744 46.247 -111.167 48.0371 -110.115 49.0884L-105.659 53.5442C-104.608 54.5955 -102.818 54.173 -102.348 52.7625L-100.12 46.0787Z" fill="white"/>
<path d="M-143.388 89.3465C-142.867 87.783 -144.354 86.2955 -145.918 86.8167L-156.341 90.291C-157.751 90.7612 -158.174 92.5513 -157.122 93.6026L-150.174 100.551C-149.122 101.603 -147.332 101.18 -146.862 99.7695L-143.388 89.3465Z" fill="white"/>
<path d="M-187.902 133.861C-187.381 132.297 -188.868 130.81 -190.432 131.331L-200.855 134.805C-202.265 135.275 -202.688 137.066 -201.637 138.117L-194.688 145.065C-193.637 146.117 -191.846 145.694 -191.376 144.284L-187.902 133.861Z" fill="white"/>
<path d="M-233.663 179.621C-233.141 178.058 -234.629 176.57 -236.192 177.092L-242.876 179.319C-244.287 179.79 -244.709 181.58 -243.658 182.631L-239.202 187.087C-238.151 188.138 -236.361 187.716 -235.891 186.305L-233.663 179.621Z" fill="white"/>
<path d="M-279.407 225.366C-278.886 223.802 -280.373 222.315 -281.937 222.836L-284.93 223.834C-286.34 224.304 -286.763 226.094 -285.712 227.145L-283.716 229.141C-282.665 230.192 -280.875 229.769 -280.405 228.359L-279.407 225.366Z" fill="white"/>
<path d="M-146.479 3.40983C-145.958 1.84631 -147.446 0.358833 -149.009 0.880005L-150.157 1.26261C-151.568 1.73277 -151.99 3.52289 -150.939 4.57419L-150.174 5.33941C-149.122 6.39071 -147.332 5.96812 -146.862 4.55765L-146.479 3.40983Z" fill="white"/>
<path d="M-190.379 47.3089C-189.857 45.7454 -191.345 44.2579 -192.908 44.7791L-195.902 45.7768C-197.312 46.247 -197.735 48.0371 -196.683 49.0884L-194.688 51.0838C-193.637 52.1351 -191.846 51.7125 -191.376 50.3021L-190.379 47.3089Z" fill="white"/>
<path d="M-234.893 91.8232C-234.372 90.2596 -235.859 88.7722 -237.423 89.2933L-240.416 90.291C-241.826 90.7612 -242.249 92.5513 -241.198 93.6026L-239.202 95.598C-238.151 96.6493 -236.361 96.2268 -235.891 94.8163L-234.893 91.8232Z" fill="white"/>
<path d="M-280.022 136.952C-279.501 135.389 -280.988 133.901 -282.552 134.423L-283.7 134.805C-285.11 135.275 -285.533 137.066 -284.482 138.117L-283.716 138.882C-282.665 139.933 -280.875 139.511 -280.405 138.1L-280.022 136.952Z" fill="white"/>
</g>
</svg>
