<svg width="557" height="736" viewBox="0 0 557 736" fill="none" xmlns="http://www.w3.org/2000/svg">
<g clip-path="url(#clip0_2_640)">
<rect x="98" y="302" width="459" height="738" rx="24" fill="url(#paint0_linear_2_640)"/>
<path opacity="0.4" d="M704 405.5C704 490.276 635.276 559 550.5 559C465.724 559 397 490.276 397 405.5C397 320.724 465.724 252 550.5 252C635.276 252 704 320.724 704 405.5ZM443.05 405.5C443.05 464.843 491.157 512.95 550.5 512.95C609.843 512.95 657.95 464.843 657.95 405.5C657.95 346.157 609.843 298.05 550.5 298.05C491.157 298.05 443.05 346.157 443.05 405.5Z" fill="#F4F6FA"/>
</g>
<g opacity="0.4">
<path d="M537.696 531.472C538.217 529.908 536.729 528.421 535.166 528.942L528.488 531.168C527.078 531.638 526.655 533.428 527.707 534.479L532.158 538.931C533.209 539.982 535 539.56 535.47 538.149L537.696 531.472Z" fill="#CDDDF1"/>
<path d="M463.501 605.666C464.022 604.102 462.535 602.615 460.971 603.136L451.175 606.402C449.765 606.872 449.342 608.662 450.393 609.713L456.924 616.244C457.976 617.295 459.766 616.873 460.236 615.462L463.501 605.666Z" fill="#CDDDF1"/>
<path d="M388.267 680.9C388.788 679.336 387.301 677.849 385.737 678.37L375.941 681.635C374.531 682.106 374.108 683.896 375.16 684.947L381.69 691.478C382.742 692.529 384.532 692.107 385.002 690.696L388.267 680.9Z" fill="#CDDDF1"/>
<path d="M311.994 757.173C312.515 755.61 311.027 754.122 309.464 754.644L302.787 756.869C301.376 757.339 300.954 759.13 302.005 760.181L306.456 764.633C307.508 765.684 309.298 765.261 309.768 763.851L311.994 757.173Z" fill="#CDDDF1"/>
<path d="M538.735 379.964C539.256 378.401 537.769 376.913 536.205 377.434L526.409 380.7C524.999 381.17 524.576 382.96 525.627 384.011L532.158 390.542C533.209 391.593 535 391.171 535.47 389.76L538.735 379.964Z" fill="#CDDDF1"/>
<path d="M465.58 453.119C466.102 451.555 464.614 450.068 463.051 450.589L447.017 455.934C445.606 456.404 445.184 458.194 446.235 459.245L456.924 469.934C457.976 470.986 459.766 470.563 460.236 469.153L465.58 453.119Z" fill="#CDDDF1"/>
<path d="M392.453 526.246C392.974 524.683 391.487 523.195 389.923 523.717L367.57 531.168C366.159 531.638 365.737 533.428 366.788 534.479L381.69 549.381C382.742 550.433 384.532 550.01 385.002 548.6L392.453 526.246Z" fill="#CDDDF1"/>
<path d="M317.219 601.48C317.74 599.917 316.253 598.429 314.689 598.95L292.336 606.402C290.925 606.872 290.503 608.662 291.554 609.713L306.456 624.615C307.508 625.667 309.298 625.244 309.768 623.834L317.219 601.48Z" fill="#CDDDF1"/>
<path d="M239.879 678.821C240.4 677.257 238.912 675.77 237.349 676.291L221.315 681.635C219.905 682.106 219.482 683.896 220.533 684.947L231.223 695.636C232.274 696.688 234.064 696.265 234.534 694.854L239.879 678.821Z" fill="#CDDDF1"/>
<path d="M162.566 756.134C163.087 754.57 161.599 753.083 160.036 753.604L150.24 756.869C148.829 757.339 148.407 759.13 149.458 760.181L155.989 766.712C157.04 767.763 158.83 767.34 159.3 765.93L162.566 756.134Z" fill="#CDDDF1"/>
<path d="M537.695 230.536C538.217 228.973 536.729 227.485 535.166 228.006L528.488 230.232C527.078 230.702 526.655 232.492 527.707 233.544L532.158 237.995C533.209 239.046 535 238.624 535.47 237.213L537.695 230.536Z" fill="#CDDDF1"/>
<path d="M465.58 302.651C466.102 301.088 464.614 299.6 463.051 300.121L447.017 305.466C445.606 305.936 445.184 307.726 446.235 308.777L456.924 319.467C457.976 320.518 459.766 320.095 460.236 318.685L465.58 302.651Z" fill="#CDDDF1"/>
<path d="M393.493 374.739C394.014 373.175 392.526 371.688 390.963 372.209L365.491 380.7C364.08 381.17 363.658 382.96 364.709 384.011L381.69 400.993C382.742 402.044 384.532 401.622 385.002 400.211L393.493 374.739Z" fill="#CDDDF1"/>
<path d="M321.378 446.854C321.899 445.291 320.411 443.803 318.848 444.324L284.019 455.934C282.609 456.404 282.186 458.194 283.237 459.245L306.456 482.464C307.508 483.516 309.298 483.093 309.768 481.683L321.378 446.854Z" fill="#CDDDF1"/>
<path d="M246.144 522.088C246.665 520.524 245.177 519.037 243.614 519.558L208.785 531.168C207.375 531.638 206.952 533.428 208.003 534.479L231.223 557.698C232.274 558.75 234.064 558.327 234.534 556.917L246.144 522.088Z" fill="#CDDDF1"/>
<path d="M167.791 600.441C168.312 598.877 166.825 597.39 165.261 597.911L139.789 606.402C138.378 606.872 137.956 608.662 139.007 609.713L155.989 626.695C157.04 627.746 158.83 627.323 159.3 625.913L167.791 600.441Z" fill="#CDDDF1"/>
<path d="M89.4108 678.821C89.932 677.257 88.4445 675.77 86.881 676.291L70.8473 681.635C69.4368 682.106 69.0142 683.896 70.0655 684.947L80.7547 695.636C81.806 696.688 83.5961 696.265 84.0663 694.854L89.4108 678.821Z" fill="#CDDDF1"/>
<path d="M11.0582 757.173C11.5793 755.61 10.0919 754.122 8.52832 754.644L1.85095 756.869C0.440491 757.34 0.0178833 759.13 1.06915 760.181L5.52075 764.633C6.57208 765.684 8.36218 765.261 8.83234 763.851L11.0582 757.173Z" fill="#CDDDF1"/>
<path d="M463.501 154.263C464.022 152.699 462.535 151.212 460.971 151.733L451.175 154.998C449.765 155.468 449.342 157.258 450.393 158.31L456.924 164.84C457.976 165.892 459.766 165.469 460.236 164.059L463.501 154.263Z" fill="#CDDDF1"/>
<path d="M392.453 225.311C392.974 223.747 391.487 222.26 389.923 222.781L367.57 230.232C366.159 230.702 365.737 232.492 366.788 233.544L381.69 248.446C382.742 249.497 384.532 249.075 385.002 247.664L392.453 225.311Z" fill="#CDDDF1"/>
<path d="M321.378 296.386C321.899 294.823 320.411 293.335 318.848 293.856L284.019 305.466C282.609 305.936 282.186 307.726 283.237 308.777L306.456 331.997C307.508 333.048 309.298 332.625 309.768 331.215L321.378 296.386Z" fill="#CDDDF1"/>
<path d="M250.329 367.434C250.851 365.871 249.363 364.383 247.8 364.905L200.414 380.7C199.003 381.17 198.581 382.96 199.632 384.011L231.223 415.602C232.274 416.653 234.064 416.231 234.534 414.82L250.329 367.434Z" fill="#CDDDF1"/>
<path d="M175.095 442.668C175.617 441.105 174.129 439.617 172.566 440.138L125.18 455.934C123.769 456.404 123.347 458.194 124.398 459.245L155.989 490.836C157.04 491.887 158.83 491.465 159.3 490.054L175.095 442.668Z" fill="#CDDDF1"/>
<path d="M95.6758 522.088C96.197 520.524 94.7095 519.037 93.146 519.558L58.3174 531.168C56.907 531.638 56.4844 533.428 57.5357 534.479L80.7547 557.698C81.806 558.75 83.5961 558.327 84.0663 556.917L95.6758 522.088Z" fill="#CDDDF1"/>
<path d="M16.2834 601.48C16.8046 599.917 15.3171 598.429 13.7537 598.95L-8.59973 606.402C-10.0102 606.872 -10.4327 608.662 -9.38147 609.713L5.52075 624.615C6.57208 625.667 8.36218 625.244 8.83234 623.834L16.2834 601.48Z" fill="#CDDDF1"/>
<path d="M-63.1362 680.9C-62.615 679.336 -64.1025 677.849 -65.666 678.37L-75.4622 681.635C-76.8726 682.106 -77.2952 683.896 -76.2439 684.947L-69.7131 691.478C-68.6619 692.529 -66.8717 692.107 -66.4016 690.696L-63.1362 680.9Z" fill="#CDDDF1"/>
<path d="M388.267 79.0286C388.788 77.4651 387.301 75.9776 385.737 76.4988L375.941 79.7642C374.531 80.2344 374.108 82.0245 375.16 83.0758L381.69 89.6066C382.742 90.6579 384.532 90.2353 385.002 88.8248L388.267 79.0286Z" fill="#CDDDF1"/>
<path d="M317.219 150.077C317.74 148.513 316.253 147.026 314.689 147.547L292.336 154.998C290.925 155.468 290.503 157.258 291.554 158.31L306.456 173.212C307.508 174.263 309.298 173.841 309.768 172.43L317.219 150.077Z" fill="#CDDDF1"/>
<path d="M246.144 221.152C246.665 219.589 245.177 218.101 243.614 218.623L208.785 230.232C207.375 230.702 206.952 232.492 208.003 233.544L231.223 256.763C232.274 257.814 234.064 257.391 234.534 255.981L246.144 221.152Z" fill="#CDDDF1"/>
<path d="M175.095 292.201C175.617 290.637 174.129 289.15 172.566 289.671L125.18 305.466C123.769 305.936 123.347 307.726 124.398 308.777L155.989 340.368C157.04 341.419 158.83 340.997 159.3 339.586L175.095 292.201Z" fill="#CDDDF1"/>
<path d="M99.8615 367.434C100.383 365.871 98.8952 364.383 97.3317 364.905L49.946 380.7C48.5355 381.17 48.1129 382.96 49.1642 384.011L80.7547 415.602C81.806 416.653 83.5961 416.231 84.0663 414.82L99.8615 367.434Z" fill="#CDDDF1"/>
<path d="M20.4419 446.854C20.9631 445.291 19.4756 443.803 17.9121 444.324L-16.9164 455.934C-18.3269 456.404 -18.7495 458.194 -17.6982 459.245L5.52081 482.464C6.57214 483.516 8.36224 483.093 8.8324 481.683L20.4419 446.854Z" fill="#CDDDF1"/>
<path d="M-58.9504 526.246C-58.4293 524.683 -59.9167 523.195 -61.4802 523.717L-83.8337 531.168C-85.2441 531.638 -85.6667 533.428 -84.6154 534.479L-69.7131 549.381C-68.6618 550.433 -66.8717 550.01 -66.4016 548.6L-58.9504 526.246Z" fill="#CDDDF1"/>
<path d="M-138.37 605.666C-137.849 604.102 -139.336 602.615 -140.9 603.136L-150.696 606.402C-152.107 606.872 -152.529 608.662 -151.478 609.713L-144.947 616.244C-143.896 617.295 -142.106 616.873 -141.635 615.462L-138.37 605.666Z" fill="#CDDDF1"/>
<path d="M311.994 4.83432C312.515 3.2708 311.027 1.78332 309.464 2.30449L302.787 4.53028C301.376 5.00044 300.954 6.79056 302.005 7.84186L306.456 12.2934C307.508 13.3447 309.298 12.9222 309.768 11.5117L311.994 4.83432Z" fill="#CDDDF1"/>
<path d="M239.879 76.9494C240.4 75.3859 238.912 73.8984 237.349 74.4196L221.315 79.7642C219.905 80.2343 219.482 82.0245 220.533 83.0758L231.223 93.7649C232.274 94.8162 234.064 94.3936 234.534 92.9832L239.879 76.9494Z" fill="#CDDDF1"/>
<path d="M167.791 149.037C168.312 147.474 166.825 145.986 165.261 146.507L139.789 154.998C138.378 155.468 137.956 157.258 139.007 158.31L155.989 175.291C157.04 176.342 158.83 175.92 159.3 174.509L167.791 149.037Z" fill="#CDDDF1"/>
<path d="M95.6758 221.152C96.197 219.589 94.7095 218.101 93.146 218.623L58.3174 230.232C56.907 230.702 56.4844 232.492 57.5357 233.544L80.7547 256.763C81.806 257.814 83.5961 257.391 84.0663 255.981L95.6758 221.152Z" fill="#CDDDF1"/>
<path d="M20.4419 296.386C20.9631 294.823 19.4756 293.335 17.9121 293.856L-16.9164 305.466C-18.3269 305.936 -18.7495 307.726 -17.6982 308.777L5.52081 331.997C6.57214 333.048 8.36224 332.625 8.8324 331.215L20.4419 296.386Z" fill="#CDDDF1"/>
<path d="M-57.9108 374.739C-57.3896 373.175 -58.8771 371.688 -60.4406 372.209L-85.9128 380.7C-87.3232 381.17 -87.7458 382.96 -86.6945 384.011L-69.7131 400.993C-68.6618 402.044 -66.8716 401.622 -66.4015 400.211L-57.9108 374.739Z" fill="#CDDDF1"/>
<path d="M-136.291 453.119C-135.77 451.555 -137.257 450.068 -138.821 450.589L-154.854 455.934C-156.265 456.404 -156.688 458.194 -155.636 459.245L-144.947 469.934C-143.896 470.986 -142.106 470.563 -141.635 469.153L-136.291 453.119Z" fill="#CDDDF1"/>
<path d="M-214.644 531.472C-214.122 529.908 -215.61 528.421 -217.173 528.942L-223.851 531.168C-225.261 531.638 -225.684 533.428 -224.633 534.479L-220.181 538.931C-219.13 539.982 -217.34 539.56 -216.869 538.149L-214.644 531.472Z" fill="#CDDDF1"/>
<path d="M162.566 3.79473C163.087 2.23122 161.599 0.743738 160.036 1.26491L150.24 4.5303C148.829 5.00045 148.407 6.79058 149.458 7.84188L155.989 14.3726C157.04 15.4239 158.83 15.0014 159.3 13.5909L162.566 3.79473Z" fill="#CDDDF1"/>
<path d="M89.4108 76.9494C89.932 75.3859 88.4445 73.8984 86.881 74.4196L70.8473 79.7642C69.4368 80.2343 69.0142 82.0245 70.0655 83.0758L80.7547 93.7649C81.806 94.8162 83.5961 94.3936 84.0663 92.9832L89.4108 76.9494Z" fill="#CDDDF1"/>
<path d="M16.2834 150.077C16.8046 148.513 15.3171 147.026 13.7537 147.547L-8.59973 154.998C-10.0102 155.468 -10.4327 157.258 -9.38147 158.31L5.52075 173.212C6.57208 174.263 8.36218 173.841 8.83234 172.43L16.2834 150.077Z" fill="#CDDDF1"/>
<path d="M-58.9504 225.311C-58.4293 223.747 -59.9167 222.26 -61.4802 222.781L-83.8337 230.232C-85.2441 230.702 -85.6667 232.492 -84.6154 233.544L-69.7131 248.446C-68.6619 249.497 -66.8717 249.075 -66.4016 247.664L-58.9504 225.311Z" fill="#CDDDF1"/>
<path d="M-136.291 302.651C-135.77 301.088 -137.257 299.6 -138.821 300.121L-154.854 305.466C-156.265 305.936 -156.688 307.726 -155.636 308.777L-144.947 319.467C-143.896 320.518 -142.106 320.095 -141.635 318.685L-136.291 302.651Z" fill="#CDDDF1"/>
<path d="M-213.604 379.964C-213.083 378.401 -214.57 376.913 -216.134 377.434L-225.93 380.7C-227.34 381.17 -227.763 382.96 -226.712 384.011L-220.181 390.542C-219.13 391.593 -217.339 391.171 -216.869 389.76L-213.604 379.964Z" fill="#CDDDF1"/>
<path d="M11.0582 4.83432C11.5793 3.2708 10.0919 1.78331 8.52832 2.30449L1.85095 4.53028C0.440491 5.00043 0.0178833 6.79055 1.06921 7.84186L5.52075 12.2934C6.57208 13.3447 8.36218 12.9221 8.83234 11.5117L11.0582 4.83432Z" fill="#CDDDF1"/>
<path d="M-63.1362 79.0286C-62.615 77.4651 -64.1025 75.9776 -65.666 76.4988L-75.4622 79.7642C-76.8726 80.2344 -77.2952 82.0245 -76.2439 83.0758L-69.7131 89.6066C-68.6619 90.6579 -66.8717 90.2353 -66.4016 88.8248L-63.1362 79.0286Z" fill="#CDDDF1"/>
<path d="M-138.37 154.263C-137.849 152.699 -139.336 151.212 -140.9 151.733L-150.696 154.998C-152.107 155.468 -152.529 157.258 -151.478 158.31L-144.947 164.84C-143.896 165.892 -142.106 165.469 -141.635 164.059L-138.37 154.263Z" fill="#CDDDF1"/>
<path d="M-214.644 230.536C-214.122 228.973 -215.61 227.485 -217.173 228.006L-223.851 230.232C-225.261 230.702 -225.684 232.492 -224.633 233.544L-220.181 237.995C-219.13 239.046 -217.34 238.624 -216.869 237.213L-214.644 230.536Z" fill="#CDDDF1"/>
</g>
<path d="M44.5659 619.65C48.0803 613.747 51.1546 603.809 44.2644 595.892C37.3743 587.975 45.2245 584.702 46.2409 574.592C47.2574 564.481 34.0242 563.618 34.773 550.591C35.0774 545.291 31.3678 536.624 25.266 536.041C17.6579 535.316 13.2518 544.312 13.6133 550.59C14.3621 563.618 1.12895 564.481 2.14469 574.592C3.16042 584.702 11.0112 587.975 4.12103 595.892C-2.76913 603.81 0.305306 613.747 3.81969 619.65C7.33407 625.553 -0.35322 635.656 3.16043 644.44C6.65575 653.178 14.2785 666.041 24.1925 665.748C34.1064 666.041 41.7299 653.178 45.2245 644.44C48.7389 635.655 41.0515 625.552 44.5659 619.65Z" fill="#CDDDF1"/>
<path d="M24.6863 557.355V699.131H24.0264V557.355C24.0264 557.115 24.1723 556.92 24.3564 556.92C24.5375 556.919 24.6863 557.115 24.6863 557.355Z" fill="#6387C5"/>
<path d="M24.3538 588.43C24.257 588.43 24.1616 588.387 24.0963 588.306L13.3545 574.888C13.2408 574.746 13.2636 574.539 13.4058 574.425C13.5481 574.312 13.7548 574.334 13.8685 574.477L24.6106 587.895C24.7242 588.037 24.7015 588.244 24.5592 588.357C24.499 588.406 24.4257 588.43 24.3538 588.43Z" fill="#6387C5"/>
<path d="M24.3562 657.508C24.266 657.508 24.1765 657.472 24.1112 657.4C23.9895 657.265 23.9997 657.056 24.1354 656.934L36.8245 645.491C36.9594 645.369 37.1684 645.38 37.2894 645.515C37.4112 645.65 37.4002 645.859 37.2653 645.981L24.5762 657.424C24.5139 657.48 24.4347 657.508 24.3562 657.508Z" fill="#6387C5"/>
<path d="M24.3548 566.701C24.2668 566.701 24.1788 566.666 24.1135 566.596L19.5336 561.689C19.4096 561.555 19.417 561.347 19.5497 561.223C19.6832 561.099 19.8915 561.105 20.0154 561.239L24.5953 566.147C24.7193 566.28 24.7119 566.489 24.5792 566.612C24.5161 566.672 24.4348 566.701 24.3548 566.701Z" fill="#6387C5"/>
<path d="M24.3566 602.783C24.2642 602.783 24.1724 602.745 24.1072 602.669C23.9876 602.532 24.0024 602.324 24.1403 602.204L35.9932 591.919C36.1303 591.8 36.3386 591.815 36.4582 591.952C36.5777 592.09 36.5631 592.298 36.4252 592.417L24.5729 602.702C24.5098 602.757 24.4329 602.783 24.3566 602.783Z" fill="#6387C5"/>
<path d="M24.3533 621.937C24.2675 621.937 24.1817 621.903 24.1165 621.837L9.37318 606.641C9.2463 606.51 9.24998 606.301 9.38052 606.175C9.51106 606.048 9.71935 606.052 9.84623 606.182L24.5895 621.378C24.7164 621.509 24.7127 621.718 24.5822 621.844C24.5184 621.906 24.4362 621.937 24.3533 621.937Z" fill="#6387C5"/>
<path d="M553.182 619.649C556.697 613.746 559.771 603.809 552.881 595.892C545.991 587.975 553.841 584.702 554.857 574.592C555.874 564.481 542.641 563.618 543.389 550.591C543.693 545.291 539.984 536.624 533.882 536.041C526.274 535.316 521.868 544.312 522.229 550.59C522.978 563.618 509.745 564.481 510.76 574.592C511.777 584.702 519.627 587.975 512.737 595.892C505.847 603.809 508.922 613.746 512.435 619.649C515.95 625.552 508.263 635.656 511.777 644.44C515.272 653.178 522.895 666.04 532.809 665.748C542.723 666.04 550.346 653.178 553.841 644.44C557.356 635.655 549.669 625.552 553.182 619.649Z" fill="#CDDDF1"/>
<path d="M533.3 557.355V699.131H532.64V557.355C532.64 557.115 532.786 556.92 532.97 556.92C533.15 556.919 533.3 557.115 533.3 557.355Z" fill="#6387C5"/>
<path d="M532.971 588.43C532.874 588.43 532.779 588.387 532.714 588.306L521.972 574.888C521.858 574.746 521.881 574.539 522.023 574.425C522.166 574.312 522.372 574.334 522.486 574.477L533.228 587.895C533.342 588.037 533.319 588.244 533.177 588.357C533.116 588.406 533.043 588.43 532.971 588.43Z" fill="#6387C5"/>
<path d="M532.969 657.508C532.879 657.508 532.789 657.472 532.725 657.4C532.603 657.265 532.613 657.056 532.749 656.934L545.437 645.491C545.572 645.369 545.781 645.38 545.903 645.515C546.025 645.65 546.014 645.859 545.879 645.981L533.19 657.424C533.126 657.48 533.047 657.508 532.969 657.508Z" fill="#6387C5"/>
<path d="M532.971 566.701C532.883 566.701 532.795 566.666 532.73 566.596L528.151 561.688C528.027 561.555 528.034 561.347 528.167 561.223C528.3 561.099 528.509 561.105 528.633 561.239L533.213 566.147C533.337 566.28 533.329 566.488 533.197 566.612C533.133 566.672 533.051 566.701 532.971 566.701Z" fill="#6387C5"/>
<path d="M532.969 602.783C532.878 602.783 532.786 602.745 532.721 602.669C532.601 602.532 532.616 602.324 532.754 602.204L544.607 591.919C544.744 591.8 544.952 591.815 545.072 591.952C545.191 592.09 545.177 592.298 545.039 592.417L533.186 602.702C533.123 602.757 533.046 602.783 532.969 602.783Z" fill="#6387C5"/>
<path d="M532.972 621.937C532.886 621.937 532.8 621.903 532.735 621.837L517.991 606.641C517.865 606.51 517.868 606.301 517.999 606.175C518.129 606.048 518.338 606.052 518.465 606.182L533.208 621.378C533.335 621.509 533.331 621.718 533.2 621.844C533.137 621.906 533.054 621.937 532.972 621.937Z" fill="#6387C5"/>
<path d="M550.545 703.891H2.93354C1.31349 703.891 0 702.578 0 700.958V697.426C0 695.806 1.31349 694.492 2.93354 694.492H550.545C552.165 694.492 553.479 695.806 553.479 697.426V700.958C553.479 702.578 552.165 703.891 550.545 703.891Z" fill="#6387C5"/>
<path d="M316.896 729.531H51.6884C50.0684 729.531 48.7549 728.218 48.7549 726.598V723.066C48.7549 721.446 50.0684 720.132 51.6884 720.132H316.896C318.516 720.132 319.83 721.446 319.83 723.066V726.598C319.83 728.218 318.516 729.531 316.896 729.531Z" fill="#E9EEF8"/>
<path d="M498.003 729.531H351.825C350.205 729.531 348.891 728.218 348.891 726.598V723.066C348.891 721.446 350.205 720.132 351.825 720.132H498.003C499.623 720.132 500.937 721.446 500.937 723.066V726.598C500.937 728.218 499.623 729.531 498.003 729.531Z" fill="#E9EEF8"/>
<path d="M250.191 79.2581L81.008 248.496C75.3364 254.17 75.3364 263.368 81.008 269.041L137.054 325.106C142.726 330.779 151.922 330.779 157.593 325.106L326.777 155.868C332.448 150.194 332.448 140.996 326.777 135.323L270.73 79.2581C265.059 73.5847 255.863 73.5847 250.191 79.2581Z" stroke="#174E8C" stroke-width="5"/>
<path d="M141.232 196.61L85.5335 252.327C82.169 255.692 82.169 261.149 85.5335 264.515L141.232 320.231C144.596 323.596 150.051 323.596 153.416 320.231L209.114 264.515C212.479 261.149 212.479 255.692 209.114 252.327L153.416 196.61C150.051 193.245 144.596 193.245 141.232 196.61Z" stroke="#174E8C" stroke-width="5"/>
<path d="M95.9769 258.943C96.4576 258.462 96.4576 257.683 95.9769 257.202C95.4963 256.721 94.717 256.721 94.2364 257.202C93.7557 257.683 93.7557 258.462 94.2364 258.943C94.717 259.424 95.4963 259.424 95.9769 258.943Z" fill="#174E8C"/>
<path d="M104.68 250.237C105.16 249.756 105.16 248.977 104.68 248.496C104.199 248.015 103.42 248.015 102.939 248.496C102.459 248.977 102.459 249.756 102.939 250.237C103.42 250.718 104.199 250.718 104.68 250.237Z" fill="#174E8C"/>
<path d="M113.383 258.943C113.863 258.462 113.863 257.683 113.383 257.202C112.902 256.721 112.123 256.721 111.642 257.202C111.161 257.683 111.161 258.462 111.642 258.943C112.123 259.424 112.902 259.424 113.383 258.943Z" fill="#174E8C"/>
<path d="M104.68 267.648C105.16 267.168 105.16 266.388 104.68 265.907C104.199 265.426 103.42 265.426 102.939 265.907C102.459 266.388 102.459 267.168 102.939 267.648C103.42 268.129 104.199 268.129 104.68 267.648Z" fill="#174E8C"/>
<path d="M113.383 241.531C113.863 241.051 113.863 240.271 113.383 239.79C112.902 239.309 112.123 239.309 111.642 239.79C111.161 240.271 111.161 241.051 111.642 241.531C112.123 242.012 112.902 242.012 113.383 241.531Z" fill="#174E8C"/>
<path d="M122.085 232.826C122.566 232.345 122.566 231.566 122.085 231.085C121.605 230.604 120.825 230.604 120.345 231.085C119.864 231.566 119.864 232.345 120.345 232.826C120.825 233.307 121.605 233.307 122.085 232.826Z" fill="#174E8C"/>
<path d="M130.788 241.531C131.269 241.051 131.269 240.271 130.788 239.79C130.308 239.309 129.529 239.309 129.048 239.79C128.567 240.271 128.567 241.051 129.048 241.531C129.529 242.012 130.308 242.012 130.788 241.531Z" fill="#174E8C"/>
<path d="M122.085 250.237C122.566 249.756 122.566 248.977 122.085 248.496C121.605 248.015 120.825 248.015 120.345 248.496C119.864 248.977 119.864 249.756 120.345 250.237C120.825 250.718 121.605 250.718 122.085 250.237Z" fill="#174E8C"/>
<path d="M130.788 258.943C131.269 258.462 131.269 257.683 130.788 257.202C130.308 256.721 129.529 256.721 129.048 257.202C128.567 257.683 128.567 258.462 129.048 258.943C129.529 259.424 130.308 259.424 130.788 258.943Z" fill="#174E8C"/>
<path d="M139.491 250.237C139.972 249.756 139.972 248.977 139.491 248.496C139.01 248.015 138.231 248.015 137.75 248.496C137.27 248.977 137.27 249.756 137.75 250.237C138.231 250.718 139.01 250.718 139.491 250.237Z" fill="#174E8C"/>
<path d="M148.194 258.943C148.675 258.462 148.675 257.683 148.194 257.202C147.713 256.721 146.934 256.721 146.453 257.202C145.973 257.683 145.973 258.462 146.453 258.943C146.934 259.424 147.713 259.424 148.194 258.943Z" fill="#174E8C"/>
<path d="M139.491 267.648C139.972 267.168 139.972 266.388 139.491 265.907C139.01 265.426 138.231 265.426 137.75 265.907C137.27 266.388 137.27 267.168 137.75 267.648C138.231 268.129 139.01 268.129 139.491 267.648Z" fill="#174E8C"/>
<path d="M113.383 276.354C113.863 275.873 113.863 275.094 113.383 274.613C112.902 274.132 112.123 274.132 111.642 274.613C111.161 275.094 111.161 275.873 111.642 276.354C112.123 276.835 112.902 276.835 113.383 276.354Z" fill="#174E8C"/>
<path d="M122.085 267.648C122.566 267.168 122.566 266.388 122.085 265.907C121.605 265.426 120.825 265.426 120.345 265.907C119.864 266.388 119.864 267.168 120.345 267.648C120.825 268.129 121.605 268.129 122.085 267.648Z" fill="#174E8C"/>
<path d="M130.788 276.354C131.269 275.873 131.269 275.094 130.788 274.613C130.308 274.132 129.529 274.132 129.048 274.613C128.567 275.094 128.567 275.873 129.048 276.354C129.529 276.835 130.308 276.835 130.788 276.354Z" fill="#174E8C"/>
<path d="M122.085 285.06C122.566 284.579 122.566 283.8 122.085 283.319C121.605 282.838 120.825 282.838 120.345 283.319C119.864 283.8 119.864 284.579 120.345 285.06C120.825 285.541 121.605 285.541 122.085 285.06Z" fill="#174E8C"/>
<path d="M130.788 224.12C131.269 223.639 131.269 222.86 130.788 222.379C130.308 221.898 129.529 221.898 129.048 222.379C128.567 222.86 128.567 223.639 129.048 224.12C129.529 224.601 130.308 224.601 130.788 224.12Z" fill="#174E8C"/>
<path d="M139.491 215.414C139.972 214.934 139.972 214.154 139.491 213.673C139.01 213.193 138.231 213.193 137.75 213.673C137.27 214.154 137.27 214.934 137.75 215.414C138.231 215.895 139.01 215.895 139.491 215.414Z" fill="#174E8C"/>
<path d="M148.194 224.12C148.675 223.639 148.675 222.86 148.194 222.379C147.713 221.898 146.934 221.898 146.453 222.379C145.973 222.86 145.973 223.639 146.453 224.12C146.934 224.601 147.713 224.601 148.194 224.12Z" fill="#174E8C"/>
<path d="M139.491 232.826C139.972 232.345 139.972 231.566 139.491 231.085C139.01 230.604 138.231 230.604 137.75 231.085C137.27 231.566 137.27 232.345 137.75 232.826C138.231 233.307 139.01 233.307 139.491 232.826Z" fill="#174E8C"/>
<path d="M148.194 206.709C148.675 206.228 148.675 205.449 148.194 204.968C147.713 204.487 146.934 204.487 146.453 204.968C145.973 205.449 145.973 206.228 146.453 206.709C146.934 207.19 147.713 207.19 148.194 206.709Z" fill="#174E8C"/>
<path d="M156.897 215.414C157.378 214.934 157.378 214.154 156.897 213.673C156.416 213.193 155.637 213.193 155.156 213.673C154.676 214.154 154.676 214.934 155.156 215.414C155.637 215.895 156.416 215.895 156.897 215.414Z" fill="#174E8C"/>
<path d="M165.6 224.12C166.081 223.639 166.081 222.86 165.6 222.379C165.119 221.898 164.34 221.898 163.859 222.379C163.379 222.86 163.379 223.639 163.859 224.12C164.34 224.601 165.119 224.601 165.6 224.12Z" fill="#174E8C"/>
<path d="M174.303 232.826C174.783 232.345 174.783 231.566 174.303 231.085C173.822 230.604 173.043 230.604 172.562 231.085C172.081 231.566 172.081 232.345 172.562 232.826C173.043 233.307 173.822 233.307 174.303 232.826Z" fill="#174E8C"/>
<path d="M148.194 241.531C148.675 241.051 148.675 240.271 148.194 239.79C147.713 239.309 146.934 239.309 146.453 239.79C145.973 240.271 145.973 241.051 146.453 241.531C146.934 242.012 147.713 242.012 148.194 241.531Z" fill="#174E8C"/>
<path d="M156.897 232.826C157.378 232.345 157.378 231.566 156.897 231.085C156.416 230.604 155.637 230.604 155.156 231.085C154.676 231.566 154.676 232.345 155.156 232.826C155.637 233.307 156.416 233.307 156.897 232.826Z" fill="#174E8C"/>
<path d="M165.6 241.531C166.081 241.051 166.081 240.271 165.6 239.79C165.119 239.309 164.34 239.309 163.859 239.79C163.379 240.271 163.379 241.051 163.859 241.531C164.34 242.012 165.119 242.012 165.6 241.531Z" fill="#174E8C"/>
<path d="M156.897 250.237C157.378 249.756 157.378 248.977 156.897 248.496C156.416 248.015 155.637 248.015 155.156 248.496C154.676 248.977 154.676 249.756 155.156 250.237C155.637 250.718 156.416 250.718 156.897 250.237Z" fill="#174E8C"/>
<path d="M165.6 258.943C166.081 258.462 166.081 257.683 165.6 257.202C165.119 256.721 164.34 256.721 163.859 257.202C163.379 257.683 163.379 258.462 163.859 258.943C164.34 259.424 165.119 259.424 165.6 258.943Z" fill="#174E8C"/>
<path d="M174.303 250.237C174.783 249.756 174.783 248.977 174.303 248.496C173.822 248.015 173.043 248.015 172.562 248.496C172.081 248.977 172.081 249.756 172.562 250.237C173.043 250.718 173.822 250.718 174.303 250.237Z" fill="#174E8C"/>
<path d="M183.006 258.943C183.486 258.462 183.486 257.683 183.006 257.202C182.525 256.721 181.746 256.721 181.265 257.202C180.784 257.683 180.784 258.462 181.265 258.943C181.746 259.424 182.525 259.424 183.006 258.943Z" fill="#174E8C"/>
<path d="M174.303 267.648C174.783 267.168 174.783 266.388 174.303 265.907C173.822 265.426 173.043 265.426 172.562 265.907C172.081 266.388 172.081 267.168 172.562 267.648C173.043 268.129 173.822 268.129 174.303 267.648Z" fill="#174E8C"/>
<path d="M183.006 241.531C183.486 241.051 183.486 240.271 183.006 239.79C182.525 239.309 181.746 239.309 181.265 239.79C180.784 240.271 180.784 241.051 181.265 241.531C181.746 242.012 182.525 242.012 183.006 241.531Z" fill="#174E8C"/>
<path d="M191.709 250.237C192.189 249.756 192.189 248.977 191.709 248.496C191.228 248.015 190.449 248.015 189.968 248.496C189.487 248.977 189.487 249.756 189.968 250.237C190.449 250.718 191.228 250.718 191.709 250.237Z" fill="#174E8C"/>
<path d="M200.411 258.943C200.892 258.462 200.892 257.683 200.411 257.202C199.93 256.721 199.151 256.721 198.671 257.202C198.19 257.683 198.19 258.462 198.671 258.943C199.151 259.424 199.93 259.424 200.411 258.943Z" fill="#174E8C"/>
<path d="M183.006 276.354C183.486 275.873 183.486 275.094 183.006 274.613C182.525 274.132 181.746 274.132 181.265 274.613C180.784 275.094 180.784 275.873 181.265 276.354C181.746 276.835 182.525 276.835 183.006 276.354Z" fill="#174E8C"/>
<path d="M191.709 267.648C192.189 267.168 192.189 266.388 191.709 265.907C191.228 265.426 190.449 265.426 189.968 265.907C189.487 266.388 189.487 267.168 189.968 267.648C190.449 268.129 191.228 268.129 191.709 267.648Z" fill="#174E8C"/>
<path d="M130.788 293.765C131.269 293.285 131.269 292.505 130.788 292.024C130.308 291.543 129.529 291.543 129.048 292.024C128.567 292.505 128.567 293.285 129.048 293.765C129.529 294.246 130.308 294.246 130.788 293.765Z" fill="#174E8C"/>
<path d="M139.491 285.06C139.972 284.579 139.972 283.8 139.491 283.319C139.01 282.838 138.231 282.838 137.75 283.319C137.27 283.8 137.27 284.579 137.75 285.06C138.231 285.541 139.01 285.541 139.491 285.06Z" fill="#174E8C"/>
<path d="M148.194 293.765C148.675 293.285 148.675 292.505 148.194 292.024C147.713 291.543 146.934 291.543 146.453 292.024C145.973 292.505 145.973 293.285 146.453 293.765C146.934 294.246 147.713 294.246 148.194 293.765Z" fill="#174E8C"/>
<path d="M139.491 302.471C139.972 301.99 139.972 301.211 139.491 300.73C139.01 300.249 138.231 300.249 137.75 300.73C137.27 301.211 137.27 301.99 137.75 302.471C138.231 302.952 139.01 302.952 139.491 302.471Z" fill="#174E8C"/>
<path d="M148.194 276.354C148.675 275.873 148.675 275.094 148.194 274.613C147.713 274.132 146.934 274.132 146.453 274.613C145.973 275.094 145.973 275.873 146.453 276.354C146.934 276.835 147.713 276.835 148.194 276.354Z" fill="#174E8C"/>
<path d="M156.897 267.648C157.378 267.168 157.378 266.388 156.897 265.907C156.416 265.426 155.637 265.426 155.156 265.907C154.676 266.388 154.676 267.168 155.156 267.648C155.637 268.129 156.416 268.129 156.897 267.648Z" fill="#174E8C"/>
<path d="M165.6 276.354C166.081 275.873 166.081 275.094 165.6 274.613C165.119 274.132 164.34 274.132 163.859 274.613C163.379 275.094 163.379 275.873 163.859 276.354C164.34 276.835 165.119 276.835 165.6 276.354Z" fill="#174E8C"/>
<path d="M156.897 285.06C157.378 284.579 157.378 283.8 156.897 283.319C156.416 282.838 155.637 282.838 155.156 283.319C154.676 283.8 154.676 284.579 155.156 285.06C155.637 285.541 156.416 285.541 156.897 285.06Z" fill="#174E8C"/>
<path d="M165.6 293.765C166.081 293.285 166.081 292.505 165.6 292.024C165.119 291.543 164.34 291.543 163.859 292.024C163.379 292.505 163.379 293.285 163.859 293.765C164.34 294.246 165.119 294.246 165.6 293.765Z" fill="#174E8C"/>
<path d="M174.303 285.06C174.783 284.579 174.783 283.8 174.303 283.319C173.822 282.838 173.043 282.838 172.562 283.319C172.081 283.8 172.081 284.579 172.562 285.06C173.043 285.541 173.822 285.541 174.303 285.06Z" fill="#174E8C"/>
<path d="M148.194 311.177C148.675 310.696 148.675 309.917 148.194 309.436C147.713 308.955 146.934 308.955 146.453 309.436C145.973 309.917 145.973 310.696 146.453 311.177C146.934 311.658 147.713 311.658 148.194 311.177Z" fill="#174E8C"/>
<path d="M156.897 302.471C157.378 301.99 157.378 301.211 156.897 300.73C156.416 300.249 155.637 300.249 155.156 300.73C154.676 301.211 154.676 301.99 155.156 302.471C155.637 302.952 156.416 302.952 156.897 302.471Z" fill="#174E8C"/>
<path d="M254.021 83.785L198.323 139.501C194.958 142.867 194.958 148.324 198.323 151.689L254.021 207.405C257.385 210.771 262.84 210.771 266.205 207.405L321.903 151.689C325.268 148.324 325.268 142.867 321.903 139.501L266.205 83.785C262.84 80.4194 257.385 80.4194 254.021 83.785Z" stroke="#174E8C" stroke-width="5"/>
<path d="M208.766 146.118C209.247 145.637 209.247 144.857 208.766 144.376C208.285 143.896 207.506 143.896 207.025 144.376C206.545 144.857 206.545 145.637 207.025 146.118C207.506 146.598 208.285 146.598 208.766 146.118Z" fill="#174E8C"/>
<path d="M217.469 137.412C217.949 136.931 217.949 136.151 217.469 135.671C216.988 135.19 216.209 135.19 215.728 135.671C215.247 136.151 215.247 136.931 215.728 137.412C216.209 137.893 216.988 137.893 217.469 137.412Z" fill="#174E8C"/>
<path d="M226.172 146.118C226.652 145.637 226.652 144.857 226.172 144.376C225.691 143.896 224.912 143.896 224.431 144.376C223.95 144.857 223.95 145.637 224.431 146.118C224.912 146.598 225.691 146.598 226.172 146.118Z" fill="#174E8C"/>
<path d="M217.469 154.823C217.949 154.343 217.949 153.563 217.469 153.082C216.988 152.601 216.209 152.601 215.728 153.082C215.247 153.563 215.247 154.343 215.728 154.823C216.209 155.304 216.988 155.304 217.469 154.823Z" fill="#174E8C"/>
<path d="M226.172 128.706C226.652 128.226 226.652 127.446 226.172 126.965C225.691 126.484 224.912 126.484 224.431 126.965C223.95 127.446 223.95 128.226 224.431 128.706C224.912 129.187 225.691 129.187 226.172 128.706Z" fill="#174E8C"/>
<path d="M234.875 120.001C235.355 119.52 235.355 118.74 234.875 118.259C234.394 117.779 233.615 117.779 233.134 118.259C232.653 118.74 232.653 119.52 233.134 120.001C233.615 120.481 234.394 120.481 234.875 120.001Z" fill="#174E8C"/>
<path d="M243.577 128.706C244.058 128.226 244.058 127.446 243.577 126.965C243.096 126.484 242.317 126.484 241.837 126.965C241.356 127.446 241.356 128.226 241.837 128.706C242.317 129.187 243.096 129.187 243.577 128.706Z" fill="#174E8C"/>
<path d="M234.875 137.412C235.355 136.931 235.355 136.151 234.875 135.671C234.394 135.19 233.615 135.19 233.134 135.671C232.653 136.151 232.653 136.931 233.134 137.412C233.615 137.893 234.394 137.893 234.875 137.412Z" fill="#174E8C"/>
<path d="M243.577 146.118C244.058 145.637 244.058 144.857 243.577 144.376C243.096 143.896 242.317 143.896 241.837 144.376C241.356 144.857 241.356 145.637 241.837 146.118C242.317 146.598 243.096 146.598 243.577 146.118Z" fill="#174E8C"/>
<path d="M252.28 137.412C252.761 136.931 252.761 136.151 252.28 135.671C251.799 135.19 251.02 135.19 250.54 135.671C250.059 136.151 250.059 136.931 250.54 137.412C251.02 137.893 251.799 137.893 252.28 137.412Z" fill="#174E8C"/>
<path d="M260.983 146.118C261.464 145.637 261.464 144.857 260.983 144.376C260.503 143.896 259.723 143.896 259.243 144.376C258.762 144.857 258.762 145.637 259.243 146.118C259.723 146.598 260.503 146.598 260.983 146.118Z" fill="#174E8C"/>
<path d="M252.28 154.823C252.761 154.343 252.761 153.563 252.28 153.082C251.799 152.601 251.02 152.601 250.54 153.082C250.059 153.563 250.059 154.343 250.54 154.823C251.02 155.304 251.799 155.304 252.28 154.823Z" fill="#174E8C"/>
<path d="M226.172 163.529C226.652 163.048 226.652 162.268 226.172 161.788C225.691 161.307 224.912 161.307 224.431 161.788C223.95 162.268 223.95 163.048 224.431 163.529C224.912 164.01 225.691 164.01 226.172 163.529Z" fill="#174E8C"/>
<path d="M234.875 154.823C235.355 154.343 235.355 153.563 234.875 153.082C234.394 152.601 233.615 152.601 233.134 153.082C232.653 153.563 232.653 154.343 233.134 154.823C233.615 155.304 234.394 155.304 234.875 154.823Z" fill="#174E8C"/>
<path d="M243.577 163.529C244.058 163.048 244.058 162.268 243.577 161.788C243.096 161.307 242.317 161.307 241.837 161.788C241.356 162.268 241.356 163.048 241.837 163.529C242.317 164.01 243.096 164.01 243.577 163.529Z" fill="#174E8C"/>
<path d="M234.875 172.235C235.355 171.754 235.355 170.974 234.875 170.493C234.394 170.013 233.615 170.013 233.134 170.493C232.653 170.974 232.653 171.754 233.134 172.235C233.615 172.715 234.394 172.715 234.875 172.235Z" fill="#174E8C"/>
<path d="M243.577 111.295C244.058 110.814 244.058 110.035 243.577 109.554C243.096 109.073 242.317 109.073 241.837 109.554C241.356 110.035 241.356 110.814 241.837 111.295C242.317 111.776 243.096 111.776 243.577 111.295Z" fill="#174E8C"/>
<path d="M252.28 102.589C252.761 102.109 252.761 101.329 252.28 100.848C251.799 100.367 251.02 100.367 250.54 100.848C250.059 101.329 250.059 102.109 250.54 102.589C251.02 103.07 251.799 103.07 252.28 102.589Z" fill="#174E8C"/>
<path d="M260.983 111.295C261.464 110.814 261.464 110.035 260.983 109.554C260.503 109.073 259.723 109.073 259.243 109.554C258.762 110.035 258.762 110.814 259.243 111.295C259.723 111.776 260.503 111.776 260.983 111.295Z" fill="#174E8C"/>
<path d="M252.28 120.001C252.761 119.52 252.761 118.74 252.28 118.259C251.799 117.779 251.02 117.779 250.54 118.259C250.059 118.74 250.059 119.52 250.54 120.001C251.02 120.481 251.799 120.481 252.28 120.001Z" fill="#174E8C"/>
<path d="M260.983 93.8836C261.464 93.4028 261.464 92.6233 260.983 92.1425C260.503 91.6617 259.723 91.6617 259.243 92.1425C258.762 92.6233 258.762 93.4028 259.243 93.8836C259.723 94.3644 260.503 94.3644 260.983 93.8836Z" fill="#174E8C"/>
<path d="M269.686 102.589C270.166 102.108 270.166 101.329 269.686 100.848C269.205 100.367 268.426 100.367 267.945 100.848C267.464 101.329 267.464 102.108 267.945 102.589C268.426 103.07 269.205 103.07 269.686 102.589Z" fill="#174E8C"/>
<path d="M278.389 111.295C278.869 110.814 278.869 110.035 278.389 109.554C277.908 109.073 277.129 109.073 276.648 109.554C276.167 110.035 276.167 110.814 276.648 111.295C277.129 111.776 277.908 111.776 278.389 111.295Z" fill="#174E8C"/>
<path d="M287.092 120.001C287.572 119.52 287.572 118.74 287.092 118.259C286.611 117.779 285.832 117.779 285.351 118.259C284.871 118.74 284.871 119.52 285.351 120.001C285.832 120.481 286.611 120.481 287.092 120.001Z" fill="#174E8C"/>
<path d="M260.983 128.706C261.464 128.226 261.464 127.446 260.983 126.965C260.503 126.484 259.723 126.484 259.243 126.965C258.762 127.446 258.762 128.226 259.243 128.706C259.723 129.187 260.503 129.187 260.983 128.706Z" fill="#174E8C"/>
<path d="M269.686 120.001C270.166 119.52 270.166 118.74 269.686 118.259C269.205 117.779 268.426 117.779 267.945 118.259C267.464 118.74 267.464 119.52 267.945 120.001C268.426 120.481 269.205 120.481 269.686 120.001Z" fill="#174E8C"/>
<path d="M278.389 128.706C278.869 128.226 278.869 127.446 278.389 126.965C277.908 126.484 277.129 126.484 276.648 126.965C276.167 127.446 276.167 128.226 276.648 128.706C277.129 129.187 277.908 129.187 278.389 128.706Z" fill="#174E8C"/>
<path d="M269.686 137.412C270.166 136.931 270.166 136.151 269.686 135.671C269.205 135.19 268.426 135.19 267.945 135.671C267.464 136.151 267.464 136.931 267.945 137.412C268.426 137.893 269.205 137.893 269.686 137.412Z" fill="#174E8C"/>
<path d="M278.389 146.118C278.869 145.637 278.869 144.857 278.389 144.376C277.908 143.896 277.129 143.896 276.648 144.376C276.167 144.857 276.167 145.637 276.648 146.118C277.129 146.598 277.908 146.598 278.389 146.118Z" fill="#174E8C"/>
<path d="M287.092 137.412C287.572 136.931 287.572 136.151 287.092 135.671C286.611 135.19 285.832 135.19 285.351 135.671C284.871 136.151 284.871 136.931 285.351 137.412C285.832 137.893 286.611 137.893 287.092 137.412Z" fill="#174E8C"/>
<path d="M295.794 146.118C296.275 145.637 296.275 144.857 295.794 144.376C295.314 143.896 294.534 143.896 294.054 144.376C293.573 144.857 293.573 145.637 294.054 146.118C294.534 146.598 295.314 146.598 295.794 146.118Z" fill="#174E8C"/>
<path d="M287.092 154.823C287.572 154.343 287.572 153.563 287.092 153.082C286.611 152.601 285.832 152.601 285.351 153.082C284.871 153.563 284.871 154.343 285.351 154.823C285.832 155.304 286.611 155.304 287.092 154.823Z" fill="#174E8C"/>
<path d="M295.794 128.706C296.275 128.226 296.275 127.446 295.794 126.965C295.314 126.484 294.534 126.484 294.054 126.965C293.573 127.446 293.573 128.226 294.054 128.706C294.534 129.187 295.314 129.187 295.794 128.706Z" fill="#174E8C"/>
<path d="M304.497 137.412C304.978 136.931 304.978 136.151 304.497 135.671C304.017 135.19 303.237 135.19 302.757 135.671C302.276 136.151 302.276 136.931 302.757 137.412C303.237 137.893 304.017 137.893 304.497 137.412Z" fill="#174E8C"/>
<path d="M313.2 146.118C313.681 145.637 313.681 144.857 313.2 144.376C312.72 143.896 311.94 143.896 311.46 144.376C310.979 144.857 310.979 145.637 311.46 146.118C311.94 146.598 312.72 146.598 313.2 146.118Z" fill="#174E8C"/>
<path d="M295.794 163.529C296.275 163.048 296.275 162.268 295.794 161.788C295.314 161.307 294.534 161.307 294.054 161.788C293.573 162.268 293.573 163.048 294.054 163.529C294.534 164.01 295.314 164.01 295.794 163.529Z" fill="#174E8C"/>
<path d="M304.497 154.823C304.978 154.343 304.978 153.563 304.497 153.082C304.017 152.601 303.237 152.601 302.757 153.082C302.276 153.563 302.276 154.343 302.757 154.823C303.237 155.304 304.017 155.304 304.497 154.823Z" fill="#174E8C"/>
<path d="M243.577 180.94C244.058 180.46 244.058 179.68 243.577 179.199C243.096 178.718 242.317 178.718 241.837 179.199C241.356 179.68 241.356 180.46 241.837 180.94C242.317 181.421 243.096 181.421 243.577 180.94Z" fill="#174E8C"/>
<path d="M252.28 172.235C252.761 171.754 252.761 170.974 252.28 170.493C251.799 170.013 251.02 170.013 250.54 170.493C250.059 170.974 250.059 171.754 250.54 172.235C251.02 172.715 251.799 172.715 252.28 172.235Z" fill="#174E8C"/>
<path d="M260.983 180.94C261.464 180.46 261.464 179.68 260.983 179.199C260.503 178.718 259.723 178.718 259.243 179.199C258.762 179.68 258.762 180.46 259.243 180.94C259.723 181.421 260.503 181.421 260.983 180.94Z" fill="#174E8C"/>
<path d="M252.28 189.646C252.761 189.165 252.761 188.385 252.28 187.905C251.799 187.424 251.02 187.424 250.54 187.905C250.059 188.385 250.059 189.165 250.54 189.646C251.02 190.126 251.799 190.126 252.28 189.646Z" fill="#174E8C"/>
<path d="M260.983 163.529C261.464 163.048 261.464 162.268 260.983 161.788C260.503 161.307 259.723 161.307 259.243 161.788C258.762 162.268 258.762 163.048 259.243 163.529C259.723 164.01 260.503 164.01 260.983 163.529Z" fill="#174E8C"/>
<path d="M269.686 154.823C270.166 154.343 270.166 153.563 269.686 153.082C269.205 152.601 268.426 152.601 267.945 153.082C267.464 153.563 267.464 154.343 267.945 154.823C268.426 155.304 269.205 155.304 269.686 154.823Z" fill="#174E8C"/>
<path d="M278.389 163.529C278.869 163.048 278.869 162.268 278.389 161.788C277.908 161.307 277.129 161.307 276.648 161.788C276.167 162.268 276.167 163.048 276.648 163.529C277.129 164.01 277.908 164.01 278.389 163.529Z" fill="#174E8C"/>
<path d="M269.686 172.235C270.166 171.754 270.166 170.974 269.686 170.493C269.205 170.013 268.426 170.013 267.945 170.493C267.464 170.974 267.464 171.754 267.945 172.235C268.426 172.715 269.205 172.715 269.686 172.235Z" fill="#174E8C"/>
<path d="M278.389 180.94C278.869 180.46 278.869 179.68 278.389 179.199C277.908 178.718 277.129 178.718 276.648 179.199C276.167 179.68 276.167 180.46 276.648 180.94C277.129 181.421 277.908 181.421 278.389 180.94Z" fill="#174E8C"/>
<path d="M287.092 172.235C287.572 171.754 287.572 170.974 287.092 170.493C286.611 170.013 285.832 170.013 285.351 170.493C284.871 170.974 284.871 171.754 285.351 172.235C285.832 172.715 286.611 172.715 287.092 172.235Z" fill="#174E8C"/>
<path d="M260.983 198.352C261.464 197.871 261.464 197.091 260.983 196.61C260.503 196.13 259.723 196.13 259.243 196.61C258.762 197.091 258.762 197.871 259.243 198.352C259.723 198.832 260.503 198.832 260.983 198.352Z" fill="#174E8C"/>
<path d="M269.686 189.646C270.166 189.165 270.166 188.385 269.686 187.905C269.205 187.424 268.426 187.424 267.945 187.905C267.464 188.385 267.464 189.165 267.945 189.646C268.426 190.126 269.205 190.126 269.686 189.646Z" fill="#174E8C"/>
<path d="M196.994 217.554C196.343 216.086 195.713 214.683 195.119 213.23C191.756 205.154 188.486 197.014 185.136 188.91C183.663 185.331 185.695 183.081 188.297 182.162C188.708 182.013 189.158 182.001 189.579 182.128C194.182 183.868 198.814 185.565 203.367 187.442C208.708 189.649 213.985 192.006 219.29 194.306C219.536 194.409 219.775 194.534 220.057 194.672C218.69 196.04 217.366 197.364 216.041 198.689C215.927 198.804 215.573 198.765 215.386 198.677C212.378 197.33 209.378 195.904 206.378 194.621C201.202 192.351 196.085 190.211 190.917 187.991C190.592 187.852 190.26 187.748 189.848 187.608C189.929 187.876 189.974 188.063 190.04 188.244C193.218 196.679 196.857 204.973 200.654 213.181C200.873 213.659 200.868 213.94 200.467 214.312C199.343 215.436 198.227 216.553 197.103 217.677L196.994 217.554Z" fill="#174E8C"/>
<path d="M201.123 219.291L202.448 217.965L202.493 218.009L202.95 224.395L210.58 225.698L210.625 225.743L209.366 227.002L203.05 225.877L203.239 228.518L205.545 230.824L204.52 231.85L196.544 223.871L197.569 222.846L201.68 226.957L201.724 226.913L201.123 219.291ZM210.238 222.787C210.505 223.054 210.84 223.165 211.241 223.121C211.649 223.069 212.006 222.891 212.31 222.586C212.741 222.155 212.964 221.613 212.979 220.959C213.001 220.298 212.797 219.752 212.366 219.321C211.794 219.388 211.222 219.707 210.651 220.279C210.235 220.695 209.986 221.145 209.904 221.628C209.83 222.103 209.941 222.489 210.238 222.787ZM207.598 217.494C208.356 216.736 209.158 216.342 210.004 216.312C210.844 216.275 211.616 216.61 212.322 217.315L215.686 220.68L214.705 221.661L213.948 220.904L213.903 220.948C214.104 221.995 213.851 222.872 213.146 223.578C212.544 224.179 211.861 224.506 211.096 224.558C210.339 224.603 209.693 224.358 209.158 223.823C208.593 223.259 208.356 222.597 208.445 221.839C208.541 221.074 208.946 220.335 209.659 219.622C210.268 219.013 210.881 218.623 211.497 218.452L211.263 218.218C210.907 217.861 210.465 217.702 209.937 217.738C209.403 217.769 208.946 217.973 208.567 218.352C207.996 218.923 207.784 219.618 207.932 220.435L206.462 220.77C206.247 219.559 206.625 218.467 207.598 217.494ZM217.866 218.499L216.841 219.524L211.383 214.064L212.363 213.083L213.255 213.975L213.299 213.93C213.113 213.537 213.08 213.08 213.199 212.56C213.318 212.025 213.533 211.601 213.845 211.289C214.142 210.992 214.439 210.784 214.736 210.665L215.416 211.969C215.238 212.044 215.011 212.218 214.736 212.493C214.35 212.879 214.168 213.373 214.19 213.975C214.22 214.569 214.443 215.074 214.858 215.49L217.866 218.499ZM222.245 212.604C222.749 212.099 222.98 211.505 222.935 210.821C222.905 210.123 222.597 209.48 222.01 208.893C221.439 208.322 220.8 208.017 220.094 207.98C219.396 207.935 218.798 208.162 218.301 208.659C217.811 209.15 217.584 209.748 217.621 210.453C217.659 211.159 217.963 211.798 218.535 212.37C219.114 212.95 219.753 213.254 220.451 213.284C221.157 213.321 221.754 213.095 222.245 212.604ZM223.013 213.707C222.3 214.421 221.405 214.751 220.328 214.699C219.251 214.633 218.312 214.198 217.51 213.395C216.708 212.593 216.273 211.653 216.206 210.576C216.155 209.499 216.485 208.604 217.198 207.891C217.599 207.489 218.049 207.211 218.546 207.055C219.051 206.891 219.534 206.862 219.994 206.966L220.039 206.921L219.237 206.208L216.719 203.689L217.744 202.665L225.72 210.643L224.74 211.624L223.982 210.866L223.938 210.91C224.041 211.371 224.012 211.854 223.849 212.359C223.692 212.857 223.414 213.306 223.013 213.707ZM220.954 200.724C221.155 200.924 221.255 201.166 221.255 201.448C221.255 201.73 221.155 201.972 220.954 202.172C220.753 202.373 220.512 202.473 220.23 202.473C219.948 202.473 219.706 202.373 219.506 202.172C219.305 201.972 219.205 201.73 219.205 201.448C219.205 201.166 219.305 200.924 219.506 200.724C219.706 200.523 219.948 200.423 220.23 200.423C220.512 200.423 220.753 200.523 220.954 200.724ZM222.625 202.819L228.083 208.279L227.058 209.304L221.6 203.844L222.625 202.819ZM228.438 204.581C228.706 204.848 229.04 204.96 229.441 204.915C229.849 204.863 230.206 204.685 230.51 204.38C230.941 203.949 231.164 203.407 231.178 202.753C231.201 202.092 230.996 201.546 230.566 201.115C229.994 201.182 229.422 201.502 228.85 202.074C228.434 202.49 228.186 202.939 228.104 203.422C228.03 203.897 228.141 204.284 228.438 204.581ZM225.798 199.288C226.556 198.53 227.358 198.136 228.204 198.107C229.043 198.069 229.816 198.404 230.521 199.109L233.886 202.475L232.905 203.456L232.148 202.698L232.103 202.742C232.303 203.79 232.051 204.666 231.345 205.372C230.744 205.974 230.061 206.3 229.296 206.353C228.538 206.397 227.892 206.152 227.358 205.617C226.793 205.053 226.556 204.392 226.645 203.634C226.741 202.868 227.146 202.129 227.859 201.416C228.468 200.807 229.081 200.417 229.697 200.246L229.463 200.012C229.106 199.656 228.665 199.496 228.137 199.533C227.603 199.563 227.146 199.767 226.767 200.146C226.195 200.718 225.984 201.413 226.132 202.23L224.662 202.564C224.447 201.353 224.825 200.261 225.798 199.288Z" fill="#174E8C"/>
<path d="M410.871 415.356L212.446 613.845C210.043 616.249 210.043 620.147 212.446 622.551L271.625 681.749C274.029 684.153 277.925 684.153 280.328 681.749L478.753 483.26C481.157 480.856 481.157 476.958 478.753 474.554L419.574 415.356C417.171 412.952 413.274 412.952 410.871 415.356Z" stroke="#174E8C" stroke-width="5"/>
<path d="M276.847 547.684L346.121 616.981" stroke="#174E8C" stroke-width="5"/>
<path d="M346.469 478.039L415.745 547.336" stroke="#174E8C" stroke-width="5"/>
<path d="M345.168 565.524C344.679 564.416 344.206 563.357 343.76 562.259C341.233 556.163 338.777 550.018 336.261 543.899C335.154 541.198 336.693 539.494 338.662 538.795C338.973 538.681 339.313 538.671 339.631 538.766C343.106 540.072 346.603 541.346 350.04 542.756C354.073 544.414 358.056 546.186 362.061 547.914C362.247 547.991 362.427 548.085 362.64 548.189C361.604 549.225 360.601 550.229 359.598 551.232C359.511 551.319 359.244 551.29 359.102 551.224C356.832 550.212 354.567 549.14 352.303 548.176C348.395 546.47 344.533 544.862 340.631 543.194C340.386 543.09 340.135 543.012 339.824 542.907C339.884 543.109 339.918 543.251 339.968 543.387C342.354 549.756 345.088 556.017 347.943 562.214C348.107 562.574 348.103 562.785 347.799 563.066C346.948 563.918 346.102 564.765 345.251 565.617L345.168 565.524Z" fill="#174E8C"/>
<path d="M304.269 217.65L109.325 412.657C105.96 416.023 105.96 421.479 109.325 424.845L227.684 543.242C231.048 546.607 236.503 546.608 239.868 543.242L434.812 348.235C438.176 344.87 438.176 339.413 434.812 336.047L316.453 217.65C313.088 214.285 307.633 214.285 304.269 217.65Z" stroke="#174E8C" stroke-width="5"/>
<path d="M140.866 437.241C140.712 436.89 140.564 436.555 140.424 436.207C139.631 434.278 138.861 432.333 138.072 430.397C137.725 429.542 138.215 429 138.841 428.775C138.939 428.739 139.047 428.735 139.148 428.765C140.248 429.174 141.355 429.573 142.442 430.015C143.719 430.535 144.979 431.091 146.247 431.634C146.305 431.658 146.362 431.687 146.43 431.72C146.1 432.05 145.78 432.37 145.461 432.689C145.433 432.717 145.349 432.708 145.304 432.687C144.585 432.37 143.869 432.033 143.152 431.73C141.916 431.195 140.693 430.69 139.459 430.167C139.381 430.134 139.302 430.11 139.203 430.077C139.222 430.141 139.233 430.186 139.248 430.229C139.996 432.245 140.854 434.226 141.75 436.187C141.802 436.301 141.8 436.368 141.703 436.458C141.432 436.729 141.163 436.998 140.892 437.27L140.866 437.241Z" fill="#174E8C"/>
<path d="M141.931 424.961C141.931 424.961 141.931 424.961 141.94 424.97C142.265 424.787 142.265 424.787 142.539 425.061L147.808 430.331L146.939 431.2L141.821 426.08C141.489 425.749 141.472 425.648 141.65 425.243L141.931 424.961Z" fill="#174E8C"/>
<path d="M162.074 413.974L163.191 414.266C163.16 414.425 163.119 414.581 163.068 414.734C162.429 416.251 161.397 417.352 159.761 417.762C159.239 417.893 158.692 417.898 158.167 417.774C157.642 417.65 157.155 417.403 156.745 417.052C156.092 416.566 155.588 415.906 155.291 415.149C155.08 414.603 155.006 414.013 155.078 413.432C155.15 412.851 155.365 412.298 155.704 411.82C156.166 411.091 156.821 410.504 157.596 410.124C157.835 410.014 158.091 409.944 158.352 409.917C158.447 409.898 158.545 409.9 158.638 409.923C158.732 409.946 158.82 409.989 158.895 410.049C158.971 410.109 159.033 410.185 159.076 410.271C159.119 410.358 159.144 410.452 159.147 410.549C159.161 410.705 159.165 410.861 159.159 411.017C158.782 411.021 158.41 411.099 158.063 411.247C157.717 411.396 157.403 411.612 157.14 411.882C156.177 412.846 156.118 414.045 156.779 415.104C157.071 415.583 157.485 415.976 157.98 416.242C158.39 416.475 158.86 416.581 159.331 416.545C159.802 416.51 160.251 416.334 160.621 416.041C161.337 415.548 161.852 414.815 162.074 413.974Z" fill="#174E8C"/>
<path d="M161.807 412.385C161.336 411.903 161.054 411.265 161.015 410.592C160.977 409.918 161.183 409.253 161.597 408.719C161.865 408.327 162.219 408.002 162.634 407.771C163.049 407.541 163.512 407.41 163.987 407.39C164.417 407.366 164.846 407.445 165.24 407.62C165.634 407.796 165.98 408.061 166.25 408.396C166.721 408.956 166.96 409.674 166.919 410.404C166.879 411.134 166.562 411.82 166.033 412.324C165.714 412.669 165.319 412.932 164.878 413.092C164.437 413.252 163.965 413.305 163.5 413.245C162.852 413.168 162.252 412.863 161.807 412.385ZM165.166 409.136C165.057 409.051 164.954 408.954 164.838 408.88C164.592 408.7 164.299 408.594 163.995 408.576C163.69 408.558 163.387 408.629 163.122 408.78C162.84 408.918 162.605 409.137 162.446 409.407C162.287 409.677 162.21 409.989 162.225 410.302C162.239 410.582 162.316 410.856 162.453 411.102C162.589 411.347 162.779 411.558 163.01 411.718C163.198 411.868 163.417 411.975 163.651 412.032C163.885 412.089 164.129 412.095 164.365 412.049C164.602 412.003 164.825 411.906 165.021 411.765C165.216 411.624 165.379 411.443 165.498 411.233C165.687 410.897 165.757 410.507 165.697 410.126C165.637 409.746 165.449 409.397 165.166 409.136Z" fill="#174E8C"/>
<path d="M154.082 421.097C154.255 421.221 154.455 421.302 154.665 421.332C154.876 421.362 155.09 421.341 155.291 421.27C155.765 421.099 156.177 420.788 156.472 420.379C156.716 420.071 156.897 419.717 157.004 419.339L157.942 419.631C157.866 419.979 157.731 420.31 157.539 420.61C157.154 421.297 156.578 421.857 155.881 422.223C155.422 422.45 154.906 422.537 154.397 422.472C153.889 422.408 153.411 422.195 153.022 421.861C152.457 421.419 152.065 420.792 151.915 420.09C151.832 419.677 151.845 419.25 151.952 418.842C152.061 418.434 152.261 418.057 152.539 417.739C152.888 417.288 153.354 416.941 153.887 416.736C154.29 416.569 154.742 416.566 155.146 416.728C155.551 416.89 155.877 417.203 156.054 417.601C156.122 417.773 156.153 417.957 156.147 418.141C156.141 418.326 156.097 418.507 156.018 418.674C155.843 419.112 155.587 419.513 155.264 419.857C154.902 420.253 154.517 420.624 154.145 421.007C154.121 421.036 154.1 421.066 154.082 421.097ZM153.433 420.514C153.452 420.494 153.471 420.476 153.49 420.456C153.806 420.14 154.122 419.824 154.438 419.508C154.664 419.271 154.841 418.992 154.961 418.688C155.016 418.568 155.031 418.434 155.007 418.304C154.983 418.175 154.919 418.056 154.825 417.964C154.736 417.864 154.62 417.793 154.491 417.758C154.361 417.723 154.225 417.727 154.098 417.769C153.786 417.872 153.511 418.064 153.307 418.322C153.051 418.636 152.922 419.036 152.946 419.44C152.97 419.846 153.146 420.227 153.438 420.508L153.433 420.514Z" fill="#174E8C"/>
<path d="M151.354 424.932C151.218 424.55 151.099 424.189 150.953 423.84C150.631 423.02 150.297 422.203 149.961 421.379L149.943 421.341C149.683 420.714 150.025 420.154 150.75 420.075C150.936 420.496 151.147 420.925 151.294 421.362C151.756 422.681 152.205 424.001 152.654 425.327C152.672 425.366 152.676 425.411 152.666 425.452C152.655 425.494 152.631 425.531 152.597 425.557C152.366 425.788 152.135 426.02 151.907 426.248C151.886 426.267 151.862 426.281 151.835 426.29C151.809 426.299 151.781 426.301 151.753 426.298C150.346 425.872 148.935 425.445 147.576 424.884C147.342 424.786 147.114 424.673 146.894 424.547C146.823 424.509 146.761 424.456 146.714 424.391C146.667 424.325 146.636 424.249 146.624 424.17C146.612 424.09 146.619 424.009 146.644 423.933C146.668 423.856 146.711 423.786 146.768 423.73C146.837 423.648 146.913 423.573 146.994 423.503C147.062 423.432 147.152 423.385 147.25 423.371C147.347 423.356 147.447 423.375 147.533 423.424C148.76 423.979 150.017 424.467 151.297 424.885C151.296 424.922 151.304 424.913 151.354 424.932Z" fill="#174E8C"/>
<path d="M169.602 408.533L168.72 409.416L168.609 409.305C167.837 408.533 167.064 407.759 166.292 406.987C166.089 406.808 165.924 406.591 165.805 406.348C165.686 406.105 165.617 405.841 165.601 405.571C165.596 405.104 165.75 404.648 166.038 404.28C166.336 403.861 166.723 403.513 167.173 403.263L167.312 403.199C167.413 403.148 167.525 403.124 167.638 403.129C167.751 403.134 167.86 403.169 167.956 403.229C168.051 403.29 168.129 403.374 168.182 403.474C168.234 403.574 168.261 403.685 168.257 403.799C168.265 403.887 168.224 403.918 168.152 403.949C167.755 404.106 167.409 404.366 167.148 404.704C166.989 404.889 166.9 405.125 166.897 405.37C166.894 405.615 166.978 405.853 167.133 406.042C167.212 406.145 167.297 406.244 167.387 406.338L169.592 408.544L169.602 408.533Z" fill="#174E8C"/>
<path d="M149.651 428.487L148.788 429.35L145.395 425.956C145.107 425.668 145.095 425.4 145.382 425.106C145.523 424.98 145.676 424.867 145.839 424.769C145.862 424.761 145.887 424.757 145.911 424.76C145.935 424.763 145.959 424.771 145.979 424.785C147.198 426.005 148.418 427.224 149.638 428.445C149.644 428.458 149.649 428.472 149.651 428.487Z" fill="#174E8C"/>
<path d="M144.739 423.369C144.811 423.437 144.868 423.52 144.906 423.612C144.945 423.703 144.965 423.802 144.965 423.901C144.964 424 144.943 424.099 144.904 424.19C144.864 424.281 144.806 424.363 144.734 424.431C144.593 424.571 144.403 424.651 144.204 424.651C144.005 424.651 143.814 424.571 143.674 424.431C143.533 424.29 143.454 424.1 143.454 423.901C143.454 423.702 143.533 423.511 143.674 423.37C143.742 423.298 143.824 423.24 143.916 423.2C144.008 423.16 144.106 423.14 144.206 423.14C144.306 423.14 144.404 423.16 144.496 423.199C144.588 423.238 144.671 423.296 144.739 423.369Z" fill="#174E8C"/>
<path d="M168.31 402.373C168.174 402.512 167.989 402.592 167.795 402.594C167.6 402.596 167.413 402.52 167.274 402.384C167.136 402.248 167.057 402.062 167.055 401.868C167.053 401.674 167.128 401.487 167.264 401.348C167.331 401.275 167.412 401.218 167.502 401.177C167.592 401.137 167.689 401.116 167.787 401.114C167.886 401.112 167.984 401.13 168.075 401.167C168.167 401.204 168.25 401.259 168.319 401.328C168.388 401.397 168.442 401.479 168.479 401.569C168.516 401.659 168.535 401.755 168.534 401.853C168.533 401.95 168.513 402.046 168.475 402.136C168.436 402.225 168.38 402.306 168.31 402.373ZM168.195 402.258C168.247 402.206 168.288 402.144 168.315 402.076C168.343 402.007 168.356 401.934 168.355 401.86C168.353 401.787 168.336 401.714 168.306 401.647C168.276 401.58 168.232 401.52 168.177 401.47C168.129 401.412 168.07 401.365 168.002 401.33C167.935 401.296 167.861 401.277 167.785 401.272C167.71 401.267 167.634 401.279 167.563 401.304C167.493 401.33 167.428 401.37 167.372 401.422C167.317 401.473 167.273 401.536 167.243 401.605C167.213 401.675 167.198 401.749 167.198 401.825C167.198 401.9 167.213 401.975 167.243 402.044C167.273 402.114 167.316 402.176 167.371 402.229C167.421 402.287 167.481 402.335 167.55 402.368C167.619 402.402 167.694 402.42 167.77 402.423C167.847 402.426 167.923 402.413 167.994 402.385C168.065 402.357 168.129 402.314 168.183 402.26L168.195 402.258Z" fill="#174E8C"/>
<path d="M167.777 402.006L167.963 402.192L167.846 402.309L167.328 401.791C167.414 401.705 167.5 401.619 167.594 401.525C167.687 401.432 167.761 401.41 167.846 401.481C167.904 401.554 167.95 401.635 167.986 401.72L168.29 401.855C168.221 401.987 168.148 402.032 168.029 401.94C167.91 401.848 167.849 401.888 167.777 402.006ZM167.69 401.919C167.727 401.85 167.758 401.78 167.785 401.707C167.785 401.707 167.723 401.645 167.71 401.648C167.644 401.677 167.581 401.711 167.522 401.75L167.69 401.919Z" fill="#174E8C"/>
<path d="M148.978 437.285L149.972 436.291L150.005 436.324L150.348 441.113L156.071 442.09L156.105 442.124L155.16 443.068L150.423 442.224L150.565 444.205L152.295 445.935L151.526 446.704L145.544 440.72L146.313 439.951L149.396 443.035L149.429 443.001L148.978 437.285ZM155.815 439.907C156.015 440.107 156.266 440.191 156.567 440.157C156.873 440.119 157.14 439.985 157.369 439.756C157.692 439.433 157.859 439.026 157.87 438.536C157.887 438.04 157.734 437.631 157.411 437.308C156.981 437.358 156.553 437.597 156.124 438.026C155.812 438.338 155.625 438.675 155.564 439.038C155.508 439.394 155.592 439.684 155.815 439.907ZM153.834 435.937C154.403 435.369 155.004 435.073 155.639 435.051C156.268 435.023 156.848 435.274 157.377 435.803L159.9 438.327L159.165 439.063L158.597 438.494L158.563 438.528C158.714 439.313 158.524 439.971 157.995 440.5C157.544 440.951 157.032 441.197 156.458 441.235C155.89 441.269 155.405 441.085 155.004 440.684C154.581 440.26 154.403 439.764 154.47 439.196C154.542 438.622 154.846 438.068 155.38 437.533C155.837 437.076 156.296 436.784 156.759 436.655L156.583 436.48C156.316 436.213 155.984 436.093 155.589 436.121C155.188 436.143 154.846 436.296 154.562 436.58C154.132 437.01 153.974 437.53 154.085 438.143L152.982 438.394C152.821 437.486 153.105 436.667 153.834 435.937ZM161.536 436.691L160.767 437.46L156.673 433.365L157.409 432.629L158.077 433.298L158.11 433.264C157.971 432.969 157.946 432.627 158.035 432.237C158.124 431.835 158.285 431.518 158.52 431.284C158.742 431.061 158.965 430.905 159.188 430.816L159.697 431.793C159.564 431.849 159.394 431.98 159.188 432.186C158.898 432.476 158.762 432.847 158.779 433.298C158.801 433.744 158.968 434.122 159.28 434.434L161.536 436.691ZM164.819 432.27C165.198 431.891 165.371 431.445 165.337 430.933C165.315 430.409 165.084 429.927 164.644 429.487C164.215 429.058 163.736 428.829 163.207 428.802C162.683 428.768 162.235 428.938 161.862 429.311C161.494 429.679 161.324 430.127 161.352 430.657C161.38 431.186 161.608 431.665 162.037 432.094C162.472 432.529 162.951 432.757 163.474 432.78C164.003 432.807 164.452 432.637 164.819 432.27ZM165.396 433.097C164.861 433.632 164.19 433.88 163.382 433.841C162.574 433.791 161.87 433.465 161.268 432.863C160.667 432.262 160.341 431.557 160.291 430.749C160.252 429.941 160.5 429.269 161.034 428.735C161.335 428.434 161.672 428.225 162.045 428.108C162.424 427.985 162.786 427.963 163.132 428.041L163.165 428.007L162.564 427.472L160.675 425.584L161.444 424.815L167.426 430.799L166.691 431.534L166.122 430.966L166.089 431C166.167 431.345 166.145 431.707 166.022 432.086C165.905 432.459 165.696 432.797 165.396 433.097ZM163.851 423.359C164.002 423.51 164.077 423.691 164.077 423.903C164.077 424.114 164.002 424.296 163.851 424.446C163.701 424.596 163.52 424.671 163.308 424.671C163.097 424.671 162.916 424.596 162.765 424.446C162.615 424.296 162.54 424.114 162.54 423.903C162.54 423.691 162.615 423.51 162.765 423.359C162.916 423.209 163.097 423.134 163.308 423.134C163.52 423.134 163.701 423.209 163.851 423.359ZM165.104 424.93L169.198 429.026L168.43 429.794L164.336 425.7L165.104 424.93ZM169.464 426.252C169.665 426.453 169.916 426.536 170.216 426.503C170.523 426.464 170.79 426.33 171.018 426.102C171.341 425.779 171.509 425.372 171.52 424.882C171.536 424.386 171.383 423.976 171.06 423.653C170.632 423.703 170.203 423.943 169.773 424.372C169.462 424.684 169.275 425.021 169.214 425.383C169.158 425.74 169.242 426.03 169.464 426.252ZM167.484 422.282C168.052 421.714 168.654 421.419 169.289 421.397C169.919 421.369 170.498 421.62 171.027 422.149L173.55 424.673L172.815 425.408L172.247 424.84L172.213 424.873C172.363 425.659 172.174 426.317 171.645 426.846C171.194 427.297 170.682 427.542 170.108 427.581C169.54 427.615 169.055 427.431 168.654 427.03C168.231 426.606 168.052 426.11 168.119 425.542C168.192 424.968 168.495 424.414 169.03 423.879C169.487 423.422 169.946 423.129 170.408 423.001L170.233 422.826C169.966 422.558 169.635 422.439 169.239 422.467C168.838 422.489 168.495 422.642 168.211 422.926C167.783 423.355 167.624 423.876 167.735 424.489L166.632 424.74C166.471 423.832 166.755 423.012 167.484 422.282ZM175.319 422.903L174.551 423.672L168.569 417.688L169.337 416.919L175.06 418.482L175.094 418.449L173.531 412.724L174.3 411.955L180.282 417.939L179.513 418.708L175.963 415.155L174.993 414.119L174.96 414.153L176.372 419.309L175.921 419.76L170.766 418.348L170.732 418.382L171.768 419.351L175.319 422.903ZM179.071 415.055C178.442 414.425 178.119 413.707 178.102 412.898C178.091 412.085 178.389 411.375 178.996 410.768C179.603 410.16 180.31 409.865 181.118 409.882C181.931 409.892 182.653 410.213 183.282 410.842C183.917 411.478 184.237 412.199 184.243 413.007C184.26 413.815 183.964 414.523 183.357 415.13C182.75 415.737 182.04 416.035 181.226 416.024C180.419 416.007 179.7 415.684 179.071 415.055ZM179.84 414.286C180.28 414.726 180.764 414.954 181.293 414.971C181.823 414.988 182.277 414.807 182.655 414.428C183.034 414.049 183.215 413.595 183.198 413.066C183.181 412.536 182.953 412.051 182.513 411.612C182.079 411.177 181.597 410.951 181.068 410.934C180.527 410.918 180.071 411.096 179.698 411.469C179.325 411.843 179.146 412.3 179.163 412.84C179.18 413.369 179.405 413.851 179.84 414.286ZM188.284 410.202C187.983 410.503 187.643 410.714 187.265 410.837C186.891 410.954 186.532 410.973 186.187 410.895L186.153 410.929L186.722 411.497L185.986 412.233L180.004 406.249L180.773 405.48L182.661 407.369L183.196 407.97L183.229 407.937C183.151 407.591 183.171 407.232 183.288 406.859C183.41 406.48 183.622 406.14 183.923 405.839C184.463 405.299 185.131 405.053 185.928 405.104C186.741 405.148 187.448 405.472 188.05 406.073C188.657 406.681 188.98 407.388 189.019 408.196C189.069 408.993 188.824 409.661 188.284 410.202ZM187.457 409.625C187.824 409.257 187.994 408.808 187.966 408.28C187.944 407.756 187.716 407.276 187.281 406.842C186.853 406.413 186.374 406.185 185.844 406.157C185.315 406.129 184.867 406.299 184.499 406.666C184.126 407.04 183.953 407.491 183.981 408.021C184.014 408.544 184.246 409.02 184.675 409.45C185.109 409.884 185.588 410.118 186.112 410.151C186.635 410.174 187.083 409.998 187.457 409.625ZM186.248 400.956C186.398 401.106 186.473 401.288 186.473 401.499C186.473 401.711 186.398 401.892 186.248 402.043C186.097 402.193 185.916 402.268 185.705 402.268C185.493 402.268 185.312 402.193 185.161 402.043C185.011 401.892 184.936 401.711 184.936 401.499C184.936 401.288 185.011 401.106 185.161 400.956C185.312 400.805 185.493 400.73 185.705 400.73C185.916 400.73 186.097 400.805 186.248 400.956ZM187.501 402.527L191.594 406.622L190.826 407.391L186.732 403.296L187.501 402.527ZM187.382 398.869L193.364 404.853L192.595 405.622L186.613 399.638L187.382 398.869ZM196.231 402.252C195.629 402.854 194.928 403.143 194.126 403.121C193.323 403.099 192.608 402.773 191.978 402.143C191.355 401.519 191.026 400.811 190.993 400.02C190.953 399.224 191.229 398.53 191.82 397.939C192.427 397.332 193.106 397.048 193.859 397.087C194.61 397.115 195.34 397.482 196.047 398.19L196.123 398.282L192.906 401.5C193.318 401.89 193.775 402.079 194.276 402.068C194.777 402.057 195.206 401.873 195.563 401.517C196.053 401.026 196.192 400.396 195.98 399.627L197 399.276C197.161 399.806 197.175 400.332 197.041 400.856C196.913 401.374 196.643 401.84 196.231 402.252ZM192.329 400.806L194.677 398.457C194.371 398.196 194.02 398.079 193.624 398.107C193.229 398.123 192.856 398.307 192.505 398.658C192.215 398.948 192.054 399.288 192.02 399.678C191.992 400.062 192.096 400.438 192.329 400.806Z" fill="#174E8C"/>
<path d="M203.316 433.551L173.726 463.15C172.284 464.593 172.284 466.931 173.726 468.374L229.424 524.09C230.866 525.532 233.204 525.532 234.646 524.09L264.236 494.491C265.677 493.048 265.677 490.71 264.236 489.267L208.537 433.551C207.095 432.109 204.757 432.109 203.316 433.551Z" stroke="#174E8C" stroke-width="5"/>
<path d="M354.745 282.072L325.156 311.671C323.714 313.114 323.714 315.452 325.156 316.895L380.854 372.611C382.296 374.053 384.634 374.053 386.076 372.611L415.665 343.012C417.107 341.569 417.107 339.231 415.665 337.788L359.967 282.072C358.525 280.63 356.187 280.63 354.745 282.072Z" stroke="#174E8C" stroke-width="5"/>
<path d="M304.536 278.996C304.896 279.357 304.907 279.928 304.561 280.275C304.214 280.622 303.643 280.611 303.283 280.25L298.724 275.689C298.364 275.33 298.352 274.758 298.699 274.411C299.046 274.064 299.617 274.076 299.977 274.436L304.536 278.996ZM300.463 283.071C302.441 285.05 305.588 285.111 307.492 283.206C309.395 281.303 309.334 278.155 307.356 276.176C306.248 275.068 304.774 274.561 303.357 274.663C302.86 274.699 302.412 274.326 302.357 273.828C302.302 273.33 302.66 272.896 303.156 272.86C305.085 272.722 307.099 273.411 308.59 274.904C311.306 277.62 311.389 281.914 308.794 284.51C306.2 287.105 301.907 287.022 299.192 284.306C297.7 282.813 297.009 280.801 297.148 278.87C297.185 278.373 297.618 278.015 298.116 278.071C298.596 278.143 298.987 278.574 298.951 279.07C298.848 280.488 299.356 281.963 300.463 283.071Z" fill="#174E8C"/>
<path d="M313.668 289.037C318.955 283.748 318.955 275.173 313.668 269.884C308.381 264.595 299.809 264.595 294.522 269.884C289.234 275.173 289.234 283.748 294.522 289.037C299.809 294.325 308.381 294.325 313.668 289.037Z" stroke="#174E8C" stroke-width="5"/>
<path d="M238.649 311.149C241.533 314.034 241.533 318.711 238.649 321.596C235.765 324.481 231.09 324.481 228.206 321.596C225.322 318.711 225.322 314.034 228.206 311.149C231.09 308.264 235.765 308.264 238.649 311.149Z" stroke="#174E8C" stroke-width="5"/>
<defs>
<linearGradient id="paint0_linear_2_640" x1="327.5" y1="302" x2="327.5" y2="1040" gradientUnits="userSpaceOnUse">
<stop stop-color="#E3EBFF"/>
<stop offset="0.793731" stop-color="#DBE5FF" stop-opacity="0"/>
</linearGradient>
<clipPath id="clip0_2_640">
<rect x="98" y="302" width="459" height="738" rx="24" fill="white"/>
</clipPath>
</defs>
</svg>
