<svg width="276" height="80" viewBox="0 0 276 80" fill="none" xmlns="http://www.w3.org/2000/svg">
<g clip-path="url(#clip0_2_76)">
<rect y="4" width="72" height="72" rx="36" fill="white"/>
<rect x="-5" y="-3" width="81" height="110" fill="#C4C4C4"/>
</g>
<rect x="1" y="5" width="70" height="70" rx="35" stroke="white" stroke-width="2"/>
<g clip-path="url(#clip1_2_76)">
<rect x="51" y="4" width="72" height="72" rx="36" fill="white"/>
<rect x="46" y="4" width="77" height="104" fill="#C4C4C4"/>
</g>
<rect x="52" y="5" width="70" height="70" rx="35" stroke="white" stroke-width="2"/>
<g clip-path="url(#clip2_2_76)">
<rect x="102" y="4" width="72" height="72" rx="36" fill="white"/>
<rect x="97" y="-3" width="81" height="110" fill="#C4C4C4"/>
</g>
<rect x="103" y="5" width="70" height="70" rx="35" stroke="white" stroke-width="2"/>
<g clip-path="url(#clip3_2_76)">
<rect x="153" y="4" width="72" height="72" rx="36" fill="white"/>
<rect x="148" y="-3" width="81" height="110" fill="#C4C4C4"/>
</g>
<rect x="154" y="5" width="70" height="70" rx="35" stroke="white" stroke-width="2"/>
<g clip-path="url(#clip4_2_76)">
<rect x="204" y="4" width="72" height="72" rx="36" fill="white"/>
<rect x="199" y="2" width="81" height="110" fill="#C4C4C4"/>
</g>
<rect x="205" y="5" width="70" height="70" rx="35" stroke="white" stroke-width="2"/>
<defs>
<clipPath id="clip0_2_76">
<rect y="4" width="72" height="72" rx="36" fill="white"/>
</clipPath>
<clipPath id="clip1_2_76">
<rect x="51" y="4" width="72" height="72" rx="36" fill="white"/>
</clipPath>
<clipPath id="clip2_2_76">
<rect x="102" y="4" width="72" height="72" rx="36" fill="white"/>
</clipPath>
<clipPath id="clip3_2_76">
<rect x="153" y="4" width="72" height="72" rx="36" fill="white"/>
</clipPath>
<clipPath id="clip4_2_76">
<rect x="204" y="4" width="72" height="72" rx="36" fill="white"/>
</clipPath>
</defs>
</svg>
